{"glyphs":{" ":{"ha":231,"x_min":0,"x_max":0,"o":""},"A":{"ha":822,"x_min":0,"x_max":776,"o":"m 300 902 q 378 820 332 880 q 402 783 402 788 q 652 674 511 783 q 735 565 718 611 q 776 407 776 489 l 776 354 q 719 169 776 272 q 576 43 652 78 q 491 20 541 20 l 489 20 q 359 70 425 20 q 278 43 313 43 l 263 43 q 183 57 237 43 q 87 128 146 73 q 0 398 0 239 q 54 581 0 479 q 124 665 79 620 q 263 720 200 720 l 278 720 l 319 717 q 307 681 319 708 l 257 689 q 243 683 243 687 q 254 650 244 653 l 257 650 q 261 661 261 650 l 263 661 l 265 652 l 265 650 q 256 637 265 637 q 241 672 244 637 l 241 681 l 237 687 q 139 652 192 683 q 56 556 74 603 l 56 554 q 70 530 56 530 l 72 544 q 81 522 81 537 l 81 515 l 74 507 q 48 544 58 507 l 46 544 q 20 420 20 481 l 19 413 q 130 139 19 256 l 135 137 q 211 209 185 163 q 169 315 176 256 l 169 317 q 81 270 138 298 l 81 272 q 163 326 81 276 l 165 328 q 154 435 159 345 l 154 452 l 156 465 q 202 407 176 448 l 215 380 l 217 380 q 272 511 267 450 l 272 517 q 230 581 272 546 q 189 598 219 591 l 189 594 q 207 552 196 552 l 215 552 l 215 563 l 217 563 q 224 539 223 563 l 224 531 l 215 530 q 183 598 193 530 q 131 569 137 596 q 189 524 131 548 q 211 465 211 506 l 211 463 l 209 463 q 161 502 199 481 q 119 572 119 522 q 170 637 128 637 l 181 639 q 261 591 225 639 q 278 541 278 553 l 283 494 q 226 356 283 413 q 239 267 239 300 l 239 257 l 241 256 l 237 228 q 261 222 250 222 q 309 285 292 222 l 309 287 q 304 298 309 297 q 280 293 291 293 q 246 335 246 296 l 246 359 q 269 385 246 385 q 311 348 311 374 q 378 420 348 364 q 311 469 320 420 l 311 513 q 344 544 321 544 l 346 544 q 404 509 388 544 q 411 474 411 494 l 457 522 l 461 522 l 461 485 l 433 450 q 450 411 438 411 l 452 411 l 459 422 l 461 422 l 463 409 l 463 407 q 450 394 463 394 q 430 443 434 394 l 430 444 l 428 444 q 409 378 409 438 q 406 328 406 359 q 493 398 493 388 q 478 428 478 403 l 478 439 l 494 507 l 494 509 q 454 604 494 552 q 407 639 428 629 l 407 637 q 426 535 426 567 l 426 528 l 424 519 l 422 519 l 419 522 l 419 530 q 357 683 419 605 l 346 693 q 293 606 336 650 l 272 591 l 272 594 q 328 737 308 654 l 330 763 l 328 763 q 202 719 314 763 q 324 772 270 763 l 330 774 l 330 785 q 298 902 330 832 l 300 902 m 330 859 q 354 783 354 804 l 354 778 l 393 781 q 331 859 374 818 l 330 859 m 354 767 l 356 759 l 352 702 q 483 611 400 702 q 513 524 513 565 l 513 522 q 498 452 513 498 l 498 448 l 507 439 q 546 467 520 439 l 548 469 l 550 469 q 559 437 559 456 l 559 435 q 454 317 559 389 q 402 274 402 278 l 400 269 q 448 183 400 203 l 472 180 q 526 228 509 180 l 526 233 q 472 272 526 258 l 461 272 l 459 309 l 459 313 q 498 306 476 313 q 574 393 541 322 q 613 494 594 462 l 617 522 l 620 522 q 681 489 638 505 l 689 481 l 680 446 q 628 461 638 461 q 578 344 603 461 q 533 291 562 307 q 522 287 522 289 q 535 243 535 266 l 535 211 q 496 143 535 160 l 480 141 l 470 141 q 398 209 433 141 l 389 263 l 387 263 q 370 219 370 251 l 370 200 l 376 180 q 389 187 386 180 l 389 196 l 393 196 l 396 180 l 396 163 l 389 159 l 380 159 q 363 204 363 175 l 363 207 q 369 239 363 224 l 369 241 l 367 241 q 333 154 338 198 q 352 104 341 104 q 413 150 359 104 l 420 152 l 428 152 l 450 109 l 469 104 l 478 104 q 513 152 490 108 l 515 152 l 515 143 l 513 124 q 567 170 549 124 l 569 170 l 569 161 l 565 144 l 567 144 q 622 189 595 152 l 615 189 q 552 231 552 195 l 552 233 q 585 311 552 292 q 604 317 595 317 l 607 317 q 656 274 640 317 l 661 237 l 717 274 l 726 280 l 731 280 q 706 235 720 235 q 657 187 658 200 q 652 144 657 165 l 650 144 l 648 154 l 648 181 q 619 146 645 181 q 557 107 587 107 l 552 109 q 520 83 535 83 l 515 83 l 502 87 q 467 63 488 63 q 426 109 441 63 l 419 113 q 370 76 407 110 q 483 37 431 37 l 498 37 q 691 154 587 37 q 765 363 765 254 l 765 393 q 691 617 765 506 q 596 702 630 684 q 413 772 484 772 l 409 772 q 444 711 444 725 l 444 709 l 443 709 q 396 772 434 727 l 354 767 m 350 669 q 367 637 362 669 q 383 613 383 629 l 381 593 l 381 585 q 394 600 394 590 l 398 596 l 398 587 q 389 572 398 577 l 385 572 q 376 591 380 572 l 378 619 l 378 620 q 361 630 378 626 q 309 572 344 590 l 309 574 q 356 633 355 621 q 343 652 343 642 l 343 661 l 350 669 m 348 657 q 357 641 348 641 l 357 654 l 354 657 l 348 657 m 319 489 q 359 461 319 475 l 370 459 l 402 467 l 402 469 q 369 502 402 486 l 344 506 q 319 489 319 497 m 74 494 l 78 491 l 78 480 l 87 480 q 130 456 130 469 q 144 385 144 442 l 144 372 q 107 333 138 333 l 104 333 q 59 385 68 333 l 59 387 q 65 435 59 407 q 44 465 44 435 l 44 483 l 67 481 l 72 481 l 74 494 m 72 431 l 72 411 q 98 381 76 381 l 107 381 q 135 404 121 381 q 83 435 135 431 l 76 435 l 72 431 m 161 419 l 161 415 q 170 335 161 391 l 172 335 q 202 363 185 341 q 161 419 187 391 m 400 409 q 344 324 382 360 l 320 306 l 320 281 q 287 189 320 210 l 272 185 l 263 185 q 230 196 254 185 q 200 150 221 169 q 139 131 165 131 q 278 81 195 81 q 337 96 301 81 q 317 176 317 140 l 317 180 q 389 315 317 251 l 402 407 l 402 409 l 400 409 m 176 317 q 211 241 176 289 l 219 237 l 222 237 q 231 280 231 269 l 231 283 q 213 344 231 301 q 176 317 176 323 m 139 285 l 141 285 q 156 276 152 285 q 152 267 156 267 l 143 272 l 139 272 l 131 265 l 131 259 q 167 233 131 256 q 176 211 176 223 l 176 206 l 169 181 q 161 196 166 181 l 144 207 l 137 206 q 144 193 144 197 l 143 187 l 131 196 l 131 206 q 141 220 131 216 l 143 220 q 169 200 163 220 l 172 200 q 135 239 172 222 q 126 257 126 249 q 139 285 126 276 m 563 259 q 613 228 563 239 l 631 228 q 644 231 644 228 q 600 278 629 278 l 589 278 q 563 259 563 269 m 450 259 q 483 244 483 255 l 485 239 q 470 209 485 223 q 437 222 470 214 l 437 224 l 450 259 m 256 170 q 278 133 274 170 q 269 106 275 106 l 269 107 l 272 130 q 261 146 272 137 l 252 146 q 243 128 243 141 q 237 143 237 129 l 237 144 q 256 170 241 170 m 374 33 q 380 15 378 29 q 402 26 387 15 l 404 26 q 407 17 407 26 l 409 15 l 411 15 l 420 20 l 424 20 q 406 2 418 9 l 398 2 q 393 11 393 2 q 370 4 380 4 q 365 19 365 11 l 361 19 q 330 6 344 6 q 298 15 298 9 l 331 15 q 374 33 342 15 z "},"B":{"ha":2031,"x_min":0,"x_max":1985,"o":"m 1698 1133 q 1713 1124 1713 1133 q 1689 1050 1704 1050 q 1569 924 1627 1004 q 1391 628 1487 807 q 1237 394 1332 521 q 1131 287 1186 331 q 1250 102 1175 102 q 1335 213 1307 102 l 1393 398 q 1448 457 1418 457 q 1467 426 1467 457 q 1557 256 1504 256 l 1559 256 q 1628 324 1603 256 q 1641 372 1638 372 l 1656 372 q 1663 350 1660 372 l 1659 311 q 1746 439 1711 360 l 1783 502 l 1780 502 l 1744 500 q 1646 543 1646 506 q 1639 581 1641 543 l 1639 585 q 1704 676 1639 644 q 1741 683 1723 683 q 1841 583 1806 683 q 1965 628 1873 583 q 1985 617 1985 623 q 1946 559 1969 559 q 1861 506 1888 529 l 1861 504 q 1876 346 1876 384 l 1876 311 q 1865 274 1876 283 l 1861 274 q 1826 470 1844 274 l 1824 470 q 1735 313 1801 455 q 1654 243 1694 261 q 1641 231 1641 237 q 1557 181 1611 181 l 1548 181 q 1461 287 1503 181 q 1431 383 1435 383 q 1402 252 1421 369 q 1261 26 1358 26 l 1256 26 q 1120 215 1163 26 q 1106 269 1113 231 q 970 228 1037 228 q 804 333 852 228 l 802 333 q 694 194 767 231 q 633 146 675 194 q 569 126 608 126 l 554 126 q 472 176 524 126 q 417 272 435 220 q 391 348 406 319 l 389 348 q 361 193 389 281 q 259 83 330 123 q 41 30 173 46 l 0 33 l 0 41 q 124 85 77 61 q 257 165 194 117 q 322 252 322 225 q 357 422 335 279 q 363 441 360 422 q 378 454 367 454 l 380 454 q 422 381 400 454 l 452 296 q 533 206 487 226 l 554 200 l 557 200 q 637 274 610 200 q 652 319 643 319 l 656 319 q 678 248 678 319 l 680 248 q 757 357 737 303 l 811 491 l 809 491 q 672 457 721 457 q 585 530 604 457 l 581 567 l 581 572 q 617 657 581 635 q 689 687 650 687 q 830 576 761 687 l 833 576 q 943 637 871 576 q 1015 676 994 676 q 1022 663 1022 673 l 1022 657 q 998 600 1022 613 l 911 530 q 869 469 869 488 q 887 383 887 413 l 887 380 q 876 374 885 374 q 844 426 859 374 l 843 426 l 822 376 q 893 315 849 330 q 959 302 933 302 l 967 302 q 1144 393 1039 302 q 1272 552 1232 489 q 1491 909 1351 673 q 1613 1069 1521 960 l 1652 1098 q 1698 1133 1698 1129 m 1680 591 q 1737 570 1700 570 l 1785 572 l 1785 574 q 1724 613 1768 613 q 1680 591 1696 613 m 619 563 q 672 528 619 541 q 780 554 701 528 l 780 556 q 683 611 733 611 l 674 611 q 620 569 638 599 l 619 563 m 1717 161 l 1722 161 q 1737 154 1736 159 q 1706 89 1733 89 q 1606 48 1695 89 q 1598 80 1598 64 q 1604 117 1598 95 q 1717 161 1674 161 m 761 119 q 772 111 772 119 l 774 104 q 750 44 774 51 q 648 2 673 2 l 637 2 l 635 13 q 646 72 641 72 q 752 117 727 117 l 761 119 z "},"C":{"ha":1428,"x_min":0,"x_max":1381,"o":"m 554 1311 q 572 1294 572 1309 l 572 1280 l 569 1263 l 567 1263 q 452 1152 513 1263 l 448 1130 q 476 1141 467 1141 l 480 1141 q 498 1111 498 1141 l 498 1104 q 472 1076 490 1076 l 456 1078 l 456 1076 q 504 998 456 1025 q 491 981 504 981 l 478 985 l 481 1004 q 439 1120 439 1039 l 439 1124 q 367 1028 427 1116 q 200 933 288 933 l 172 933 q 44 1054 44 969 q 72 1130 44 1100 q 93 1137 82 1137 l 98 1137 q 119 1115 117 1137 l 119 1109 q 98 1065 119 1065 l 59 1078 l 59 1069 q 117 981 59 1011 q 154 965 139 965 l 185 965 q 426 1161 310 965 l 480 1244 q 546 1307 509 1284 l 554 1311 m 1369 1272 q 1381 1263 1381 1268 l 1381 1237 l 1380 1224 l 1378 1224 q 1269 1124 1324 1224 q 1261 1100 1261 1110 l 1261 1093 l 1263 1093 q 1285 1104 1278 1104 l 1289 1104 q 1307 1083 1303 1104 l 1307 1057 q 1272 1039 1300 1039 l 1265 1039 q 1304 959 1265 1008 l 1302 959 q 1265 1006 1277 970 q 1250 1080 1250 1042 l 1250 1085 q 1189 1004 1234 1075 q 1054 902 1125 921 q 996 896 1021 896 q 891 943 955 896 q 857 1022 857 975 q 902 1100 870 1100 l 911 1102 q 931 1078 931 1092 l 931 1061 q 902 1026 926 1026 q 874 1043 894 1026 l 870 1020 q 933 941 870 978 q 989 926 960 926 q 1217 1094 1119 926 l 1296 1211 q 1369 1272 1350 1272 m 644 1167 q 674 1150 663 1167 l 670 1130 q 643 1143 649 1143 q 626 1124 626 1133 q 635 1065 635 1097 q 611 1017 635 1017 l 611 1020 q 576 1080 601 1080 l 576 1076 l 574 1076 q 541 1093 554 1076 l 541 1102 q 554 1117 541 1117 q 619 1054 594 1117 l 620 1052 l 622 1052 l 624 1065 l 624 1083 l 615 1131 q 644 1167 621 1167 m 463 1109 l 463 1106 l 467 1102 l 470 1102 q 483 1109 481 1102 l 483 1113 l 478 1115 q 463 1109 463 1113 m 1272 1067 l 1276 1067 l 1294 1069 l 1294 1076 l 1283 1078 q 1272 1067 1275 1078 m 702 1031 l 704 1031 q 746 998 725 1031 l 746 980 q 720 967 746 967 q 680 950 690 962 l 674 943 q 706 769 706 819 q 637 646 706 677 q 583 637 606 637 l 572 637 q 633 659 572 643 q 693 761 693 696 q 661 919 693 800 l 659 943 q 702 989 659 975 q 715 996 715 993 q 700 1006 705 1006 q 683 989 689 989 q 676 994 676 992 l 676 996 q 702 1031 676 1013 m 502 972 l 507 954 l 504 939 l 483 946 q 472 937 476 944 l 472 928 l 483 894 l 485 878 l 485 874 q 422 772 485 799 l 365 754 l 365 752 q 385 680 379 686 q 606 804 456 694 l 606 802 q 513 713 576 757 q 391 654 414 654 q 413 465 413 525 l 413 461 q 394 365 413 409 q 511 450 427 372 q 528 485 528 473 q 502 524 528 509 l 500 522 l 500 519 l 496 519 q 465 543 470 519 l 465 552 q 470 563 466 563 l 472 563 q 528 526 499 563 l 530 520 l 535 520 l 539 524 l 530 574 q 548 598 538 591 l 552 598 q 585 580 585 598 l 585 565 l 580 559 q 557 572 562 572 l 543 570 l 546 524 q 424 369 546 423 q 372 317 380 346 l 333 256 l 337 256 q 491 324 407 265 q 602 496 561 395 q 683 624 635 569 q 724 648 714 648 l 728 648 q 743 604 743 642 q 733 554 740 554 q 719 576 733 566 l 713 576 q 630 465 685 576 q 637 435 637 451 l 637 422 q 559 224 637 376 l 561 224 q 635 324 603 266 q 687 381 672 381 q 696 326 690 381 q 722 309 707 309 q 802 441 766 309 q 835 556 831 505 l 902 524 q 931 481 931 505 l 931 474 q 920 441 931 465 l 869 446 q 781 319 812 446 q 713 244 757 244 q 674 306 684 244 l 672 306 q 609 215 646 287 q 550 137 550 144 q 591 96 566 96 l 606 96 q 765 248 684 96 q 854 352 804 308 q 989 426 902 388 l 991 426 l 991 431 q 1015 491 994 491 q 1059 519 1059 495 l 1059 520 q 1024 628 1048 575 l 1022 628 q 994 530 1022 565 l 994 533 l 1013 604 l 1013 615 q 924 741 1013 665 q 902 791 902 769 q 933 854 907 854 l 939 856 l 970 844 q 991 887 970 887 l 991 872 q 1050 672 991 800 q 1078 556 1078 609 l 1078 530 l 1074 515 l 1076 515 l 1107 520 l 1107 519 q 1033 385 1107 413 l 898 317 q 748 156 798 260 q 631 48 692 48 l 622 48 q 552 87 593 51 l 533 124 q 370 61 446 61 l 356 61 q 206 191 246 61 l 198 191 q 31 302 90 191 q 15 381 15 344 l 15 419 q 87 580 15 492 q 189 639 114 609 l 189 641 q 109 852 172 852 q 4 746 65 852 l 2 748 l 0 748 q 72 878 8 799 q 133 919 109 919 l 141 919 q 219 702 191 919 l 220 661 l 219 648 q 344 667 263 648 q 267 802 344 722 q 231 872 231 844 q 265 933 237 933 l 270 935 q 311 917 283 935 q 330 961 311 936 l 330 959 l 326 933 l 326 919 q 357 769 326 881 l 357 767 q 461 815 403 767 q 472 839 472 833 q 426 881 457 881 q 413 898 413 888 l 413 917 l 415 917 q 469 876 446 917 l 478 872 l 478 874 l 461 935 q 502 972 466 972 m 817 920 q 844 898 844 915 l 843 885 l 813 896 q 802 887 806 896 l 815 813 l 815 809 l 811 793 l 804 793 l 769 833 q 750 839 759 839 l 748 839 l 737 835 l 733 854 q 746 872 737 868 l 750 872 q 806 817 767 872 l 806 820 l 793 881 l 793 887 q 817 920 793 920 m 244 887 q 317 776 244 853 l 320 767 l 322 767 l 322 769 l 307 844 l 289 844 q 267 872 271 844 q 285 891 267 891 l 298 887 l 298 889 q 265 907 298 899 l 261 907 q 244 887 244 907 m 1231 865 l 1239 865 l 1239 854 q 1213 839 1239 839 l 1211 824 q 1224 770 1224 784 q 1211 722 1224 756 l 1204 722 q 1181 763 1194 763 l 1180 765 l 1174 767 l 1174 761 q 1146 776 1156 761 l 1146 794 q 1156 800 1146 799 q 1207 756 1185 800 l 1209 754 l 1211 754 l 1213 772 l 1213 780 q 1200 830 1200 821 l 1200 831 q 1231 865 1200 861 m 919 806 l 919 798 q 994 707 919 765 l 996 707 l 981 761 l 970 761 q 941 787 941 764 q 963 809 943 809 l 963 811 q 937 826 953 826 q 919 806 919 826 m 859 802 q 889 743 874 802 l 907 731 l 906 730 l 906 713 l 896 711 l 883 715 l 883 713 q 769 548 883 658 l 767 546 l 765 546 l 765 550 q 848 661 775 569 q 869 711 869 700 l 869 722 q 826 748 830 722 l 824 750 l 824 752 q 857 802 829 802 l 859 802 m 848 774 q 843 761 843 767 q 870 748 843 753 l 870 750 q 848 774 860 774 m 146 750 l 146 735 q 106 646 146 696 q 37 624 90 639 l 37 628 q 104 681 50 643 l 106 683 l 106 687 l 59 680 l 28 687 q 46 743 43 743 l 76 739 q 146 750 128 750 m 630 735 l 630 731 q 530 656 630 695 l 446 600 l 444 600 l 444 602 q 526 678 444 643 q 630 735 555 698 m 1131 715 l 1131 711 l 1124 693 q 1161 665 1161 681 l 1161 656 q 1126 611 1157 611 l 1122 611 q 1094 637 1094 611 l 1094 641 q 1131 715 1094 680 m 1107 652 q 1124 637 1115 637 q 1148 648 1136 637 q 1128 663 1140 663 l 1113 663 q 1107 652 1110 663 m 1344 650 l 1354 644 l 1350 630 l 1350 598 q 1317 557 1350 580 q 1235 378 1287 521 q 1157 265 1199 302 l 1146 261 l 1109 265 l 1109 263 q 1070 215 1103 238 l 1061 213 q 1020 270 1031 213 l 1020 274 q 952 159 998 272 q 870 39 927 96 q 726 2 820 2 l 702 2 q 570 43 614 2 l 572 43 q 656 31 618 31 l 669 31 q 970 278 895 31 q 1022 352 995 331 q 1041 293 1031 342 l 1050 283 q 1117 352 1092 283 q 1143 381 1129 375 l 1143 330 l 1144 330 q 1250 489 1200 361 q 1172 463 1189 463 l 1161 463 q 1130 494 1130 467 l 1130 498 q 1193 613 1130 560 q 1222 624 1210 624 l 1235 624 q 1250 609 1250 624 q 1241 583 1248 583 l 1235 583 l 1217 589 q 1144 520 1184 589 l 1143 507 q 1169 498 1159 498 l 1172 498 q 1272 544 1226 498 q 1331 639 1312 634 l 1344 650 m 215 611 q 206 452 206 500 q 222 261 206 364 l 224 261 q 367 376 289 261 q 393 452 393 422 l 393 461 q 365 611 393 497 l 363 611 q 333 515 363 575 q 315 494 318 494 l 315 496 q 352 617 352 569 q 346 639 351 639 q 215 611 259 611 m 33 419 q 119 274 33 326 q 189 257 159 257 l 181 426 l 189 607 q 76 539 110 587 q 33 419 33 486 m 307 561 l 309 561 q 324 539 324 550 q 298 519 324 531 q 287 493 287 506 l 287 487 q 302 478 292 478 l 333 481 l 339 481 q 348 467 348 477 l 348 452 q 283 387 348 412 l 267 385 l 252 385 l 228 389 l 228 393 q 311 424 259 395 q 330 452 327 440 l 309 452 q 265 467 271 452 l 265 470 q 307 561 282 561 m 796 520 l 798 519 l 798 506 q 706 428 798 480 q 656 394 706 425 l 654 407 q 731 470 654 431 l 796 520 m 143 507 l 148 507 q 163 498 162 507 l 161 480 l 139 481 l 133 476 q 141 420 141 452 q 128 369 141 369 q 80 419 119 419 q 67 437 67 425 l 67 443 l 69 456 l 72 456 q 130 415 97 456 l 124 483 q 143 507 126 507 m 387 230 l 369 230 q 317 235 340 230 l 248 198 l 248 194 q 356 124 278 124 q 515 183 432 124 q 539 226 539 200 q 598 357 539 241 q 626 448 615 391 l 548 317 q 387 230 481 230 m 813 228 l 876 204 l 854 139 l 787 163 l 813 228 m 1113 200 q 1119 187 1119 193 l 1119 174 q 1091 119 1119 130 q 996 70 1008 70 l 987 96 q 1000 135 987 135 q 1111 200 1030 149 l 1113 200 z "},"D":{"ha":1235,"x_min":0,"x_max":1189,"o":"m 400 1019 l 402 1019 q 411 1006 411 1016 l 411 1001 q 374 911 411 988 q 346 788 346 850 l 341 768 l 339 768 l 333 815 l 337 854 l 337 856 l 335 856 q 254 768 279 790 q 102 673 140 682 q 0 648 19 648 q 81 679 15 656 q 365 944 271 770 l 400 1019 m 906 945 l 913 945 q 926 922 926 939 q 887 780 926 902 l 883 753 l 889 700 l 889 683 q 869 777 873 683 l 867 777 q 748 648 815 706 q 611 565 638 565 q 519 542 585 554 q 600 572 522 549 q 787 711 691 619 q 889 877 850 778 q 906 945 896 891 m 161 685 q 257 575 206 630 q 293 530 281 549 q 428 623 331 538 l 443 637 l 443 635 q 346 538 419 592 l 306 517 l 306 515 q 359 360 359 429 q 337 279 359 311 q 372 231 344 263 l 372 230 l 376 230 q 450 361 415 332 q 481 371 467 371 q 493 358 493 371 l 493 334 l 494 325 l 493 326 l 483 326 q 400 211 445 326 l 400 210 q 446 196 423 196 l 450 196 q 509 249 494 196 l 511 263 l 515 263 q 528 233 525 263 l 528 222 q 591 276 555 222 q 620 369 607 297 q 639 411 639 401 l 639 429 l 643 431 l 652 431 q 730 402 713 431 l 730 387 l 728 373 l 719 373 q 635 337 655 373 l 611 249 q 535 177 591 202 q 485 153 504 169 l 470 150 q 380 183 420 150 l 378 183 q 296 134 370 159 q 202 121 252 121 q 119 131 161 121 l 119 133 l 128 133 q 319 176 265 133 q 357 210 352 200 l 326 257 l 324 257 q 204 219 264 219 q 74 289 122 219 q 63 336 63 319 l 63 342 q 220 500 63 445 l 157 684 l 159 685 l 161 685 m 204 594 l 204 592 l 231 506 l 274 519 l 274 520 l 206 594 l 204 594 m 665 568 q 793 411 793 471 l 794 411 l 826 439 q 844 406 844 425 l 846 406 q 933 492 933 467 q 891 514 891 499 l 891 519 q 915 548 891 541 l 917 548 q 950 506 950 536 l 967 499 l 965 492 l 965 486 l 963 486 l 952 488 q 924 453 947 486 q 846 402 861 402 l 846 398 q 719 249 846 330 q 644 172 644 192 l 643 163 l 643 153 q 663 95 643 141 l 667 95 q 789 152 702 95 q 857 248 845 200 q 898 292 877 292 q 928 258 910 292 l 930 258 q 976 299 962 258 l 978 310 l 978 319 q 993 294 993 319 l 994 292 q 1037 327 1020 306 q 1070 372 1057 348 l 1069 372 q 1030 367 1042 367 q 985 394 999 367 l 981 418 l 981 429 q 1048 494 981 468 q 1085 499 1067 499 l 1087 499 q 1131 463 1104 499 l 1133 461 l 1135 461 q 1181 507 1142 475 l 1187 510 l 1189 508 l 1189 495 q 1154 431 1189 450 l 1150 425 l 1159 395 l 1159 392 q 1144 414 1152 392 l 1139 414 q 1061 302 1126 391 q 1000 244 1032 268 q 970 222 991 244 q 946 213 954 213 l 944 213 q 904 245 926 213 l 902 245 q 859 181 884 245 q 802 115 831 136 q 681 74 738 74 l 681 72 q 919 19 781 19 q 1126 43 1013 19 l 1128 43 l 1128 41 q 922 2 1016 2 l 889 2 q 670 56 767 2 l 654 71 q 589 67 623 67 l 513 72 l 513 71 l 507 63 l 435 83 l 456 125 l 526 106 l 517 81 l 517 77 l 531 77 q 643 87 583 77 q 609 172 609 125 q 663 265 609 228 q 778 355 778 346 l 770 387 l 770 425 q 702 499 770 445 q 696 504 699 504 l 693 504 l 693 503 q 713 454 713 461 q 676 514 699 460 l 659 567 l 665 568 m 483 535 q 513 492 500 535 q 528 486 525 492 l 526 473 l 509 476 q 406 386 478 420 l 404 386 l 404 387 q 494 470 494 459 l 496 479 q 454 508 454 485 q 483 535 458 535 m 904 519 q 933 510 917 510 l 933 511 q 913 529 927 529 q 904 519 906 529 m 474 517 q 469 507 469 512 q 496 498 469 502 q 474 517 490 517 m 237 487 q 294 342 237 467 q 317 317 311 318 l 319 317 q 341 399 341 368 q 289 504 341 444 l 289 506 q 237 487 283 506 m 78 338 q 165 264 78 279 l 187 263 l 193 263 q 296 296 254 263 q 243 431 256 388 l 226 481 q 78 338 78 434 m 1015 414 q 1120 444 1086 414 q 1094 456 1113 456 l 1085 456 q 1015 420 1053 456 l 1013 414 l 1015 414 m 185 431 l 189 431 l 193 419 q 174 394 193 414 l 172 389 q 176 386 176 389 l 196 386 q 222 377 218 386 l 222 368 q 154 307 222 328 l 154 308 q 194 345 154 317 q 206 360 206 356 l 204 360 q 159 375 159 363 l 159 377 q 185 431 159 418 m 541 407 l 544 407 l 544 406 l 543 380 q 552 365 545 365 l 561 365 q 576 371 570 371 l 576 369 q 552 341 576 348 q 528 358 528 346 q 541 407 528 370 m 933 386 q 944 371 943 386 l 943 371 l 928 373 l 924 371 l 924 369 l 941 336 l 941 323 l 913 339 l 893 339 l 887 344 l 887 353 q 893 356 887 356 q 931 341 911 355 q 917 372 917 363 l 917 373 q 933 384 917 384 l 933 386 m 759 253 l 759 246 l 750 206 q 757 196 752 199 q 774 207 762 196 l 780 202 q 756 176 776 176 l 748 176 q 728 192 733 176 l 728 194 q 757 253 728 213 l 759 253 m 1026 196 l 1030 196 l 1031 180 l 1031 167 q 1019 145 1031 145 l 939 102 l 933 102 q 930 106 930 102 l 928 137 q 1007 186 930 145 l 1026 196 z "},"E":{"ha":1250,"x_min":0,"x_max":1203,"o":"m 324 923 l 326 923 q 397 756 366 880 l 438 525 q 483 493 456 493 q 603 576 550 493 l 611 580 l 611 574 l 613 574 q 608 542 608 563 l 608 539 q 652 504 608 504 l 655 504 q 736 525 681 504 q 647 683 647 590 q 733 799 647 763 l 770 805 q 903 747 848 805 l 898 747 q 819 758 855 758 q 674 718 732 758 l 674 713 l 671 713 q 752 591 691 634 q 817 568 788 568 q 1000 649 855 578 l 1000 646 q 953 576 983 576 q 658 441 695 441 l 652 441 q 593 478 612 441 q 582 504 586 504 q 512 438 562 461 l 488 432 l 472 432 q 402 556 413 432 l 397 588 l 394 588 q 313 458 394 536 q 360 207 348 244 q 392 187 379 187 l 407 187 q 517 262 466 187 l 527 270 l 530 270 l 530 268 l 525 236 q 566 195 525 200 q 681 227 607 195 l 681 230 q 616 273 645 273 l 606 273 l 577 265 l 574 268 q 608 331 594 331 q 728 354 665 354 l 731 354 q 861 305 813 354 q 830 253 842 253 q 767 221 769 229 q 832 195 804 195 q 966 285 892 195 l 974 285 l 974 282 q 969 256 972 256 q 1026 207 969 207 q 1114 294 1076 207 l 1120 294 l 1122 296 l 1125 294 l 1120 253 q 1164 224 1131 224 q 1182 236 1182 228 l 1182 239 l 1172 250 l 1188 305 q 1203 268 1198 305 l 1203 250 q 1141 163 1195 163 l 1138 163 q 1096 204 1116 163 q 1013 144 1063 144 q 953 219 953 144 l 950 219 q 843 135 883 135 l 827 132 q 715 195 782 132 l 713 195 q 572 132 630 132 q 504 198 504 142 l 501 198 q 397 123 457 123 q 334 175 350 123 q 316 282 316 242 l 313 282 q 183 112 313 212 q 65 65 115 65 l 55 65 q 0 149 0 75 q 31 296 0 212 l 37 296 q 16 175 16 216 l 16 172 q 57 126 16 126 q 290 276 173 126 q 300 300 300 288 l 300 311 q 279 429 300 351 q 151 375 201 375 l 136 375 q 83 452 91 375 l 83 461 q 115 606 83 531 l 118 606 l 118 603 q 97 484 99 520 q 133 435 97 442 l 151 435 q 261 478 202 435 l 261 481 l 232 556 q 245 617 238 617 q 298 504 298 531 q 384 617 384 578 q 313 863 384 701 l 324 923 m 1133 923 l 1138 923 q 1203 764 1203 858 l 1203 730 q 1188 672 1198 672 l 1185 672 l 1188 706 l 1188 741 q 1120 886 1188 801 l 1133 923 m 548 909 l 564 845 q 545 805 564 821 l 543 805 q 519 828 519 809 l 517 828 q 499 799 510 799 l 486 799 q 470 839 470 806 l 470 863 q 462 868 462 863 q 478 894 462 884 l 480 894 l 483 880 l 480 839 q 491 825 485 826 l 499 825 q 514 848 514 835 l 509 894 q 517 906 513 906 l 532 834 l 545 831 l 553 834 l 553 842 q 538 888 538 871 q 548 909 541 909 m 115 894 l 115 891 q 78 721 78 775 q 107 672 78 672 q 146 721 123 681 l 146 715 q 97 617 130 617 l 86 617 q 55 675 55 623 l 55 692 q 112 894 55 787 l 115 894 m 1065 860 q 1081 842 1074 857 l 1081 834 q 1073 816 1081 819 q 1055 831 1065 831 q 1026 730 1043 805 l 1023 727 l 1018 727 q 992 805 1018 765 l 984 799 l 981 799 q 963 822 963 809 q 979 845 973 844 l 981 845 q 1023 767 1012 845 l 1026 767 q 1065 860 1038 860 m 540 741 l 540 738 q 522 663 527 700 q 532 637 525 637 l 538 637 q 553 660 553 650 l 556 660 l 556 657 q 530 608 546 608 q 512 640 512 612 l 512 643 q 540 741 512 695 m 1101 634 l 1101 631 q 1086 556 1086 575 q 1096 536 1089 536 l 1101 536 q 1114 554 1114 544 l 1117 554 l 1117 545 q 1091 507 1111 507 q 1075 533 1075 514 l 1075 542 q 1101 634 1075 592 m 42 510 l 44 510 l 44 504 q 18 383 18 414 q 42 345 18 345 q 65 380 65 367 l 70 380 q 29 302 56 302 q 0 354 0 310 q 42 510 0 419 m 1203 496 q 1175 461 1203 472 q 929 357 1138 450 l 929 360 q 987 406 929 394 q 1203 496 1033 429 m 459 394 q 509 360 473 394 l 491 314 q 441 345 483 314 l 425 308 q 378 349 378 340 l 397 392 l 402 392 l 444 360 l 446 360 l 459 394 m 692 294 l 692 291 q 731 259 698 291 q 778 282 770 282 q 723 296 778 294 l 705 296 l 692 294 m 543 86 l 551 86 q 593 51 579 67 l 574 5 l 569 5 l 527 37 l 525 37 l 512 2 q 462 37 500 2 l 462 39 l 480 83 q 530 51 489 83 l 543 86 z "},"F":{"ha":1110,"x_min":0,"x_max":1063,"o":"m 336 923 q 352 896 352 923 q 318 787 352 867 l 312 769 l 310 769 l 310 775 q 341 881 310 788 l 338 885 l 333 885 q 111 691 279 874 l 95 665 q 148 647 148 657 l 132 644 l 132 641 q 264 588 132 631 q 310 534 310 561 l 310 504 q 251 430 310 482 q 296 403 288 413 l 294 400 l 294 364 l 267 370 q 164 293 215 370 l 164 287 q 212 237 164 253 l 251 237 q 341 284 281 237 l 344 293 l 312 379 l 310 400 l 315 424 q 365 308 336 411 l 368 308 q 418 385 418 364 q 336 668 418 406 l 336 682 l 338 697 q 389 617 389 631 l 384 617 l 373 626 l 370 626 l 370 623 q 429 421 421 465 l 429 368 l 415 320 l 410 255 q 439 192 410 202 l 442 192 q 529 323 481 192 q 452 555 482 508 l 450 573 l 452 588 l 455 588 q 519 427 481 566 l 540 344 q 630 421 595 421 l 638 421 q 667 388 667 416 l 667 364 q 640 379 650 379 l 627 379 q 553 305 597 379 q 590 213 571 213 l 595 207 l 614 207 q 696 293 645 207 q 719 251 696 263 q 786 323 786 269 q 812 397 794 374 l 825 406 l 836 406 q 875 344 864 406 l 875 320 q 857 296 875 296 l 841 296 l 794 305 l 794 302 q 735 213 772 213 l 725 213 q 696 245 705 213 l 693 245 q 675 210 683 245 l 675 174 l 682 150 l 688 150 q 696 163 696 150 l 698 163 l 698 153 l 693 132 l 685 132 q 669 180 669 143 l 669 189 l 672 204 q 614 165 639 165 l 606 165 q 542 275 568 165 q 505 201 534 275 q 460 165 479 165 l 452 165 q 405 240 405 179 l 405 257 l 407 308 q 370 266 398 308 l 370 260 q 455 94 392 94 q 524 85 475 85 l 548 85 q 796 153 656 85 l 796 130 q 831 97 796 97 q 889 115 889 104 q 831 219 831 159 q 915 302 845 302 q 997 266 958 302 l 994 266 l 944 272 q 846 240 846 259 l 846 237 q 918 144 859 181 l 934 142 l 939 142 q 1058 192 964 142 l 1063 192 l 1063 189 q 1005 132 1063 150 q 833 58 869 58 l 818 58 q 781 112 787 58 q 516 44 633 44 q 375 127 407 44 l 365 195 l 363 195 q 273 82 350 136 q 199 52 230 52 l 190 52 q 153 109 160 52 q 177 201 159 160 l 180 201 l 180 198 q 162 136 162 150 l 162 130 q 196 91 162 91 q 355 201 269 91 l 357 219 l 352 245 l 347 245 q 244 195 285 195 l 227 195 q 159 275 177 195 l 159 281 l 156 281 q 71 163 83 169 l 56 156 q 3 245 3 167 l 3 257 l 11 314 q 0 344 0 333 q 24 448 0 390 l 26 448 l 26 444 l 11 373 q 26 341 14 341 l 45 358 l 45 356 q 19 314 40 314 q 8 245 13 314 q 32 186 8 206 l 45 186 q 145 323 73 186 q 209 394 173 361 l 196 397 q 214 448 196 436 q 301 525 234 451 l 301 528 q 177 584 301 545 q 90 650 90 625 l 88 685 l 88 691 q 212 834 88 720 q 336 923 319 923 m 405 864 q 421 855 421 862 l 421 843 l 418 843 l 405 846 l 402 843 l 402 775 q 434 757 422 775 q 402 724 434 738 l 402 721 l 431 638 l 434 623 l 434 620 l 431 620 l 397 718 l 397 727 q 410 751 397 738 l 410 754 l 400 754 q 394 745 400 745 l 394 751 l 397 777 q 370 813 389 796 l 365 813 l 363 810 l 349 816 l 349 819 l 352 840 l 355 840 q 397 801 372 840 l 397 840 q 405 864 397 862 m 244 781 l 249 781 l 249 763 l 236 763 q 206 718 206 737 l 217 715 l 264 736 l 273 736 q 288 727 288 734 l 288 703 q 214 662 288 689 l 206 662 q 193 674 194 668 l 193 676 l 199 676 q 286 718 236 676 l 283 721 l 273 721 l 217 700 l 201 700 l 201 709 q 244 781 211 781 m 463 682 q 519 620 487 682 l 521 596 l 521 575 l 519 575 q 460 662 519 625 l 458 670 l 463 682 m 312 665 l 328 653 l 325 644 l 312 647 l 307 626 l 310 588 l 307 588 l 283 620 l 281 617 l 275 617 l 262 620 l 262 626 l 264 641 l 270 641 q 304 608 282 641 l 304 644 q 312 665 304 654 m 566 659 l 569 659 q 579 599 569 599 l 582 599 q 587 608 587 599 l 590 608 l 590 590 l 582 581 l 579 581 q 563 614 571 581 l 563 623 l 566 659 m 693 629 l 693 620 l 521 477 l 521 495 l 693 629 m 783 614 l 786 614 l 786 605 l 688 522 l 661 495 q 677 486 664 486 l 685 486 l 685 471 l 675 471 q 659 481 661 471 l 659 489 q 698 546 659 523 l 783 614 m 119 581 l 132 567 l 132 555 l 127 549 l 119 557 l 116 557 q 93 483 106 557 q 122 450 122 469 q 77 421 122 437 l 74 418 q 88 338 88 382 l 88 287 l 85 287 q 71 412 85 321 l 71 424 q 98 450 71 445 q 85 460 98 457 l 77 450 l 77 454 q 88 481 77 481 q 69 537 88 496 l 63 537 l 61 534 q 45 546 45 541 q 56 569 48 568 l 61 569 q 90 510 75 569 l 93 510 q 119 581 93 553 m 328 567 l 331 567 l 331 557 l 328 522 q 344 483 335 483 l 349 483 q 357 501 357 486 l 360 501 l 360 489 q 349 460 358 460 l 344 460 q 323 519 329 460 l 328 567 m 413 567 l 415 567 q 426 540 417 542 q 434 552 434 540 l 437 552 l 437 549 l 431 525 l 423 525 q 413 546 413 530 l 413 567 m 182 555 l 190 555 q 196 531 196 555 l 201 513 l 212 510 l 209 495 l 196 498 q 125 412 196 476 l 122 412 q 188 498 188 493 l 188 501 q 164 522 173 501 q 182 555 175 555 m 177 537 l 177 525 l 190 522 l 190 528 l 182 537 l 177 537 m 809 537 l 812 537 q 823 477 812 477 l 831 477 l 833 489 l 836 489 l 836 481 q 825 460 832 460 l 823 460 q 807 504 812 460 l 809 537 m 585 519 l 587 519 l 587 504 l 585 504 l 585 519 m 582 504 l 585 504 q 598 454 585 459 l 608 463 l 608 460 q 595 436 608 436 q 582 469 582 455 l 582 504 m 770 481 l 775 481 q 783 442 783 481 l 796 436 l 796 421 l 783 421 q 712 338 758 373 l 709 338 l 772 421 l 772 424 q 751 448 751 433 q 770 481 751 466 m 704 477 l 706 477 l 706 439 q 714 421 708 421 l 719 421 l 722 424 l 725 424 l 725 412 l 717 403 q 701 444 703 403 l 704 477 m 762 460 l 762 454 l 767 448 l 775 448 l 775 454 l 770 460 l 762 460 m 452 439 l 455 439 q 468 406 455 412 q 476 418 469 418 l 476 415 q 466 391 473 391 q 450 430 456 391 l 452 439 m 360 427 l 363 427 q 373 376 363 376 l 378 376 l 381 388 l 384 388 l 384 379 q 375 362 381 362 l 370 362 q 357 412 359 362 l 360 427 m 809 356 l 809 350 q 852 338 809 340 l 852 344 q 825 364 838 364 l 809 356 m 262 352 l 262 347 l 236 320 l 236 323 q 262 352 236 340 m 481 352 q 492 335 492 350 l 492 332 l 489 335 l 481 335 q 474 317 474 332 l 474 302 l 476 272 l 447 308 l 439 305 q 429 314 429 309 l 431 329 l 437 329 q 468 293 455 329 l 471 293 l 471 332 q 481 352 471 348 m 648 335 l 656 335 l 656 326 q 603 255 656 289 l 600 255 l 638 302 l 635 305 l 587 293 l 587 296 q 648 335 587 335 m 283 323 l 288 314 l 288 302 q 238 272 267 279 q 225 281 225 276 q 283 305 245 281 l 286 305 l 281 311 l 273 311 l 236 299 l 233 299 l 233 311 l 241 311 l 283 323 m 801 255 l 809 255 q 818 237 818 251 l 818 225 l 809 225 l 801 231 l 775 183 l 738 156 l 735 156 q 796 237 796 215 l 801 255 m 804 243 l 804 240 l 812 237 l 812 243 l 804 243 m 926 243 l 929 243 q 939 186 929 186 l 942 186 l 952 195 q 944 168 950 168 l 939 168 q 923 216 929 168 l 926 243 m 116 207 l 119 207 l 119 204 l 116 177 l 116 168 l 127 159 l 135 168 l 135 165 q 125 144 135 150 l 119 144 l 111 153 l 111 168 l 116 207 m 214 171 l 217 171 l 217 159 l 214 159 l 214 171 m 524 171 l 526 171 q 550 144 550 168 l 550 136 q 529 112 550 112 l 521 112 q 497 142 500 112 q 524 171 501 171 m 212 159 l 214 159 q 222 136 214 138 l 230 142 l 230 138 l 225 124 l 217 124 l 212 130 l 212 159 m 347 112 l 349 112 q 360 97 349 97 l 357 88 l 352 88 l 347 94 l 347 112 m 1048 103 l 1048 97 q 944 50 1048 89 q 931 44 944 44 l 931 46 q 1005 85 931 62 q 1048 103 1005 90 m 712 56 l 735 35 q 749 56 742 35 l 754 56 q 781 29 781 38 l 770 5 l 735 23 l 735 20 q 725 2 729 2 q 696 29 696 16 q 712 56 703 49 z "},"G":{"ha":1101,"x_min":0,"x_max":1055,"o":"m 222 925 l 242 925 q 256 904 256 925 q 250 886 253 886 l 228 886 q 220 900 220 889 l 220 916 l 222 925 m 354 892 l 357 892 l 362 857 q 350 831 350 838 l 375 823 q 425 870 396 823 l 432 872 q 446 853 446 872 l 446 845 l 444 845 q 438 857 444 857 q 419 815 432 852 q 387 798 402 798 l 377 798 q 344 821 359 800 q 316 686 336 795 q 332 660 332 667 l 332 658 l 330 658 q 313 680 330 663 q 250 578 289 602 q 202 558 224 560 l 200 558 q 134 609 160 558 l 131 609 q 118 592 118 604 l 118 584 q 165 481 118 552 l 169 466 q 136 444 169 444 q 27 519 63 444 l 24 543 l 41 623 l 43 649 l 43 652 l 41 672 l 30 668 q 0 721 11 668 l 0 729 l 2 729 q 22 690 2 707 l 30 690 q 38 709 35 690 l 39 709 q 49 643 49 667 l 49 633 l 31 538 l 31 533 q 100 464 31 494 l 118 464 q 134 497 131 484 q 94 592 94 579 q 90 619 90 602 q 136 650 90 636 q 142 670 142 661 l 126 707 l 126 709 l 130 709 q 165 643 165 668 l 165 639 q 151 617 165 623 l 150 617 q 185 598 163 598 q 297 709 258 598 q 267 800 267 759 q 303 851 267 843 q 354 892 352 876 m 472 888 l 474 888 l 475 864 l 487 869 l 491 869 q 507 831 507 859 l 507 792 l 505 784 q 517 756 509 756 l 526 758 q 515 753 526 753 q 548 609 548 693 l 548 607 q 442 385 548 430 l 432 385 l 403 383 q 438 287 403 331 q 507 263 466 263 q 662 317 559 263 l 674 320 l 674 323 q 643 362 643 354 q 680 419 650 419 l 694 421 q 733 385 733 421 l 731 358 q 794 395 779 382 q 782 491 784 437 q 774 537 779 491 l 782 574 q 812 383 791 574 l 812 375 l 819 383 l 819 413 q 851 431 820 418 q 967 548 931 479 q 982 598 982 584 l 986 598 l 986 595 l 957 395 l 953 395 l 951 470 l 955 486 q 869 417 898 426 l 869 415 q 892 380 881 408 q 951 391 913 388 q 1051 317 1028 391 l 1055 293 l 1055 291 l 1053 291 q 984 360 1053 322 q 931 369 957 369 l 929 369 q 892 362 906 369 q 847 254 884 254 q 829 263 840 254 l 829 254 q 774 113 829 158 q 743 105 758 105 l 733 105 q 662 191 685 105 l 660 201 q 523 165 586 165 q 338 297 405 165 q 328 352 328 328 l 328 375 l 313 374 l 311 374 l 311 375 q 330 389 330 375 q 379 491 342 445 l 381 494 l 381 511 l 383 513 l 383 515 l 381 515 q 360 505 375 505 l 350 505 q 326 543 326 505 q 234 438 237 466 q 224 388 224 416 q 446 136 224 264 q 542 28 528 76 l 542 26 l 540 26 q 460 102 527 58 q 295 222 383 148 q 193 383 193 305 q 253 525 193 453 q 295 568 295 552 l 295 574 l 293 586 q 338 611 293 606 q 368 650 367 643 l 369 650 l 369 639 q 342 560 369 595 l 348 554 l 354 554 q 397 582 377 554 l 389 655 l 401 692 l 403 692 q 432 650 403 650 l 434 650 q 469 682 460 650 l 472 682 q 454 611 472 644 q 425 600 438 600 l 414 601 q 391 529 398 535 l 395 507 l 397 507 q 428 543 428 528 l 428 552 l 426 560 q 466 584 426 584 q 503 625 483 594 l 503 613 q 409 472 503 541 l 399 462 l 403 407 l 405 407 q 469 450 428 416 q 534 578 534 513 l 534 605 q 475 761 534 665 q 456 831 462 792 l 468 884 l 469 882 l 472 882 l 472 888 m 475 855 l 477 839 l 481 839 l 485 843 l 485 845 l 481 845 l 481 847 l 485 851 l 491 851 l 493 843 q 481 831 490 831 l 480 831 l 491 796 l 493 796 l 497 851 q 483 857 497 856 l 475 855 m 200 849 l 200 845 q 159 763 193 825 l 159 761 l 157 761 l 157 769 q 200 849 165 803 m 279 776 l 279 774 q 299 723 279 764 l 303 723 l 322 818 l 320 818 q 279 776 279 802 m 434 812 q 452 788 446 812 q 438 764 452 774 l 428 764 q 414 790 414 770 q 434 812 419 812 m 365 788 q 383 769 383 782 l 383 758 q 371 741 383 748 l 365 741 q 348 766 348 741 q 365 788 353 788 m 94 761 q 104 729 102 758 q 75 682 104 704 l 73 682 q 96 727 96 711 l 79 713 l 75 713 l 69 729 q 94 761 94 744 m 454 747 q 483 729 479 738 q 462 686 483 716 l 428 706 q 454 747 428 716 m 220 743 l 220 741 l 216 717 l 216 707 q 224 694 216 697 q 240 706 240 696 l 242 706 l 242 700 q 222 672 237 672 l 220 672 q 208 694 208 678 l 208 698 q 220 743 213 743 m 377 737 q 395 717 395 731 l 395 707 q 383 690 395 697 l 377 690 q 360 715 360 690 q 377 737 360 730 m 656 709 q 731 649 701 709 q 739 595 739 622 l 739 584 q 698 525 733 525 l 692 525 q 664 550 675 525 q 692 537 679 537 l 695 537 q 733 592 725 537 l 733 601 q 682 690 733 655 l 660 696 l 646 696 q 589 619 600 696 l 595 586 l 595 584 l 594 584 q 581 629 581 611 q 637 707 581 686 l 656 709 m 656 639 q 672 617 672 631 l 672 609 q 658 595 672 595 q 644 611 646 595 l 641 611 q 619 572 619 600 l 623 527 q 581 472 623 486 l 554 468 l 550 468 l 550 470 q 603 509 570 470 l 607 535 l 607 548 q 594 570 605 570 q 578 560 583 570 q 597 543 597 559 l 597 538 l 588 529 q 566 552 569 529 q 588 576 566 569 q 609 566 598 574 l 607 568 l 607 580 q 650 637 607 613 l 656 639 m 916 566 l 925 552 l 924 550 l 924 544 l 927 517 q 924 511 924 517 l 921 509 l 919 509 l 912 515 q 849 458 895 486 l 829 446 l 827 446 q 906 517 887 491 q 884 533 895 519 l 884 535 q 916 566 884 554 m 157 564 q 177 540 177 556 l 177 535 q 159 517 174 517 q 139 544 139 524 q 157 564 142 564 m 900 544 l 912 537 q 904 548 907 548 l 900 544 m 749 535 l 755 523 l 752 517 l 756 495 q 752 489 752 495 l 750 488 l 749 488 l 747 494 l 743 494 q 684 440 731 469 l 682 440 q 739 495 738 488 q 721 511 729 495 q 749 535 733 535 m 187 529 l 191 529 q 206 507 206 520 l 206 499 q 191 483 206 483 q 169 511 172 483 q 187 529 171 529 m 737 521 l 735 519 l 735 515 l 743 511 l 743 513 q 737 521 740 521 m 475 497 l 475 494 q 450 462 475 483 q 440 444 444 444 l 436 444 q 428 454 428 448 l 428 458 l 430 458 q 436 448 431 448 l 442 448 q 464 481 453 481 l 462 483 l 462 486 l 475 497 m 336 480 l 340 480 q 287 444 340 467 l 287 448 q 336 480 296 460 m 428 472 l 430 472 l 430 462 l 428 462 l 428 472 m 605 470 l 607 470 q 637 423 637 464 q 613 342 624 358 q 521 289 578 289 l 469 287 l 466 287 l 466 289 q 574 332 530 305 q 625 399 625 376 l 625 401 l 623 411 q 601 399 612 399 q 581 413 591 399 l 581 417 q 605 470 581 457 m 340 462 l 342 460 q 291 426 342 450 l 289 429 l 289 431 q 340 462 301 443 m 360 389 l 363 389 l 391 399 l 387 446 q 360 389 373 436 m 179 442 l 181 440 l 181 438 q 130 407 174 427 l 128 409 q 179 442 131 421 m 680 440 l 682 440 l 678 437 l 676 437 l 680 440 m 265 438 l 267 438 l 267 437 l 263 409 l 263 403 q 271 389 263 393 l 277 389 l 289 399 l 289 397 q 269 368 289 372 l 267 368 q 256 389 256 374 l 256 391 q 265 438 256 412 m 181 425 l 185 425 q 131 389 185 412 l 130 391 l 130 393 q 181 425 142 405 m 493 395 l 495 395 l 495 393 l 489 360 q 499 344 489 350 q 517 356 508 344 l 517 352 q 501 323 508 323 l 499 323 q 481 346 481 323 q 493 395 483 369 m 723 307 q 800 340 787 327 l 796 389 q 780 354 793 389 q 725 315 726 320 l 723 307 m 357 375 l 357 362 q 434 224 357 281 q 526 199 474 199 q 658 230 583 199 q 709 301 658 274 q 715 305 715 301 l 715 313 q 521 226 576 231 l 493 224 q 422 250 438 224 q 391 381 391 290 q 357 375 357 381 m 670 380 q 717 352 692 352 l 719 352 l 719 354 q 686 381 719 376 l 684 381 l 670 380 m 817 340 l 863 366 q 845 375 863 371 q 817 340 817 366 m 825 320 q 843 301 831 308 l 853 301 q 878 332 878 319 q 870 354 876 354 q 825 320 856 349 m 794 326 l 790 320 l 792 320 l 796 326 l 794 326 m 786 320 q 721 289 774 309 l 721 279 l 719 266 l 721 266 l 788 320 l 786 320 m 674 209 q 706 157 682 176 q 739 146 721 146 q 813 258 813 162 l 810 303 l 807 303 q 674 209 716 224 m 670 234 q 715 263 706 252 l 715 285 l 713 285 q 670 238 684 271 l 670 234 m 744 244 l 747 242 l 747 240 q 741 228 747 230 l 739 228 l 739 232 l 733 230 l 733 224 l 743 222 l 744 222 l 756 228 q 729 199 756 224 l 729 197 l 731 189 l 747 189 l 786 197 q 739 177 768 177 q 719 185 719 179 q 729 209 719 198 l 725 214 l 725 219 q 744 244 725 241 z "},"H":{"ha":1378,"x_min":0,"x_max":1331,"o":"m 127 923 l 130 923 q 220 613 130 739 l 223 613 q 325 722 283 722 q 434 554 325 698 q 457 479 457 504 l 457 453 q 406 278 457 370 l 403 278 q 496 181 435 181 q 562 218 533 181 q 502 483 502 321 l 502 506 q 570 696 502 661 l 604 718 q 640 502 640 617 q 609 248 640 392 q 669 181 626 204 l 674 181 l 674 185 q 717 863 702 740 q 787 923 780 923 l 787 919 q 849 450 818 807 l 849 423 l 813 386 l 759 815 l 756 815 q 722 211 722 489 q 669 144 711 168 l 638 132 q 575 188 600 132 q 491 155 532 155 q 398 252 425 155 q 392 263 398 263 q 248 203 326 203 l 237 203 l 234 207 l 231 207 l 231 203 l 237 129 q 200 88 227 110 l 183 225 q 132 274 160 231 q 144 151 141 223 q 56 2 144 2 l 42 2 l 0 6 l 0 9 q 76 58 65 9 q 93 166 93 96 q 73 368 93 220 l 107 408 l 110 408 q 189 308 150 331 l 203 524 q 96 863 96 689 l 127 923 m 1202 878 l 1227 878 q 1275 860 1275 878 q 1252 737 1275 737 q 1100 629 1212 672 l 1086 629 l 1069 681 q 1255 811 1255 738 q 1207 822 1233 822 l 1190 822 q 934 621 1069 822 l 911 562 l 914 562 q 988 535 943 535 q 1331 684 1106 535 l 1331 677 l 1329 613 q 1176 502 1245 581 q 1117 334 1152 467 q 1024 229 1063 229 l 1007 229 q 976 252 994 229 q 908 155 962 155 q 846 237 872 155 l 844 237 l 824 31 l 779 6 l 779 9 l 824 363 l 857 397 l 860 397 l 860 394 q 906 222 867 301 l 919 214 q 945 300 939 214 l 945 338 l 981 382 l 985 382 q 1032 304 1002 304 l 1035 304 q 1131 487 1073 304 l 1145 509 l 1143 509 q 981 472 1038 472 q 897 535 897 481 l 894 550 q 1021 793 894 669 q 1202 878 1120 878 m 553 867 l 573 815 q 533 755 573 771 l 531 755 l 513 822 l 513 826 q 553 867 513 854 m 254 588 q 296 401 296 477 q 282 326 294 360 l 279 326 q 240 479 279 448 q 229 330 229 385 l 229 312 q 263 274 229 274 l 274 274 q 412 382 390 274 l 418 427 q 288 669 418 480 q 254 588 254 645 m 547 524 q 584 312 554 335 l 587 312 l 589 423 l 589 427 q 573 655 589 499 l 570 655 q 547 524 547 655 m 1089 192 l 1089 188 q 1044 118 1075 118 q 948 54 999 80 l 948 58 q 1047 177 976 140 q 1089 192 1068 192 z "},"I":{"ha":1528,"x_min":0,"x_max":1482,"o":"m 1482 919 l 1482 908 q 1444 781 1464 781 q 1225 666 1351 666 l 1203 666 q 952 755 1123 666 l 984 808 q 1209 734 1094 734 q 1482 919 1366 734 m 812 903 l 812 897 q 780 776 796 776 q 555 650 689 650 l 532 650 q 282 739 451 650 l 313 792 q 539 719 429 719 q 812 903 694 719 m 1379 629 q 1469 465 1443 629 l 1438 465 l 1407 550 l 1385 560 q 1354 465 1354 543 q 1397 329 1354 379 l 1416 323 l 1435 323 q 1469 350 1447 323 l 1473 350 l 1473 297 q 1381 255 1473 272 q 1294 286 1313 265 q 1272 239 1283 239 l 1253 239 q 1231 281 1231 263 q 1209 228 1226 281 l 1206 228 q 1175 265 1183 265 l 1175 270 q 1197 350 1197 306 l 1197 381 l 1194 418 l 1216 423 l 1225 423 l 1225 413 q 1247 323 1225 344 l 1253 323 q 1263 365 1263 326 l 1263 371 l 1256 423 l 1288 423 q 1344 323 1299 323 l 1347 329 l 1347 334 q 1316 471 1316 394 l 1316 497 q 1379 629 1316 613 m 448 597 l 501 597 l 507 465 q 407 228 507 284 q 263 186 347 186 q 25 318 124 186 q 3 413 3 366 l 0 413 q 63 544 0 487 q 175 581 115 581 q 367 529 250 581 q 342 444 353 464 q 144 513 233 513 q 38 444 38 503 l 34 439 q 213 270 34 346 l 273 265 q 457 365 431 283 q 470 439 466 365 l 470 460 q 448 597 470 507 m 558 587 l 605 587 l 605 581 l 601 539 q 655 276 615 276 q 670 313 670 283 l 670 329 l 658 397 l 699 397 q 727 281 699 320 l 733 281 q 768 434 749 281 q 793 476 785 474 q 856 339 842 476 l 856 307 q 821 218 856 218 q 777 281 794 218 l 774 281 q 730 207 756 207 l 724 207 q 689 244 708 207 q 645 202 689 222 q 570 387 604 202 q 558 566 558 486 l 558 587 m 1109 581 q 1150 307 1150 388 l 1150 297 q 1128 239 1150 265 l 1119 239 q 1075 281 1098 239 q 1037 239 1061 239 q 990 286 1014 239 l 990 281 q 1053 7 1015 194 l 1006 2 l 1000 2 q 921 444 1000 109 q 931 476 923 476 q 987 455 968 455 l 1015 455 q 1071 476 1039 455 l 1071 397 q 1062 387 1071 387 q 1109 318 1090 318 l 1112 334 q 1069 571 1112 447 l 1109 581 m 260 450 l 282 450 l 282 407 l 250 402 l 250 397 q 273 381 250 385 l 288 360 l 288 350 q 232 307 273 307 l 219 313 l 219 360 l 244 350 l 250 360 q 213 407 213 387 q 260 450 213 435 m 802 434 q 789 381 789 412 l 789 376 l 793 376 l 802 381 l 802 376 q 818 270 802 315 l 827 270 l 830 297 q 802 434 819 434 m 968 387 l 968 381 l 981 318 l 984 318 q 993 381 984 365 l 968 387 m 558 381 q 567 286 567 325 l 567 250 q 530 165 567 175 l 526 165 q 476 218 504 165 l 476 223 l 501 213 q 532 281 522 213 q 514 376 526 343 l 558 381 m 1021 339 l 1037 339 q 1056 297 1056 318 l 1059 297 l 1059 329 q 1034 376 1059 376 l 1031 376 q 1021 339 1024 376 m 1285 228 q 1306 186 1303 228 l 1306 165 l 1291 139 l 1272 150 l 1275 155 l 1275 181 l 1269 213 l 1285 228 m 1244 218 l 1247 218 q 1272 170 1272 218 q 1247 133 1272 139 l 1244 133 q 1228 176 1228 147 q 1244 218 1228 204 m 680 186 q 699 160 693 179 l 699 139 q 686 102 699 111 l 670 102 q 658 139 658 111 l 658 150 q 680 186 658 186 z "},"J":{"ha":1337,"x_min":0,"x_max":1291,"o":"m 316 919 q 515 752 450 919 l 525 695 l 525 637 q 429 478 525 529 l 362 464 q 240 608 240 480 l 240 659 l 245 659 q 331 536 245 536 l 362 536 q 454 651 454 553 l 454 666 q 337 818 454 787 l 306 818 q 174 709 211 818 l 169 666 l 169 637 q 321 413 169 497 q 419 392 340 399 q 566 450 489 392 q 587 377 587 422 l 592 377 l 587 348 l 541 363 l 525 363 q 377 240 479 363 q 434 110 394 110 q 485 233 463 110 l 490 233 q 551 139 507 139 l 556 146 l 556 182 q 500 291 556 214 l 510 291 l 576 283 l 607 291 q 653 153 622 161 l 663 153 q 689 211 689 174 q 617 478 689 313 l 694 478 l 699 486 l 704 486 q 735 334 735 410 l 735 283 q 663 60 728 60 l 653 60 l 602 132 q 576 52 594 52 l 566 52 q 510 117 510 72 l 505 117 q 449 31 502 31 l 429 31 q 342 240 358 31 l 321 240 q 255 291 301 240 l 250 291 l 245 240 l 245 161 l 153 262 l 133 103 l 122 103 q 20 67 63 103 l 20 74 q 81 319 81 188 l 81 327 q 0 565 81 495 q 112 608 0 575 l 112 550 q 179 305 112 411 l 189 356 l 184 413 l 189 413 q 331 305 299 305 q 388 348 388 327 q 133 615 205 348 l 127 688 q 260 904 127 839 l 316 919 m 1015 882 l 1025 882 q 1225 709 1164 882 l 1230 644 l 1230 623 q 1132 442 1230 494 l 1081 435 l 1061 435 q 944 557 960 435 l 939 579 l 944 630 l 949 630 q 1051 500 949 500 q 1158 637 1158 500 q 1025 788 1158 764 l 1005 788 q 872 644 872 750 l 872 601 q 1036 377 872 458 q 1102 363 1059 363 l 1117 363 q 1275 413 1194 363 l 1291 356 l 1291 312 l 1240 334 q 1081 211 1186 334 l 1076 211 q 954 262 1028 211 l 949 211 l 949 132 l 944 132 l 857 233 q 831 74 841 74 q 725 38 791 74 q 786 283 786 157 l 786 298 q 699 536 786 463 l 699 543 l 816 572 l 816 514 q 882 276 816 370 l 888 276 l 888 377 q 1000 283 902 377 l 1031 276 l 1046 276 q 1092 319 1074 276 q 831 615 891 319 l 831 659 q 959 868 831 802 q 1015 882 979 882 m 184 146 l 199 146 l 230 110 l 250 117 q 311 52 303 117 l 311 45 q 275 16 311 33 l 230 31 q 214 2 230 2 l 194 2 q 163 74 163 31 l 163 96 q 184 146 163 134 m 919 117 q 949 96 949 110 l 1000 103 l 1005 103 q 1036 74 1031 103 q 934 16 1036 25 q 908 2 934 2 l 893 2 q 852 45 865 2 q 919 117 852 98 z "},"K":{"ha":1533,"x_min":0,"x_max":1487,"o":"m 948 1030 q 976 1009 966 1030 q 983 1006 983 1009 q 969 996 983 1003 l 967 998 l 963 993 l 965 993 l 967 994 l 967 993 l 963 987 l 965 970 l 963 970 l 959 967 l 967 972 l 965 989 l 970 993 l 972 985 l 969 974 q 972 983 972 974 l 976 983 l 978 974 q 956 956 978 956 l 937 948 l 933 948 l 930 952 l 933 952 l 928 959 l 933 959 l 933 961 l 920 961 l 917 969 q 944 985 937 972 l 952 993 l 943 1007 l 944 1009 l 937 1011 l 937 1009 q 948 994 948 1002 l 946 996 l 944 996 l 944 994 l 948 991 q 926 974 935 974 l 915 970 l 913 972 l 915 974 l 915 980 l 913 991 l 928 1011 l 943 996 l 943 998 q 917 1019 932 1010 l 917 1020 q 928 1026 919 1026 q 933 1015 931 1026 l 935 1015 q 946 1020 941 1020 l 946 1022 l 941 1022 l 935 1017 l 933 1019 l 933 1022 l 946 1030 l 948 1030 m 954 1020 q 965 1011 954 1017 l 965 1013 l 954 1020 m 902 1020 l 904 1020 q 924 1011 915 1020 l 911 993 l 911 989 l 913 978 l 913 976 l 911 976 q 906 1000 906 989 l 904 1000 l 904 991 q 930 952 904 977 l 913 948 l 904 956 l 902 948 l 900 948 l 900 952 l 898 952 q 904 957 898 957 q 878 978 904 970 l 878 980 l 880 981 l 880 983 l 876 991 q 896 1007 876 1000 l 902 1007 l 902 1002 l 904 1002 l 904 1009 l 900 1015 l 902 1020 m 950 1013 l 950 1011 l 952 1009 l 950 1007 l 952 1006 l 954 1006 l 954 1007 l 952 1009 l 956 1009 l 961 1004 l 957 994 l 959 994 l 967 1009 l 965 1009 l 963 1004 l 961 1004 q 950 1013 961 1011 m 956 987 l 952 978 l 954 978 l 957 985 l 957 987 l 956 987 m 822 985 l 828 972 q 817 950 817 956 l 817 944 l 819 946 l 841 946 q 846 930 845 946 q 817 878 844 909 l 815 878 l 806 883 l 824 917 l 822 919 l 796 919 l 793 926 l 793 931 q 820 985 794 956 l 822 985 m 687 983 q 700 974 700 977 l 702 976 l 706 976 q 717 954 712 976 l 719 954 l 719 959 l 715 967 l 719 967 q 726 952 724 967 q 719 941 726 943 l 717 950 l 715 950 q 696 931 715 942 l 685 931 l 685 935 q 707 963 699 935 q 702 972 705 972 l 704 963 l 704 961 l 700 957 q 683 974 698 974 l 672 974 l 667 969 l 669 969 l 680 972 l 681 970 l 681 969 q 669 956 673 969 l 670 950 l 669 948 l 680 943 l 681 943 l 681 944 l 674 946 l 674 950 q 689 963 689 950 l 689 965 q 683 969 689 969 l 681 970 l 681 972 l 687 972 l 698 961 l 689 946 q 694 952 694 946 l 696 954 l 698 954 l 700 952 q 680 935 694 935 q 657 952 665 935 l 656 952 l 656 950 q 681 933 664 933 l 681 931 l 669 928 l 661 928 q 646 952 646 937 q 656 970 646 966 l 661 970 l 661 967 q 654 957 654 967 l 654 954 l 656 954 q 661 965 657 965 l 663 965 l 661 959 l 661 956 l 663 956 l 667 967 q 663 972 663 967 q 687 983 667 983 m 946 970 l 939 961 q 952 967 952 963 l 950 965 l 946 965 l 946 967 l 948 969 l 948 970 l 946 970 m 678 967 l 680 965 l 680 963 l 676 959 l 672 959 q 678 967 675 967 m 685 967 l 687 965 l 687 963 q 681 952 687 953 l 674 952 l 670 956 l 670 957 q 683 967 683 957 l 685 967 m 896 967 l 898 967 l 898 965 l 891 961 l 891 963 q 896 967 891 967 m 907 950 l 915 946 l 915 944 q 904 930 906 944 l 902 930 l 902 935 l 907 950 m 715 943 l 717 941 l 717 939 q 685 919 717 924 l 683 919 q 672 926 672 922 l 687 930 l 687 928 q 715 943 700 929 m 948 937 l 965 935 l 965 933 l 957 930 l 956 930 l 957 931 l 957 933 l 954 933 l 952 926 l 950 926 l 950 931 l 948 931 q 941 920 948 924 l 941 922 l 944 930 l 944 931 l 943 931 l 939 917 l 937 917 l 937 922 l 939 930 l 939 931 l 937 931 l 933 913 l 931 913 l 931 924 l 930 924 q 924 904 930 904 l 924 906 l 926 922 l 926 924 l 924 924 l 920 902 l 926 900 l 941 900 l 941 902 l 926 902 l 926 904 l 952 906 l 952 907 l 931 907 l 931 909 l 937 911 l 943 909 l 943 911 l 944 909 l 946 909 l 948 911 l 946 911 l 944 913 l 943 911 l 939 911 l 939 913 q 952 922 940 918 l 954 920 l 954 922 l 952 924 l 963 931 l 965 931 q 944 898 958 898 l 944 896 q 976 874 963 896 l 974 872 l 974 870 l 978 867 l 978 865 l 946 861 q 928 876 932 865 q 922 883 928 883 l 911 880 l 911 881 l 913 889 l 915 889 l 915 885 l 926 885 q 935 893 926 893 l 935 894 l 919 896 l 919 917 q 946 937 919 931 l 948 937 m 900 928 l 902 928 l 904 917 q 909 907 908 917 l 907 909 l 906 909 l 911 893 l 906 893 l 906 898 l 900 919 l 900 928 m 650 926 l 650 924 l 652 926 l 657 926 l 674 917 q 683 896 683 910 l 681 891 l 680 891 l 680 906 l 678 906 l 678 894 l 676 894 q 670 913 672 894 l 669 913 l 669 909 l 670 900 l 669 900 q 657 919 663 902 l 656 919 l 657 917 l 657 909 l 656 909 q 646 920 646 913 l 643 920 l 644 919 l 644 915 l 643 917 l 639 917 l 639 913 l 650 911 q 643 907 650 907 l 641 906 l 641 904 l 652 907 l 661 904 l 661 900 l 650 898 l 650 896 l 657 896 l 665 900 l 665 896 l 667 898 l 669 898 l 670 896 l 670 893 l 661 891 l 661 889 l 665 889 l 674 891 l 676 889 l 676 887 l 672 883 l 667 883 q 648 889 662 887 l 644 893 q 633 907 633 903 l 628 911 l 630 913 l 630 917 l 626 917 l 626 920 l 650 926 m 863 926 l 880 926 l 898 922 l 896 913 l 893 913 q 889 922 893 922 l 889 920 l 891 915 l 887 915 l 887 922 l 885 922 l 885 919 l 883 919 l 874 922 l 872 920 q 863 924 872 924 l 863 926 m 474 924 q 481 900 480 924 l 481 880 q 394 785 461 828 l 393 787 l 391 787 l 391 785 l 393 783 q 294 717 310 735 q 274 654 274 695 l 274 646 q 317 530 274 594 l 320 530 q 381 613 334 577 l 367 731 l 389 770 l 391 770 l 411 626 l 444 630 l 457 630 q 502 624 478 630 l 494 611 l 481 613 l 478 613 q 415 600 444 613 q 446 461 428 481 l 448 461 q 559 576 539 526 l 557 576 l 506 565 l 500 578 q 550 707 500 652 q 609 757 580 757 q 630 744 619 757 l 630 743 q 619 691 630 725 q 594 707 602 707 l 591 707 q 543 648 570 694 l 528 617 l 530 617 q 626 652 562 620 l 633 654 l 635 654 q 641 628 641 654 q 617 596 641 607 q 509 467 582 545 l 461 428 l 461 422 l 489 381 l 491 381 q 613 461 497 412 q 644 478 644 474 q 700 630 644 604 q 717 639 700 635 l 719 639 q 754 598 737 639 l 756 598 q 787 676 787 598 q 800 650 793 675 l 800 619 q 767 546 800 567 l 761 546 q 715 585 745 546 q 680 544 680 565 l 685 539 l 687 539 q 707 559 687 544 q 719 544 719 559 l 719 533 q 630 413 719 446 q 556 380 614 401 q 520 356 528 365 l 520 354 q 693 309 598 309 q 1098 528 905 309 q 1146 594 1134 570 l 1144 594 q 1107 587 1126 587 l 1089 587 q 1052 619 1052 594 l 1052 624 q 1148 724 1052 696 l 1157 724 q 1181 669 1181 701 l 1180 648 q 1256 720 1194 653 l 1259 676 q 1207 619 1246 668 q 1181 587 1186 587 l 1183 546 l 1183 520 q 1172 515 1181 515 l 1170 515 l 1163 546 l 1161 546 l 1054 424 q 911 317 967 345 q 743 256 852 276 l 689 252 q 494 313 578 252 l 491 313 l 489 285 l 489 270 q 500 215 489 215 q 681 174 585 174 q 993 263 852 174 q 1002 270 1001 267 l 1000 269 l 993 269 q 969 304 969 277 q 1007 374 969 325 l 1009 359 q 991 315 1000 348 q 1002 302 991 307 q 1028 330 1006 302 l 1031 326 l 1031 324 q 1009 276 1031 303 l 1004 270 q 1204 474 1127 349 q 1267 617 1243 533 l 1289 704 l 1304 717 l 1306 717 l 1335 598 l 1337 598 q 1378 630 1365 630 q 1426 581 1426 619 l 1428 543 q 1380 469 1420 469 l 1372 467 l 1372 469 l 1370 467 l 1369 467 q 1306 578 1317 467 l 1296 624 l 1294 624 q 1096 269 1234 387 q 707 111 925 111 l 687 111 q 515 144 608 111 q 583 0 535 95 q 552 30 567 4 q 489 159 511 101 q 326 339 370 219 l 317 365 q 230 407 269 365 q 217 439 217 427 l 217 469 l 215 469 l 180 444 l 180 415 q 89 206 180 254 q 44 198 66 198 q 6 204 22 198 l 43 220 q 135 322 113 262 q 157 476 157 376 q 217 522 166 492 l 233 528 l 235 528 q 243 494 243 528 l 243 480 l 241 459 q 309 419 260 431 l 309 420 l 307 437 q 315 513 309 485 q 248 657 248 581 q 346 800 248 746 q 406 841 351 807 l 406 843 l 404 865 q 415 893 404 893 q 474 924 439 893 m 720 922 l 722 920 l 728 920 l 737 922 q 750 917 737 917 l 750 906 q 717 880 737 880 l 706 880 l 700 885 l 700 889 l 704 889 l 704 891 l 724 885 l 728 885 l 730 893 l 728 893 l 724 889 l 726 887 l 722 887 l 709 891 l 709 894 l 715 896 l 731 894 l 739 894 l 739 896 l 722 898 l 722 900 l 735 904 l 739 904 l 741 902 l 743 902 l 744 904 l 744 906 l 739 906 l 739 909 q 744 913 744 909 l 743 911 l 739 911 l 741 913 l 741 915 l 739 917 l 737 917 q 731 907 737 907 l 730 907 l 730 913 l 728 913 q 715 900 728 900 l 715 904 l 719 909 l 719 913 q 709 896 715 913 l 704 894 l 704 896 l 706 902 l 706 904 l 704 904 q 698 893 702 893 l 698 896 q 720 920 698 912 l 720 922 m 946 917 l 946 915 l 956 915 l 956 917 l 946 917 m 696 917 l 698 917 l 698 909 l 696 909 l 696 917 m 878 917 l 880 917 l 881 915 l 883 915 l 885 917 q 898 907 885 912 l 902 896 l 902 894 l 898 891 q 878 917 878 899 m 585 915 l 585 894 l 587 887 q 474 793 583 878 l 469 791 l 469 793 l 465 815 l 585 915 m 898 915 l 900 915 l 900 907 l 898 907 l 898 915 m 265 907 q 281 885 279 907 l 278 881 q 261 900 278 895 q 243 893 248 898 l 241 894 l 241 898 q 265 907 241 905 m 696 907 l 696 904 l 689 887 l 691 885 q 678 872 678 881 l 672 872 q 635 865 647 865 l 631 872 q 643 869 643 871 q 691 896 672 869 q 696 907 691 907 m 280 902 q 294 876 294 896 l 296 876 l 296 885 l 294 891 l 296 891 q 304 878 304 888 q 298 867 304 868 l 294 867 l 294 874 l 293 874 q 276 856 293 869 l 278 856 l 293 867 l 294 867 l 294 863 q 263 843 294 849 q 250 850 250 847 q 274 854 255 854 l 274 856 l 261 857 l 261 859 q 283 887 277 859 l 283 889 l 280 902 m 233 896 l 239 894 l 231 883 l 231 881 l 233 881 q 241 891 233 887 l 239 883 l 239 880 l 241 880 q 256 896 241 896 l 259 893 q 248 885 250 893 l 248 883 l 254 881 l 254 883 l 250 887 l 256 891 l 257 889 l 259 889 l 265 891 l 265 881 l 267 881 l 267 891 l 261 893 l 261 896 q 276 885 272 896 l 267 870 l 269 870 l 276 878 l 278 876 q 259 861 273 861 l 254 861 q 231 880 243 861 q 257 857 239 857 q 246 852 256 852 l 244 852 q 224 876 227 852 q 233 896 224 888 m 928 883 l 928 881 q 937 869 932 881 l 939 869 l 939 870 l 933 881 l 935 881 q 946 867 946 872 l 948 867 l 948 870 q 943 880 944 870 l 948 880 l 954 867 l 957 867 l 952 878 l 954 878 q 963 867 959 878 l 965 867 l 965 872 l 969 872 l 970 870 l 972 870 l 972 872 l 967 874 l 969 876 l 969 878 l 956 878 l 957 880 l 957 881 l 952 881 l 952 883 l 961 885 l 961 887 l 959 887 l 943 881 l 941 881 l 941 885 l 954 889 l 954 891 l 952 891 l 931 883 l 933 885 q 943 889 933 888 l 944 891 l 944 893 q 928 883 928 888 m 256 883 l 256 881 l 259 885 l 259 887 l 256 883 m 246 881 l 246 878 l 248 876 l 244 876 l 243 878 l 241 878 l 241 876 l 248 872 q 265 880 265 875 l 263 880 l 259 876 l 257 876 q 248 881 248 876 l 246 881 m 1343 883 l 1346 883 q 1357 843 1356 883 q 1322 789 1352 789 q 1309 785 1322 785 q 1285 809 1285 788 l 1289 844 l 1287 854 l 1296 861 l 1300 861 l 1304 854 l 1304 850 l 1300 830 l 1300 826 l 1304 822 l 1309 822 q 1315 837 1313 822 l 1313 861 q 1326 876 1313 870 l 1326 854 q 1333 826 1326 826 q 1341 837 1341 826 l 1343 837 l 1339 874 l 1343 883 m 876 881 q 909 850 909 868 l 907 831 l 906 831 l 904 859 l 902 859 l 902 844 l 900 844 l 898 850 l 900 852 q 893 867 893 852 l 891 867 l 891 857 l 881 861 l 881 863 l 887 863 l 889 861 l 887 872 l 885 870 l 883 870 q 880 876 883 876 l 880 872 l 883 867 l 881 867 l 880 869 l 878 869 l 878 865 l 881 865 l 881 863 l 878 863 l 878 861 q 896 848 894 854 l 883 852 l 881 852 l 881 850 l 898 846 l 898 843 l 885 846 l 883 846 l 883 844 q 904 837 904 842 l 904 835 q 872 874 872 835 q 876 881 876 874 m 907 880 l 911 880 l 911 865 l 909 865 l 907 880 m 252 870 l 252 869 l 263 869 l 263 870 l 252 870 m 911 865 l 913 865 l 913 857 l 911 857 l 911 865 m 1161 861 l 1163 861 l 1163 859 l 1165 831 q 1050 741 1161 831 l 1048 741 l 1044 765 l 1161 861 m 219 852 q 257 835 242 852 q 261 826 261 835 l 259 815 l 257 815 l 257 830 l 256 830 l 256 819 l 254 819 q 248 837 250 819 l 246 837 l 246 833 l 248 828 l 246 826 l 244 826 q 235 844 235 836 l 233 844 l 233 843 l 235 835 l 235 833 l 233 833 l 222 844 l 220 844 l 222 843 l 222 839 l 220 841 l 217 841 l 217 837 l 228 835 q 219 831 228 831 l 219 830 l 222 830 l 231 831 l 239 826 l 228 822 l 228 820 l 231 820 l 244 824 l 244 822 l 246 820 l 248 820 l 248 817 l 241 817 l 241 815 q 254 811 254 815 l 252 809 l 252 807 q 219 824 219 813 q 206 841 213 824 l 204 841 l 204 844 q 219 852 219 848 m 915 852 l 917 852 l 917 844 l 915 844 l 915 852 m 872 850 l 876 850 l 876 844 l 874 846 l 872 846 l 872 844 q 878 841 872 841 l 880 839 l 880 835 l 872 839 l 870 837 l 869 839 l 869 841 l 870 843 l 869 844 l 867 844 l 867 843 l 869 841 l 865 841 l 865 844 l 861 844 l 863 843 l 863 841 l 861 841 l 859 843 l 852 841 l 852 839 l 856 839 l 854 837 l 854 835 l 859 833 l 869 837 l 870 837 l 870 835 l 857 830 l 857 828 l 867 826 q 881 833 867 831 l 883 833 l 883 831 q 869 822 869 825 l 870 822 l 885 831 l 889 831 q 872 820 879 820 l 872 819 l 876 819 l 894 831 l 896 830 l 896 831 l 894 833 l 898 833 q 904 830 898 830 l 904 828 q 887 819 893 828 q 880 813 887 814 q 848 837 861 813 l 846 839 l 844 839 q 872 850 856 849 m 1219 850 q 1235 828 1233 850 l 1231 824 q 1215 843 1231 838 q 1196 835 1201 840 l 1194 835 l 1196 837 l 1194 839 l 1194 841 q 1219 850 1194 848 m 698 848 l 735 826 q 713 783 735 820 l 711 783 l 674 804 q 698 848 677 815 m 787 848 q 824 822 822 827 l 800 780 q 763 804 786 792 q 787 848 766 815 m 300 846 l 306 844 l 315 846 l 315 843 l 317 844 l 328 841 l 328 830 q 313 811 322 818 l 302 807 l 302 804 l 293 804 l 291 806 l 289 804 l 283 804 l 278 809 l 278 811 q 283 815 278 815 l 304 809 l 306 809 l 306 811 l 287 815 l 287 817 q 293 820 287 820 l 311 819 l 317 819 l 317 820 l 300 822 l 300 824 l 311 830 l 317 828 l 322 828 l 322 830 l 315 830 q 320 833 315 833 l 322 835 l 322 837 l 320 835 l 317 835 l 317 839 q 313 833 313 839 l 311 831 l 307 831 l 307 839 l 306 839 q 293 824 306 824 l 293 826 l 296 837 l 287 822 l 281 820 l 281 822 l 283 828 q 278 817 278 826 l 276 817 l 276 822 q 291 843 276 832 l 293 841 q 300 846 293 844 m 1487 846 l 1485 844 l 1485 843 l 1487 843 l 1485 841 l 1483 763 l 1483 748 l 1481 746 l 1483 744 l 1483 709 l 1487 641 q 1461 719 1461 662 l 1459 719 q 1393 641 1435 658 l 1363 633 l 1354 635 q 1450 756 1434 708 q 1474 841 1463 785 l 1487 846 m 917 844 l 919 844 l 920 817 l 920 809 l 919 809 l 919 813 l 913 813 l 911 811 l 909 813 l 900 813 l 900 811 l 909 811 l 909 806 q 881 785 907 798 l 881 791 l 883 793 l 883 794 l 881 794 q 893 817 881 810 l 894 817 l 917 815 l 919 820 l 917 837 l 917 844 m 1233 844 l 1235 844 q 1248 820 1243 844 l 1250 820 l 1250 828 l 1248 833 l 1250 833 q 1257 820 1257 831 q 1252 809 1257 811 l 1248 809 l 1248 817 l 1246 817 q 1222 798 1246 806 l 1220 798 l 1217 802 q 1237 830 1232 802 l 1237 831 l 1233 844 m 274 841 l 276 841 l 276 833 l 274 833 l 274 841 m 1189 839 l 1193 835 q 1185 824 1189 835 q 1211 800 1185 807 q 1200 794 1209 794 l 1198 794 q 1178 817 1183 794 l 1178 819 q 1189 839 1178 833 m 1204 839 l 1219 839 l 1230 830 l 1220 813 l 1222 813 l 1230 820 l 1231 819 l 1231 817 q 1213 804 1225 804 l 1207 804 q 1187 826 1192 804 l 1194 833 l 1193 826 l 1193 822 l 1194 822 q 1204 839 1194 833 m 1200 820 l 1202 819 l 1198 819 l 1196 820 l 1194 820 l 1194 819 l 1207 811 l 1219 811 l 1219 813 q 1204 817 1204 813 q 1220 830 1220 817 l 1220 831 l 1215 837 q 1200 820 1203 837 m 272 833 l 274 833 l 274 828 l 270 819 l 269 819 l 269 830 l 272 833 m 1033 833 l 1035 833 l 1035 802 l 944 726 l 943 724 l 939 724 l 937 752 l 1033 833 m 1209 833 l 1211 831 l 1213 831 l 1219 833 l 1219 830 q 1213 819 1219 820 l 1211 819 q 1202 822 1202 819 q 1209 833 1206 833 m 1209 826 l 1209 824 l 1213 828 l 1213 830 l 1209 826 m 904 828 l 909 828 l 915 822 l 915 820 l 904 826 l 904 828 m 269 819 l 269 817 l 267 815 l 267 813 l 272 813 l 272 811 q 252 796 265 811 l 213 789 l 209 796 l 222 794 l 224 794 q 233 798 233 794 l 239 796 q 269 819 249 799 m 302 813 l 307 813 l 307 817 l 306 817 l 302 813 m 893 809 l 893 807 l 898 807 l 898 806 q 887 802 887 806 l 893 804 l 894 804 l 894 802 q 885 791 889 802 l 887 791 l 894 800 l 894 796 l 896 796 l 896 804 l 898 804 l 898 798 l 900 798 l 900 807 l 902 807 l 902 804 l 904 804 l 904 809 l 893 809 m 1246 809 l 1248 809 l 1248 806 q 1219 785 1248 793 l 1206 789 l 1206 794 q 1246 809 1231 794 m 1178 793 l 1185 793 q 1198 785 1195 793 l 1200 787 l 1202 787 q 1215 765 1215 778 l 1213 759 l 1211 759 l 1211 772 l 1209 772 l 1209 761 l 1207 761 q 1202 780 1204 761 l 1200 780 l 1200 776 l 1202 767 q 1191 781 1193 771 l 1193 783 l 1189 787 l 1187 787 l 1187 785 l 1189 778 l 1189 776 l 1187 776 l 1176 787 l 1176 781 l 1174 783 l 1170 783 l 1170 780 l 1178 778 l 1180 780 l 1181 778 l 1181 776 l 1172 774 l 1172 772 l 1176 772 l 1187 774 q 1193 770 1187 770 l 1193 767 l 1181 765 l 1181 763 l 1189 763 l 1194 767 q 1202 761 1202 764 l 1202 759 l 1193 759 l 1193 757 l 1207 757 l 1207 752 l 1202 750 q 1170 767 1177 755 q 1157 787 1163 772 l 1178 793 m 1252 789 l 1261 787 l 1263 789 l 1265 789 l 1281 783 l 1281 772 q 1263 752 1276 758 l 1261 754 l 1256 754 l 1256 752 l 1261 752 l 1261 750 l 1252 746 l 1237 746 l 1231 752 l 1231 756 l 1237 757 l 1254 752 l 1254 756 l 1241 757 l 1241 759 l 1248 765 l 1265 761 l 1270 761 l 1270 763 l 1256 765 l 1256 769 l 1276 770 l 1276 772 l 1269 772 q 1274 776 1269 776 l 1276 778 l 1276 780 l 1274 778 l 1270 778 l 1270 781 l 1269 781 q 1263 774 1269 774 l 1261 774 l 1261 781 l 1259 781 q 1246 767 1258 767 l 1246 769 l 1250 780 l 1241 765 l 1235 761 l 1235 763 l 1237 769 l 1237 770 l 1235 770 q 1230 759 1233 759 l 1230 761 q 1241 785 1230 770 l 1243 783 l 1244 783 l 1252 789 m 1228 785 l 1230 785 l 1230 778 l 1228 778 l 1228 785 m 491 781 q 528 754 528 760 l 506 713 l 504 713 l 467 735 l 467 739 l 491 781 m 698 781 l 735 759 l 715 715 l 715 713 l 713 713 q 674 741 674 736 l 698 781 m 161 778 q 193 737 193 754 q 181 711 186 711 l 161 731 l 157 731 q 139 644 148 711 l 131 641 l 130 641 q 85 698 113 698 q 69 728 71 698 q 80 756 72 756 l 87 756 q 124 700 97 754 l 126 698 l 128 698 q 154 778 138 778 l 161 778 m 826 776 l 830 776 l 891 700 q 922 580 922 643 l 922 572 q 859 406 922 479 q 741 346 797 353 l 696 339 q 759 376 707 351 q 898 578 898 465 q 854 685 898 634 l 852 685 l 859 522 l 854 509 q 844 583 849 509 q 822 722 833 704 l 826 776 m 1226 776 l 1228 776 l 1228 770 l 1224 761 l 1222 761 l 1222 767 l 1224 767 l 1222 769 l 1222 772 l 1226 776 m 1222 761 l 1222 759 l 1220 757 l 1220 756 l 1224 756 l 1206 739 l 1204 741 q 1167 731 1197 735 l 1163 739 l 1178 737 q 1213 754 1200 737 q 1219 759 1219 754 l 1220 761 l 1222 761 m 1096 644 l 1122 637 l 1156 643 l 1156 646 q 1139 674 1151 674 q 1098 648 1123 670 l 1096 646 l 1096 644 m 980 650 q 1019 567 1019 632 q 930 413 1019 480 q 857 385 886 385 q 993 563 993 504 q 987 576 991 576 q 965 567 979 567 l 946 570 l 946 581 l 944 589 l 946 596 l 944 596 l 946 598 l 946 607 q 980 650 946 650 m 148 639 q 169 611 169 631 q 104 519 169 576 l 81 519 l 81 522 q 139 578 86 522 l 144 594 q 130 604 143 604 q 98 594 120 604 l 98 619 q 148 639 122 639 m 339 504 l 354 483 l 354 481 l 337 489 l 335 487 l 335 476 l 333 454 q 339 417 335 417 q 413 439 364 417 l 413 441 q 385 580 385 550 l 383 580 q 339 504 354 562 m 1344 550 q 1367 526 1344 526 q 1398 544 1396 526 l 1398 546 q 1374 569 1395 569 l 1363 569 q 1344 550 1344 566 m 591 535 q 626 511 625 514 l 604 469 l 563 493 q 591 535 585 535 m 765 513 l 767 500 q 746 450 746 460 l 746 439 l 767 439 q 787 463 781 439 l 789 463 l 793 459 q 750 396 776 396 q 722 433 731 396 q 765 513 723 461 m 106 500 l 128 487 l 130 480 q 139 474 139 479 l 139 472 q 126 467 133 472 l 124 467 l 124 469 l 128 474 l 126 474 l 117 461 l 119 461 l 122 465 l 122 463 l 117 456 l 120 441 l 119 439 l 120 439 q 128 454 128 446 l 131 454 l 133 439 q 102 422 133 429 q 91 417 101 419 l 85 419 l 87 420 l 87 426 l 83 426 q 91 430 83 430 l 91 431 q 72 439 72 431 l 89 443 l 89 444 l 83 444 l 69 441 l 69 443 l 70 448 l 69 461 l 83 481 q 102 463 93 468 l 91 446 l 93 446 l 106 463 l 106 467 l 98 474 l 98 472 l 104 467 l 104 465 l 102 465 l 72 491 q 83 496 74 496 l 89 485 l 94 485 q 104 491 94 491 l 104 493 l 96 493 l 91 487 l 89 489 l 89 493 l 100 498 l 106 500 m 109 491 l 109 489 l 111 487 l 100 487 l 100 485 l 117 485 l 119 476 l 120 476 l 120 480 q 109 491 120 485 m 56 489 l 69 489 l 80 481 l 65 461 l 67 452 l 67 448 l 65 448 l 61 467 l 59 467 l 59 459 q 85 424 59 442 l 85 422 l 69 417 l 59 424 l 56 420 l 54 420 l 54 422 l 56 428 l 57 426 l 59 426 q 31 448 59 441 l 33 450 l 33 452 l 31 463 q 46 472 31 472 l 52 478 l 57 478 l 57 469 l 59 469 l 59 476 l 56 489 m 91 481 l 91 480 l 98 476 l 98 480 l 91 481 m 104 478 l 106 476 l 107 476 l 107 478 l 106 480 l 109 480 l 115 476 l 115 478 l 109 481 l 107 481 l 104 478 m 115 474 l 113 465 l 113 463 l 115 463 l 119 474 l 115 474 m 124 465 l 126 465 l 126 454 l 124 444 l 122 444 l 120 454 l 120 457 l 124 465 m 113 461 l 107 448 l 109 448 l 115 461 l 113 461 m 1333 461 l 1335 461 l 1339 424 l 1259 361 l 1257 361 l 1256 393 l 1333 461 m 102 441 l 94 431 q 109 437 109 433 l 107 435 l 100 435 l 104 441 l 102 441 m 50 437 l 52 437 l 48 433 l 46 433 l 50 437 m 61 420 q 69 415 69 418 q 59 402 59 409 l 57 402 l 57 406 q 61 420 61 411 m 104 407 l 115 406 l 119 406 l 119 402 l 115 402 l 113 404 l 111 404 l 107 396 l 104 396 l 106 398 l 106 402 l 104 402 q 96 389 100 389 l 96 393 l 100 400 l 98 400 l 94 391 l 93 391 l 93 396 l 94 398 l 94 402 l 93 402 l 89 383 l 87 383 l 87 396 l 85 396 q 76 372 85 378 l 76 370 l 96 370 l 96 372 l 81 372 l 81 374 l 107 376 l 107 378 l 87 378 l 87 380 l 91 380 l 91 381 l 98 380 l 107 380 l 107 381 l 94 381 l 94 385 l 107 391 l 106 393 l 106 394 l 117 400 l 119 400 q 100 369 112 369 l 100 367 l 107 365 l 109 367 l 131 344 l 130 343 l 130 339 l 133 339 l 133 335 l 106 331 q 81 350 86 331 l 78 354 l 67 350 l 67 352 l 69 359 l 70 359 l 70 356 l 80 356 q 93 339 85 353 l 94 339 l 89 352 l 91 352 q 102 337 94 352 l 104 337 l 104 339 l 96 350 l 100 350 l 113 335 l 113 337 l 107 348 l 120 337 l 120 339 l 119 341 l 119 343 l 120 343 l 126 341 l 122 346 l 124 348 l 122 348 l 120 346 l 119 346 q 109 354 110 349 l 117 356 l 117 357 l 115 357 q 96 352 106 352 q 109 359 96 356 l 109 361 l 107 361 l 89 354 l 87 354 l 87 356 l 98 359 l 98 361 l 94 361 l 83 356 l 81 356 l 81 357 q 91 363 81 363 l 91 365 l 76 367 l 74 365 l 72 376 l 74 376 l 72 378 l 72 380 l 74 381 l 74 383 l 72 389 q 78 398 75 389 l 104 407 m 350 369 l 350 367 q 469 231 383 282 l 470 231 q 465 287 465 263 l 465 302 q 470 333 465 319 q 428 400 438 376 l 426 400 q 350 369 373 369 m 56 400 l 57 400 l 57 391 l 56 391 l 56 400 m 20 396 l 28 396 l 46 394 l 44 393 l 44 391 l 46 389 l 46 393 l 56 391 l 52 381 l 48 385 l 41 383 l 41 381 q 57 361 57 381 l 56 361 q 33 387 33 361 l 31 389 l 35 389 l 35 385 l 43 385 l 43 393 l 41 393 l 41 387 l 20 394 l 20 396 m 80 394 l 78 385 l 78 378 l 80 378 l 81 393 l 81 394 l 80 394 m 56 389 l 63 381 l 61 380 l 61 378 l 67 363 l 61 363 l 59 370 l 61 370 l 56 389 m 100 387 l 100 385 l 111 385 l 111 387 l 100 387 m 61 354 l 63 354 l 67 350 l 67 348 l 65 346 l 69 328 l 69 326 l 67 326 l 61 352 l 61 354 m 33 350 q 65 322 65 336 l 63 302 l 61 304 l 59 304 l 61 306 l 59 315 l 59 326 l 56 326 l 57 324 l 57 315 l 56 315 l 54 331 l 52 331 l 52 322 l 50 322 l 48 337 l 46 337 l 44 328 l 39 330 l 39 331 l 44 331 l 43 343 l 41 343 l 41 339 l 39 339 l 37 346 l 33 346 l 35 344 l 35 343 l 33 341 l 37 341 l 37 337 l 35 339 l 31 339 l 35 333 l 33 331 l 52 319 l 50 319 l 43 320 l 41 320 l 41 319 l 44 319 l 44 317 l 37 317 l 37 315 q 57 307 57 311 l 57 306 l 54 306 l 52 307 l 50 307 l 50 306 q 28 335 34 306 l 30 337 l 30 339 l 28 344 l 33 350 m 235 339 q 270 313 268 321 l 248 269 l 272 254 q 248 207 254 207 l 209 231 l 209 233 l 235 278 l 209 294 q 235 339 209 303 m 1333 333 l 1343 333 q 1356 317 1356 326 l 1356 311 l 1352 307 q 1335 326 1350 326 l 1326 326 q 1319 319 1319 323 l 1317 319 l 1315 326 q 1333 333 1323 333 m 1354 328 l 1357 328 q 1369 306 1364 328 l 1370 306 l 1370 313 l 1369 319 q 1378 306 1378 316 l 1378 298 l 1372 293 q 1369 300 1369 293 l 1367 300 q 1352 283 1367 295 l 1354 283 l 1367 294 l 1370 289 q 1337 270 1370 276 q 1326 276 1327 270 l 1326 278 l 1335 281 l 1343 280 l 1344 280 l 1344 281 l 1337 283 l 1337 287 q 1357 313 1353 287 l 1359 315 l 1354 328 m 1331 324 l 1333 322 l 1333 320 q 1320 307 1326 320 l 1322 306 l 1322 302 l 1320 302 l 1315 306 l 1315 302 q 1330 294 1321 302 l 1337 294 l 1337 296 q 1326 300 1326 296 l 1326 302 l 1335 302 q 1341 313 1341 304 l 1341 317 q 1335 320 1341 320 l 1335 324 l 1339 324 q 1350 311 1350 318 l 1343 298 l 1344 298 l 1352 306 l 1352 300 q 1331 287 1352 292 q 1309 306 1315 287 l 1307 306 l 1307 302 q 1333 285 1316 285 l 1328 280 l 1313 280 q 1298 300 1303 284 l 1300 302 l 1300 304 l 1298 306 l 1298 307 q 1307 322 1303 322 l 1311 322 l 1315 319 q 1307 313 1307 318 l 1307 309 l 1309 309 q 1313 317 1309 317 l 1315 317 l 1313 307 l 1317 307 l 1315 309 q 1331 324 1319 324 m 28 320 l 31 317 l 31 315 l 28 315 l 33 307 l 31 307 l 30 309 l 28 309 l 28 307 l 20 313 l 22 313 l 24 311 l 26 311 l 26 313 l 24 315 l 22 315 l 15 311 l 15 313 q 7 306 9 311 l 13 304 l 13 307 l 17 307 l 15 306 l 15 304 l 24 307 l 24 304 q 15 298 15 302 l 20 296 q 37 304 31 304 l 37 300 q 22 291 31 300 l 41 302 l 44 302 q 30 291 35 291 l 30 289 l 31 289 l 54 302 l 56 300 l 56 298 q 41 285 49 298 l 33 283 l 31 283 l 30 285 l 28 285 l 28 283 q 0 311 18 283 q 28 320 20 320 m 70 320 l 72 320 l 72 311 l 70 311 l 70 320 m 1339 319 l 1339 309 l 1333 304 l 1324 304 l 1324 309 q 1333 313 1333 309 l 1331 311 l 1326 311 l 1326 313 l 1330 317 l 1331 317 l 1333 315 l 1335 315 l 1339 319 m 72 311 l 74 311 l 76 281 l 76 274 l 74 274 q 70 283 74 283 l 69 283 l 67 281 l 65 283 l 57 283 l 57 281 l 65 281 q 39 256 65 269 l 35 256 l 39 270 l 37 270 q 50 287 43 287 l 72 285 l 72 287 l 70 289 l 70 291 l 74 291 l 72 300 l 72 311 m 65 300 l 67 298 l 67 294 l 57 296 l 57 298 l 65 300 m 1211 300 q 1237 281 1225 300 l 1239 280 q 1244 276 1244 280 l 1244 274 q 1226 261 1236 274 l 1228 261 l 1231 265 l 1231 254 l 1230 244 l 1228 244 l 1228 248 l 1226 248 l 1222 239 q 1233 256 1233 242 q 1239 243 1238 256 q 1207 224 1239 228 q 1196 219 1206 219 l 1194 219 l 1193 220 l 1191 220 l 1193 222 l 1193 224 l 1189 230 l 1193 230 l 1193 231 q 1178 241 1178 231 l 1180 241 q 1204 256 1197 241 l 1202 256 q 1176 241 1202 248 l 1174 243 l 1176 250 l 1174 265 q 1187 281 1179 267 l 1189 281 l 1207 263 l 1204 257 l 1206 257 q 1211 261 1206 261 l 1211 263 q 1204 278 1211 269 l 1206 280 l 1198 281 l 1198 280 q 1209 265 1209 272 l 1189 283 q 1178 291 1181 283 l 1178 294 l 1187 296 l 1191 296 l 1191 293 l 1196 293 q 1211 300 1204 300 m 1198 289 l 1196 289 l 1194 291 l 1193 291 l 1194 285 q 1207 294 1207 292 l 1198 289 m 1211 289 l 1211 287 q 1224 276 1224 287 l 1224 274 l 1226 274 l 1226 283 l 1219 291 l 1211 289 m 1169 291 q 1183 280 1183 288 l 1170 261 l 1172 250 l 1172 248 l 1170 248 q 1163 269 1167 269 q 1189 224 1163 249 l 1189 222 q 1167 207 1176 222 l 1165 207 l 1165 209 q 1170 220 1167 220 l 1172 219 l 1172 220 l 1165 226 l 1163 220 l 1159 220 l 1159 224 l 1163 231 q 1137 248 1155 248 l 1139 256 l 1137 265 q 1154 276 1137 271 q 1161 280 1154 280 l 1163 270 l 1165 270 l 1165 276 l 1161 289 l 1163 291 l 1169 291 m 1204 287 l 1204 285 l 1209 285 l 1209 289 l 1204 287 m 50 280 l 50 278 l 54 278 l 54 276 l 50 272 l 48 272 l 46 274 l 43 274 l 43 272 l 46 272 l 46 270 l 43 265 l 43 263 q 46 269 46 263 l 48 270 l 50 270 l 52 269 l 54 269 l 59 280 l 50 280 m 1220 276 l 1219 267 l 1219 265 l 1220 265 l 1222 272 l 1222 276 l 1220 276 m 1300 278 l 1302 276 l 1304 276 l 1306 278 l 1307 278 q 1335 257 1330 269 l 1335 246 l 1331 243 l 1331 246 l 1333 256 l 1330 256 l 1330 244 l 1326 244 l 1324 250 l 1326 252 l 1324 254 l 1326 254 q 1320 265 1324 265 l 1320 263 l 1322 252 l 1319 252 q 1313 257 1319 257 q 1307 270 1313 269 l 1309 269 l 1309 261 l 1307 261 q 1298 272 1298 265 l 1296 272 l 1296 267 l 1294 269 l 1291 269 q 1302 261 1291 263 l 1302 259 l 1294 257 l 1294 256 l 1296 256 l 1304 259 l 1313 256 l 1313 254 q 1302 250 1313 250 l 1302 248 l 1309 248 l 1317 250 l 1322 248 l 1322 244 l 1315 243 l 1315 241 l 1320 241 l 1326 243 l 1328 241 l 1328 239 l 1324 235 l 1315 235 l 1315 239 l 1313 237 l 1311 237 q 1287 254 1304 237 l 1285 254 l 1287 256 l 1287 257 q 1281 261 1287 261 l 1278 272 l 1300 278 m 1230 272 l 1224 265 l 1226 265 l 1231 272 l 1230 272 m 1389 274 q 1400 269 1389 269 l 1402 267 l 1402 256 q 1374 231 1396 240 l 1357 231 l 1352 237 l 1356 241 l 1380 237 l 1381 237 l 1381 243 l 1378 243 l 1378 239 l 1374 239 l 1361 243 q 1370 248 1361 247 l 1385 244 l 1387 246 l 1389 244 l 1389 246 q 1376 252 1376 249 l 1383 256 l 1387 256 l 1396 254 q 1391 257 1396 257 q 1396 261 1391 261 l 1396 263 q 1391 267 1391 263 l 1389 267 q 1381 257 1389 261 l 1381 263 l 1383 265 l 1383 267 l 1381 267 q 1367 250 1381 256 l 1367 254 l 1370 263 q 1361 248 1367 263 l 1356 246 l 1359 256 q 1354 244 1354 254 l 1350 244 l 1350 246 q 1363 269 1350 257 l 1365 269 l 1367 267 l 1369 267 q 1372 272 1369 272 l 1374 272 l 1376 270 l 1389 274 m 1348 269 l 1350 269 l 1350 261 l 1341 239 l 1343 237 q 1328 224 1338 237 q 1287 217 1304 217 l 1287 219 l 1283 224 l 1285 224 l 1298 220 q 1331 233 1319 225 l 1331 237 q 1348 269 1343 237 m 1217 263 q 1211 246 1217 255 l 1213 246 l 1220 263 l 1217 263 m 1224 259 l 1224 256 l 1222 256 l 1224 250 l 1226 250 l 1226 259 l 1224 259 m 350 250 q 376 230 370 243 q 381 226 381 230 l 381 222 l 367 215 l 367 217 l 370 222 l 369 222 l 361 211 l 363 211 l 365 213 l 365 211 l 367 213 l 370 213 l 370 204 l 369 194 q 363 204 365 194 l 365 206 l 365 209 l 363 209 l 361 204 l 365 193 l 354 187 l 354 185 l 356 185 q 372 204 372 191 q 378 191 376 204 q 359 178 378 178 l 333 167 l 330 170 l 331 172 l 331 174 l 328 178 l 328 180 l 333 180 l 333 181 q 317 187 317 181 q 333 193 317 191 q 350 211 346 211 q 341 230 350 216 l 337 230 l 348 215 l 346 215 l 324 233 q 317 241 320 233 l 324 246 q 330 241 330 246 l 331 239 l 333 239 q 350 250 334 245 m 341 243 q 333 237 341 237 l 333 233 l 344 241 l 344 243 l 341 243 m 343 237 l 343 235 q 363 230 363 235 l 363 228 l 357 220 l 357 215 l 359 215 l 363 226 l 365 224 l 367 224 q 357 239 365 231 l 343 237 m 1200 233 l 1202 233 l 1215 235 l 1215 237 l 1211 237 l 1206 235 l 1207 237 l 1207 239 l 1200 233 m 300 239 l 313 239 l 322 230 l 309 207 l 311 198 l 311 196 l 309 196 q 304 226 304 213 l 302 226 l 302 219 q 328 172 302 197 l 315 167 l 307 170 l 307 169 l 313 167 q 304 152 304 159 l 302 152 l 302 157 l 306 169 q 276 198 306 190 l 276 200 l 278 202 l 278 204 l 276 215 q 302 230 280 221 l 300 239 m 1157 239 l 1159 237 l 1159 235 l 1154 235 l 1157 239 m 348 231 l 348 230 l 352 226 l 352 228 l 350 230 l 354 230 l 354 231 l 348 231 m 328 231 q 346 211 329 227 q 313 191 332 191 l 313 193 l 315 198 l 313 211 l 328 231 m 356 213 l 352 200 l 352 198 l 354 198 l 359 211 l 357 213 l 356 213 m 1215 207 l 1217 207 l 1217 206 l 1213 196 l 1209 196 l 1211 198 l 1211 202 l 1209 202 q 1202 191 1209 196 l 1202 194 l 1206 202 l 1204 202 l 1198 185 l 1196 185 l 1196 189 l 1198 198 l 1198 200 l 1196 200 l 1194 185 l 1193 185 l 1193 196 l 1191 196 q 1185 176 1189 176 l 1185 183 l 1187 194 l 1187 196 l 1185 196 l 1181 170 l 1183 170 l 1185 172 l 1187 170 l 1202 170 l 1202 172 q 1191 176 1191 172 l 1209 176 l 1211 178 l 1209 178 l 1200 180 l 1194 178 l 1194 181 l 1215 181 l 1215 183 l 1198 183 l 1198 185 l 1224 202 l 1224 200 l 1219 183 l 1220 181 q 1206 170 1213 170 l 1206 167 l 1211 167 q 1237 146 1219 167 l 1235 144 l 1235 143 l 1239 137 l 1233 135 l 1233 137 q 1209 131 1219 131 q 1189 150 1189 136 l 1183 154 l 1178 154 l 1170 146 l 1172 139 l 1172 133 l 1170 133 l 1169 150 q 1174 161 1174 150 l 1178 161 l 1176 159 l 1176 156 l 1183 156 l 1194 163 l 1194 165 q 1180 172 1180 165 l 1178 180 l 1180 187 l 1178 187 q 1215 207 1184 207 m 1222 206 l 1226 206 l 1226 204 l 1217 200 l 1217 202 q 1222 206 1217 206 m 1161 202 l 1163 202 l 1163 193 l 1161 193 l 1161 202 m 1124 196 l 1141 196 l 1159 193 l 1159 191 l 1157 181 q 1154 187 1154 181 l 1148 185 l 1148 183 q 1163 170 1156 183 l 1161 170 l 1163 169 l 1163 163 l 1159 163 q 1139 180 1146 163 l 1141 181 l 1141 185 l 1137 185 l 1139 187 l 1139 189 l 1141 187 l 1148 187 l 1148 191 l 1146 193 l 1146 189 l 1135 194 l 1133 193 l 1124 194 l 1124 196 m 1133 193 l 1139 191 l 1139 189 l 1133 189 l 1133 193 m 344 189 q 337 183 344 183 l 337 181 l 352 183 l 352 185 l 344 185 l 346 187 l 346 189 l 344 189 m 1207 189 l 1207 185 l 1217 187 l 1217 189 l 1215 189 l 1209 187 l 1207 189 m 1163 187 l 1165 187 l 1169 183 l 1167 181 l 1167 180 l 1170 165 l 1167 165 l 1165 172 l 1167 172 l 1163 187 m 302 178 l 304 172 l 298 169 l 298 174 l 302 178 m 1150 172 l 1150 170 l 1159 170 l 1159 172 l 1150 172 m 1187 154 l 1191 154 q 1200 141 1195 142 l 1200 143 q 1194 152 1196 143 l 1200 152 l 1207 137 l 1209 137 l 1209 141 l 1204 146 l 1204 150 l 1209 150 q 1219 137 1209 143 l 1219 139 q 1213 148 1214 139 l 1215 148 q 1222 139 1222 146 l 1226 139 l 1224 141 l 1224 144 l 1226 144 l 1233 141 l 1233 143 l 1213 152 l 1213 154 l 1217 154 l 1217 156 l 1215 156 l 1204 154 l 1202 154 l 1202 156 l 1213 159 l 1213 161 l 1211 161 l 1196 156 l 1193 156 l 1193 157 l 1207 161 l 1207 163 l 1202 163 q 1187 154 1187 156 z "},"L":{"ha":1037,"x_min":0,"x_max":991,"o":"m 513 994 q 739 929 625 994 q 828 864 782 902 q 913 760 881 810 l 913 755 l 911 755 l 885 790 q 515 979 734 979 q 241 906 345 979 q 109 773 156 846 q 63 688 81 736 q 24 503 24 607 q 193 153 24 295 q 485 38 322 38 q 685 92 595 38 l 693 92 l 696 88 q 717 68 696 84 q 720 60 720 68 q 620 16 673 30 q 506 -1 551 -1 l 494 -1 q 141 144 291 -1 q 0 494 0 288 l 0 499 q 59 738 0 625 q 131 842 96 799 q 154 864 136 842 l 222 918 l 250 932 q 369 977 294 957 q 513 994 422 994 m 494 975 l 520 975 q 713 929 620 975 q 743 910 742 914 l 739 910 q 750 903 743 903 q 744 906 750 906 l 743 908 l 743 910 l 746 910 l 756 903 l 752 903 l 752 901 q 770 888 770 892 l 765 888 q 509 953 650 953 q 346 921 434 953 q 124 699 200 862 q 85 534 85 608 q 163 312 85 423 q 233 244 200 267 q 337 205 294 205 l 365 205 q 441 234 394 205 q 519 373 519 302 q 524 425 521 373 q 494 556 524 488 q 515 616 508 606 l 519 616 l 552 582 l 556 582 q 594 679 594 613 q 548 629 564 656 l 544 629 q 535 677 538 629 q 570 781 535 726 q 620 836 600 836 l 633 836 q 652 806 643 836 l 652 777 l 650 777 l 635 792 l 619 792 q 563 714 596 770 l 563 708 l 569 708 l 585 723 q 617 666 611 723 l 617 660 l 619 658 q 598 571 615 615 q 563 547 587 547 q 537 569 558 548 l 535 569 l 526 545 l 526 536 l 548 451 q 556 382 556 414 l 556 381 q 470 195 556 265 q 374 160 417 160 l 356 162 l 356 160 q 265 186 306 166 q 119 338 173 232 q 83 416 88 389 q 70 488 70 459 l 70 503 l 69 510 l 70 518 l 70 519 l 69 521 l 70 523 l 70 555 q 113 712 73 617 q 194 829 133 760 q 335 925 276 909 q 504 962 413 962 l 526 962 q 694 929 597 962 l 735 910 l 737 910 l 737 912 q 515 969 629 969 l 496 969 q 315 927 408 969 l 263 897 q 159 806 221 870 q 91 684 113 745 q 61 514 61 609 q 91 358 61 428 q 159 247 111 307 q 187 219 187 223 l 215 195 q 461 105 335 105 q 631 151 558 105 l 659 123 l 659 121 q 517 64 587 72 q 459 60 506 60 q 120 251 271 60 q 37 506 37 371 q 76 697 37 601 q 261 906 131 830 q 494 975 375 975 m 661 903 l 667 903 l 667 899 l 665 881 q 683 871 672 874 q 689 851 689 864 q 674 801 689 822 l 670 814 l 674 836 q 654 853 674 850 l 650 864 q 661 903 653 900 m 770 888 l 774 888 l 793 873 l 791 873 l 770 884 l 770 888 m 717 881 l 719 881 q 774 795 746 844 q 807 679 807 734 q 787 568 800 583 q 748 523 778 542 q 704 508 735 515 l 696 508 l 696 510 l 733 549 q 794 669 794 612 l 794 675 q 746 799 794 731 l 744 792 l 770 694 l 770 686 l 767 682 q 717 858 717 818 l 715 860 l 715 862 l 717 881 m 785 853 l 787 853 q 822 779 822 830 l 820 773 l 817 773 q 798 814 811 795 l 785 827 l 785 853 m 839 777 l 848 777 q 891 732 869 777 q 898 675 898 693 l 898 653 q 850 544 898 587 q 793 521 829 521 q 761 516 780 516 l 756 516 l 756 519 l 800 542 q 807 545 800 545 l 839 573 q 883 668 876 620 l 883 686 l 876 708 l 872 708 q 843 699 860 699 q 830 729 830 699 q 839 777 830 763 m 615 766 l 644 766 l 644 723 l 643 723 l 641 725 l 639 725 l 639 723 l 637 725 l 624 723 l 613 723 l 615 760 l 615 766 m 681 762 l 711 762 q 715 756 715 762 l 713 721 l 681 721 l 681 762 m 928 727 l 930 727 q 952 692 952 711 q 983 521 983 604 q 976 508 981 521 l 972 508 q 959 599 972 537 l 957 599 q 906 442 957 481 q 935 384 927 442 l 935 360 q 893 301 920 301 l 861 316 l 861 314 q 833 194 854 239 q 769 97 813 149 q 735 129 764 98 q 798 216 788 191 q 839 329 839 285 l 839 355 l 833 403 q 794 390 802 390 l 793 390 l 793 392 q 815 408 793 404 q 831 416 815 411 l 817 469 l 835 503 l 850 429 l 854 429 l 872 445 q 939 606 939 512 l 939 618 q 928 727 939 666 m 659 718 q 669 684 665 708 l 637 642 l 628 673 q 659 718 637 700 m 487 712 l 520 712 l 520 710 l 519 675 l 520 673 l 519 671 l 487 671 l 487 712 m 743 50 q 696 92 716 73 q 667 121 667 113 q 622 169 659 123 q 570 275 570 232 l 570 290 q 593 395 570 333 q 637 484 608 438 l 637 490 q 617 542 617 513 l 617 549 q 630 601 617 564 q 663 636 650 636 q 683 618 677 636 l 693 616 l 694 616 q 719 636 711 616 q 704 666 704 659 l 704 668 l 707 692 q 741 631 741 661 l 741 629 q 713 579 741 596 q 693 573 713 573 l 691 573 l 672 590 l 663 590 q 639 553 650 590 l 637 551 l 633 534 l 635 534 l 641 531 q 674 560 650 531 q 681 547 674 555 q 689 525 689 532 q 635 399 689 504 q 598 303 598 313 q 593 262 593 288 q 648 166 593 231 q 667 147 663 147 l 706 106 q 730 84 709 106 q 735 79 735 84 q 756 58 756 62 q 777 40 766 49 l 743 50 m 746 679 l 748 679 q 767 638 767 662 q 759 608 765 621 l 757 608 l 757 610 l 759 631 q 743 669 759 644 l 746 679 m 835 677 l 837 677 l 837 671 l 835 655 l 839 634 l 846 634 l 848 645 l 852 645 q 841 623 852 630 q 830 645 830 623 l 835 677 m 898 560 l 906 560 l 906 549 l 907 547 l 907 545 l 906 545 q 911 540 906 540 l 913 538 l 913 532 l 911 531 l 911 529 l 909 531 l 902 531 q 880 503 902 521 l 865 494 l 861 494 l 898 531 l 898 534 q 889 545 889 534 q 898 560 889 556 m 894 551 l 894 545 l 898 545 l 900 544 l 902 545 l 900 551 l 894 551 m 593 534 l 594 534 q 606 495 599 534 q 574 456 600 495 l 572 456 l 563 488 q 591 531 576 517 l 593 532 l 593 534 m 794 505 q 807 462 800 505 q 787 445 803 445 l 780 456 l 776 456 q 757 442 771 442 l 754 442 q 746 479 746 455 l 743 479 l 743 488 q 754 495 746 495 l 754 482 q 761 456 754 456 l 767 456 q 774 473 770 456 l 772 501 l 774 503 l 778 503 l 778 501 q 793 460 781 460 l 796 460 l 800 464 l 793 492 l 793 495 l 794 505 m 809 30 q 804 34 806 32 l 756 79 q 722 110 722 106 l 720 108 l 719 108 q 713 114 719 114 l 696 132 l 672 158 q 659 175 672 163 q 630 255 630 216 l 630 266 q 657 356 630 300 l 691 425 l 676 445 l 674 451 l 704 494 q 730 438 730 474 q 689 340 730 413 l 659 271 l 654 236 q 680 181 654 208 l 683 173 l 700 158 q 802 62 738 117 q 845 19 829 37 l 809 30 m 978 477 l 983 477 l 991 468 l 991 460 l 989 460 l 978 464 q 970 419 973 455 l 965 414 q 954 442 965 425 l 931 451 l 928 458 q 937 466 929 463 q 965 434 957 466 l 967 434 q 978 477 967 470 m 585 444 l 591 436 l 591 427 q 580 394 591 416 l 578 394 l 578 399 l 583 425 q 578 434 581 434 l 576 434 q 570 423 570 434 l 567 423 q 581 444 569 444 l 585 444 m 819 432 l 819 431 l 815 419 l 733 382 l 730 379 l 730 381 l 735 397 l 807 429 l 819 432 m 854 408 l 856 399 q 865 418 859 399 l 863 418 q 854 408 854 413 m 872 375 l 872 373 q 887 345 872 358 l 893 345 q 919 377 910 345 q 896 397 919 391 l 889 397 q 872 375 872 397 m 739 366 l 746 366 q 765 338 765 358 l 763 336 l 763 323 q 744 327 744 324 q 713 310 726 327 l 713 301 q 733 286 718 291 q 776 316 759 286 q 802 349 797 348 l 806 349 l 807 340 l 807 303 q 783 279 796 303 l 726 192 l 726 188 q 704 162 720 188 l 702 162 l 681 181 l 681 188 q 709 221 686 188 l 724 245 q 694 301 694 259 q 726 360 694 330 q 739 366 733 366 m 902 294 l 906 294 q 913 281 913 291 l 913 273 q 900 238 913 264 l 898 238 l 898 244 l 906 273 q 900 281 903 281 l 896 281 q 893 273 893 281 l 891 271 l 889 271 q 902 294 889 286 m 874 284 l 876 284 l 876 277 l 874 253 l 878 234 l 880 232 l 881 232 q 889 244 889 234 l 891 244 l 891 229 l 881 219 l 876 219 q 865 244 869 219 l 874 284 m 678 277 l 680 277 l 680 275 l 678 247 l 681 227 l 689 227 q 694 240 693 227 l 696 240 l 696 232 q 685 214 696 221 l 681 214 q 670 238 674 214 l 678 277 m 533 245 l 543 245 q 561 229 561 245 q 543 205 545 216 l 544 205 q 585 156 573 178 l 585 151 q 548 192 565 177 q 541 201 548 195 l 539 216 l 543 232 q 535 225 535 229 q 528 236 528 227 l 533 245 m 857 221 l 859 221 q 870 206 870 221 q 856 166 870 186 l 856 168 l 861 194 l 861 208 l 857 212 l 854 212 q 846 201 854 206 l 846 203 q 857 221 851 221 m 517 195 l 524 195 l 524 188 q 509 151 524 177 l 507 144 l 515 140 l 556 155 l 556 153 q 519 129 546 138 q 504 138 504 134 l 504 145 q 519 182 504 155 l 519 184 l 506 184 l 500 181 l 494 181 l 494 188 q 517 195 510 195 m 481 179 l 487 171 l 487 160 l 476 164 l 474 164 q 465 116 470 127 l 463 116 q 439 147 457 147 q 428 155 433 147 l 428 162 l 431 166 l 437 166 q 463 134 454 166 l 465 134 q 481 179 465 179 m 659 169 l 681 144 l 681 142 l 678 138 l 669 149 l 670 151 l 669 151 l 667 149 l 654 166 l 659 169 m 715 112 q 746 84 742 84 l 746 81 l 741 79 l 711 106 l 711 108 l 715 112 z "},"M":{"ha":1391,"x_min":0,"x_max":1344,"o":"m 463 917 l 463 915 q 220 680 453 850 q 196 635 196 666 l 191 583 l 191 581 q 220 537 195 537 l 230 537 q 276 569 239 537 l 293 569 l 320 607 q 344 643 344 630 l 348 643 q 367 615 367 628 l 367 609 q 343 585 361 585 l 330 589 q 294 546 319 589 q 269 539 286 541 q 230 496 259 533 q 206 485 216 485 q 178 504 178 491 l 176 504 q 156 470 156 477 l 157 470 q 189 444 189 460 l 189 437 q 94 381 189 400 q 39 331 56 364 l 30 294 l 31 294 q 4 6 17 225 l 2 6 l 0 98 l 0 185 q 94 417 0 361 q 146 483 108 417 q 170 580 170 502 q 206 687 182 650 q 378 835 245 727 l 463 917 m 1324 844 l 1326 844 q 1343 828 1326 841 l 1344 819 q 1326 789 1335 789 q 1304 807 1315 794 q 1324 844 1318 844 m 1283 843 q 1304 815 1304 825 q 1287 787 1294 788 l 1283 787 q 1263 807 1263 799 q 1283 843 1273 833 m 880 794 l 881 794 l 885 776 l 885 770 q 876 748 885 756 l 880 769 l 874 791 l 880 794 m 1037 794 l 1037 791 q 1011 644 1023 644 q 985 600 1005 621 l 983 600 l 983 602 q 1009 739 1000 669 q 1037 794 1028 785 m 1235 793 q 1257 769 1257 779 q 1241 739 1254 751 q 1217 757 1227 739 q 1235 793 1228 790 m 1193 791 l 1194 791 q 1215 767 1215 778 l 1215 765 q 1200 737 1207 737 l 1193 737 q 1176 757 1176 750 q 1193 791 1176 763 m 1344 767 l 1344 765 q 1304 643 1344 668 q 1248 622 1285 622 q 1202 587 1213 587 l 1198 587 l 1170 600 l 1169 600 q 1107 552 1163 600 l 1044 515 q 754 433 894 433 q 637 456 690 433 l 637 454 q 596 283 637 367 q 494 217 555 217 l 483 217 q 426 259 442 217 l 422 291 q 467 413 422 347 l 469 411 l 470 411 q 441 331 441 354 l 441 317 q 502 270 441 276 l 507 270 q 619 443 619 270 l 619 563 q 644 630 619 571 l 646 630 l 646 628 l 641 550 q 709 493 641 506 l 752 489 l 798 489 q 1044 552 919 489 l 1178 631 q 1209 620 1200 620 q 1228 633 1219 620 l 1224 643 q 1269 709 1224 672 l 1270 711 l 1272 711 q 1293 687 1293 708 l 1289 657 l 1291 657 q 1320 685 1320 667 l 1320 693 q 1344 767 1320 730 m 959 752 l 963 748 q 915 609 963 643 l 900 606 q 874 620 886 606 q 824 585 844 585 l 820 585 q 785 607 794 585 l 783 609 l 781 609 q 722 567 729 567 l 720 569 q 763 615 720 575 l 811 665 l 813 665 q 852 639 821 639 q 885 678 868 639 l 891 681 l 893 681 q 915 657 897 657 l 919 657 q 941 676 941 659 l 941 689 l 939 706 q 959 752 954 752 m 898 743 l 900 743 l 902 737 q 889 713 896 713 l 887 713 q 874 719 881 713 l 863 707 l 854 707 q 848 719 848 709 q 856 735 850 735 q 861 719 856 719 q 874 735 869 719 l 876 735 q 881 724 880 735 l 889 724 q 898 743 894 724 m 1244 667 l 1244 659 q 1261 652 1244 654 q 1280 663 1280 657 l 1280 665 q 1265 680 1280 680 l 1257 680 q 1244 667 1249 675 m 250 659 q 270 641 259 655 l 270 637 q 256 606 270 618 l 252 606 q 231 622 239 612 l 231 624 q 250 659 236 646 m 411 620 l 411 619 q 394 481 394 501 q 430 435 399 435 l 431 435 q 476 467 444 435 q 507 487 507 469 q 535 522 515 503 q 548 543 548 537 l 550 543 q 569 515 569 527 l 569 509 q 546 485 563 485 l 526 487 q 483 439 493 439 q 454 419 465 439 q 415 385 429 385 l 406 385 q 374 437 374 392 l 374 446 q 409 620 374 554 l 411 620 m 452 570 l 474 548 l 474 544 q 456 515 466 515 q 433 531 433 525 l 452 570 m 311 502 q 337 474 330 502 q 307 381 337 428 q 237 352 298 369 l 235 354 l 235 356 q 309 422 306 401 l 309 426 l 296 424 q 276 441 276 424 l 276 443 q 311 502 294 502 m 943 413 q 965 391 965 395 q 944 356 960 356 l 924 374 l 943 413 m 626 219 l 630 213 l 624 207 l 617 211 l 611 209 l 611 207 q 631 202 611 202 l 637 202 l 637 200 l 633 193 l 631 193 l 630 194 l 606 183 l 606 185 l 615 194 q 604 200 604 196 q 626 219 606 219 m 711 187 l 713 187 q 733 167 713 172 l 739 161 q 719 141 729 141 q 700 107 709 112 q 709 80 709 90 l 709 63 l 707 54 l 637 54 q 659 87 646 87 q 680 104 680 98 l 659 122 l 657 122 q 654 117 654 122 l 652 115 l 650 115 q 607 150 607 133 q 617 180 607 158 q 694 119 640 180 l 700 139 l 700 143 q 694 159 700 152 l 711 187 m 1028 185 q 1037 167 1028 172 l 1059 156 l 1059 154 l 1039 128 l 1043 87 q 1028 54 1038 54 l 937 52 q 902 78 902 52 q 917 119 909 119 l 919 117 l 920 117 l 917 94 q 959 80 921 80 l 1024 83 l 1024 85 q 1007 156 1024 133 q 1028 185 1023 185 m 141 183 q 176 163 141 173 q 157 137 170 137 l 163 65 q 122 19 163 40 l 98 15 q 61 44 65 15 l 61 46 q 89 107 67 83 l 89 106 q 76 69 76 78 q 106 43 76 49 q 146 59 146 49 q 128 152 140 152 l 128 156 q 141 183 128 170 m 215 183 l 215 181 q 224 87 219 87 l 259 83 l 354 83 q 402 122 380 122 l 407 122 q 417 98 411 122 q 450 81 417 88 l 478 83 l 487 83 l 487 91 q 537 137 506 137 l 543 137 q 580 100 580 123 l 578 100 q 539 113 563 113 q 509 106 509 111 l 509 104 q 544 83 528 83 l 594 85 l 576 54 l 419 54 l 417 52 l 409 43 l 407 43 l 359 70 l 356 70 q 339 54 354 54 l 206 54 l 196 159 q 215 183 210 181 m 1100 183 l 1100 181 l 1107 87 l 1133 83 l 1198 83 q 1206 104 1203 83 l 1220 119 l 1222 119 l 1222 117 l 1219 87 l 1224 83 l 1291 117 q 1317 122 1303 122 q 1344 94 1336 122 q 1328 54 1332 54 l 1217 54 q 1202 67 1202 56 l 1198 67 q 1189 54 1198 59 l 1089 54 l 1081 159 q 1100 183 1086 169 m 769 172 q 776 107 776 136 l 776 93 q 763 52 776 75 l 761 52 l 750 141 q 769 172 761 164 m 856 146 l 863 146 l 922 139 l 946 139 l 935 113 l 924 113 q 913 124 924 124 l 913 122 q 861 78 861 81 l 857 63 l 857 59 q 933 24 857 24 l 943 24 l 963 26 l 965 26 l 965 24 q 894 0 923 0 q 843 44 843 0 l 843 52 q 876 117 843 83 l 857 119 l 841 109 l 839 109 l 839 111 q 856 146 839 133 m 1256 85 l 1256 83 l 1320 83 q 1291 100 1312 100 l 1256 85 m 378 94 l 378 93 l 396 83 l 398 89 q 393 96 395 96 l 387 96 l 378 94 m 685 93 l 674 80 l 680 78 l 694 80 q 685 93 690 92 z "},"N":{"ha":1343,"x_min":0,"x_max":1296,"o":"m 913 791 l 915 791 l 915 789 q 969 585 915 721 l 1024 413 l 1024 409 l 1061 474 q 1124 572 1085 517 q 1169 626 1157 623 l 1178 630 q 1191 606 1191 630 q 1211 596 1204 596 q 1246 639 1231 596 l 1250 665 l 1252 665 q 1256 659 1256 665 l 1257 652 l 1259 650 l 1261 650 q 1283 687 1283 666 l 1281 698 q 1289 719 1283 719 l 1291 719 l 1296 685 l 1296 669 q 1278 606 1296 628 l 1263 600 l 1254 602 q 1209 548 1238 548 q 1178 580 1178 554 l 1174 580 q 1119 513 1155 580 q 1072 435 1075 449 q 1039 369 1056 413 q 1059 283 1050 335 l 1061 283 l 1091 328 q 1146 350 1129 349 l 1154 350 q 1161 330 1161 338 l 1161 320 q 1102 206 1161 245 q 1067 181 1102 201 l 1063 174 q 1081 119 1063 154 q 1117 102 1105 102 l 1124 102 q 1167 119 1143 102 q 1211 159 1176 119 q 1235 198 1231 181 q 1248 230 1248 213 q 1241 241 1244 241 q 1207 219 1241 225 q 1183 254 1183 227 l 1181 259 q 1202 313 1181 300 l 1211 315 l 1219 315 q 1254 291 1230 315 q 1265 235 1265 261 q 1250 165 1257 165 q 1211 98 1236 126 q 1137 52 1184 63 l 1124 50 q 1069 85 1098 50 q 1048 170 1048 121 q 996 120 996 146 q 985 57 996 65 q 946 9 980 36 q 924 0 933 0 l 902 0 q 869 24 869 13 q 846 80 851 43 l 843 111 q 856 169 848 169 l 854 141 l 854 100 q 876 57 857 75 l 904 48 q 970 87 939 48 q 985 163 985 111 q 1022 204 998 194 q 1048 219 1030 213 l 1048 230 q 1020 335 1048 268 l 1019 335 l 1004 317 q 893 204 956 248 q 815 157 857 178 q 635 113 720 113 q 494 144 550 113 q 439 180 487 144 l 435 180 q 393 131 435 163 q 367 119 373 119 l 354 119 l 344 128 l 315 102 l 296 98 l 291 98 q 259 124 270 98 q 256 141 259 141 q 244 117 244 128 l 217 72 q 187 44 211 70 q 109 11 141 11 q 74 6 102 6 l 69 6 l 0 9 l 0 13 q 109 39 33 13 q 156 67 138 54 q 187 93 160 67 q 244 170 217 126 q 269 191 256 191 l 272 187 l 272 172 q 300 148 272 151 l 302 148 q 352 189 330 148 l 356 189 q 369 169 359 169 q 422 204 390 169 q 402 215 422 213 l 391 211 l 387 215 q 409 261 394 261 q 467 276 454 276 l 474 276 l 476 263 q 456 215 476 237 q 483 193 468 199 q 556 161 498 175 q 609 156 586 156 q 719 172 653 156 q 863 235 740 172 l 933 287 l 972 330 l 1007 380 q 989 435 1004 380 l 954 537 l 952 537 q 920 467 947 509 q 889 431 920 458 l 880 426 l 880 428 q 900 452 894 442 q 939 526 917 466 l 943 559 q 920 630 943 577 q 869 689 920 643 l 846 713 q 826 752 826 743 l 826 756 q 839 778 826 770 l 865 778 q 898 756 898 772 l 900 756 q 913 791 903 791 m 843 765 l 837 754 q 913 665 837 736 l 898 730 l 878 726 q 861 735 871 726 l 869 748 q 887 743 878 743 l 893 743 l 893 744 q 843 765 893 759 m 369 485 q 389 470 380 485 q 352 404 369 404 q 291 369 345 393 l 291 370 q 350 422 291 375 l 359 435 l 352 435 l 306 428 l 283 430 l 283 431 l 298 472 l 317 472 l 369 485 m 1191 446 l 1231 433 l 1235 430 q 1211 385 1222 385 q 1169 406 1182 394 q 1191 446 1169 427 m 1069 230 q 1131 278 1102 250 l 1143 298 l 1139 298 q 1098 280 1116 298 q 1070 243 1082 271 l 1069 230 m 400 74 l 441 52 l 441 50 q 411 11 424 11 l 376 30 l 374 30 q 350 0 374 17 q 309 30 309 19 q 339 65 325 57 l 376 44 l 376 46 q 400 74 381 63 z "},"O":{"ha":1294,"x_min":0,"x_max":1248,"o":"m 1115 1007 l 1120 1007 q 1135 961 1135 993 l 1135 948 l 1133 939 l 1128 939 l 1126 946 l 1119 946 q 1081 881 1103 939 q 1067 844 1076 861 q 1035 763 1056 801 q 1013 726 1025 738 q 969 676 981 676 q 943 656 963 666 q 909 644 943 651 q 943 556 927 585 q 981 398 981 477 l 983 376 l 1013 352 q 1019 346 1013 346 q 1024 328 1024 337 l 1024 322 l 1011 280 l 998 280 q 985 285 998 285 l 983 285 l 946 283 l 946 280 q 907 265 930 280 q 881 244 890 255 q 863 228 877 244 q 846 207 858 227 q 822 174 825 184 q 854 117 840 117 q 881 106 861 106 l 883 104 l 885 104 q 933 128 907 104 q 967 185 953 155 q 989 202 983 202 q 1006 159 996 163 l 1015 159 q 1043 183 1026 159 q 1057 252 1049 233 l 1059 252 q 1072 217 1059 217 l 1076 217 q 1096 252 1090 217 l 1096 283 q 1104 296 1096 294 l 1106 296 l 1107 287 l 1107 278 l 1109 278 q 1144 337 1125 288 l 1143 337 q 1106 313 1143 330 l 1096 313 l 1085 328 l 1083 328 l 1081 356 q 1098 394 1081 367 q 1122 409 1115 409 l 1124 409 l 1130 383 q 1117 370 1130 370 l 1111 370 l 1111 374 q 1094 344 1101 374 l 1094 339 l 1096 339 q 1131 356 1131 346 q 1154 391 1139 358 l 1178 431 q 1233 494 1204 494 l 1246 494 l 1248 485 l 1248 437 l 1239 439 l 1237 439 q 1206 415 1218 439 q 1167 331 1189 394 q 1139 235 1159 267 q 1131 226 1133 235 l 1119 222 q 1111 231 1111 226 l 1109 231 l 1104 187 q 1089 159 1097 164 l 1081 159 q 1063 178 1063 164 l 1061 178 q 1024 102 1053 104 l 1017 102 q 987 139 995 102 l 983 139 q 959 106 963 120 q 939 74 959 101 q 883 46 919 46 l 876 46 q 833 69 847 51 q 802 137 802 119 q 761 67 776 100 q 730 24 744 39 q 696 13 704 13 q 646 67 661 13 l 644 85 q 663 178 644 125 q 674 256 674 225 l 674 272 l 672 272 q 644 204 656 244 q 593 159 626 159 l 581 159 l 581 157 q 572 80 576 80 l 570 80 q 548 22 570 49 q 515 0 533 0 l 481 0 q 430 30 464 0 q 402 78 409 52 q 394 131 396 78 q 402 193 394 164 l 404 193 q 419 246 404 211 q 424 267 424 256 l 389 267 l 389 265 l 387 228 l 383 228 l 383 226 q 348 120 383 192 q 315 85 330 90 q 274 72 290 72 l 259 72 l 246 78 q 183 131 221 78 q 100 113 175 125 l 100 115 q 146 143 119 130 q 169 157 150 148 l 163 181 l 161 181 l 159 209 l 159 237 l 161 274 q 169 311 169 274 q 196 394 178 347 q 217 461 209 426 q 211 478 217 478 l 206 509 l 206 539 q 219 593 207 587 l 230 498 q 235 481 235 498 l 265 400 q 276 328 276 379 l 276 315 q 263 226 271 226 q 228 163 249 183 l 219 152 q 261 131 219 140 l 267 131 q 317 150 301 131 q 343 176 333 156 q 372 228 357 189 l 376 248 l 372 267 l 370 267 q 339 237 361 237 l 330 237 q 304 259 309 243 l 300 270 l 298 270 l 296 296 l 300 326 q 330 361 310 361 l 339 361 q 383 309 366 361 l 385 300 q 389 285 388 300 l 391 285 q 439 304 439 291 q 452 354 452 334 q 461 400 458 354 q 465 454 463 400 q 409 465 462 457 l 407 467 l 407 474 l 415 531 l 452 520 l 452 519 l 456 519 l 467 517 q 500 559 470 517 q 526 602 520 596 l 526 604 q 502 626 517 604 l 500 641 q 522 678 500 654 l 530 680 q 546 641 546 673 l 546 639 l 543 615 l 548 598 l 546 587 l 543 587 q 531 596 543 596 q 500 541 531 582 q 474 491 474 515 l 472 456 l 472 411 l 469 411 l 469 400 q 446 304 456 320 l 446 300 q 489 322 477 312 q 511 337 494 322 l 543 369 q 574 415 553 389 l 598 467 q 619 524 598 475 q 569 500 591 500 q 554 517 557 500 l 552 524 q 572 576 552 545 l 583 583 q 600 557 600 583 q 583 541 596 541 l 583 543 l 581 552 l 572 543 q 567 531 569 543 l 565 530 l 567 528 l 576 526 q 620 554 597 529 q 630 569 620 558 q 646 600 638 590 q 683 672 649 626 q 707 687 696 687 q 722 669 722 687 l 722 626 l 720 628 l 709 628 q 663 559 688 628 l 648 520 l 624 459 l 602 396 l 572 343 q 533 300 544 305 q 476 274 524 285 q 437 267 437 270 q 407 163 407 200 q 437 80 407 104 q 496 50 454 50 q 554 93 532 50 q 569 122 562 93 l 570 135 q 556 176 570 152 q 535 198 542 194 l 528 209 l 531 267 l 533 267 q 570 220 546 244 l 583 217 q 628 237 608 220 q 644 272 639 270 q 667 331 644 295 l 672 339 q 681 361 681 339 q 689 394 683 394 l 706 374 q 722 361 710 374 q 744 343 729 360 l 746 343 l 746 322 l 743 322 l 743 320 l 739 280 l 737 280 q 707 291 737 288 q 687 283 687 288 l 689 270 q 672 181 689 230 l 661 146 l 659 131 l 659 115 q 678 80 665 80 q 691 72 682 72 l 693 72 q 772 152 737 72 q 791 187 779 158 l 778 267 l 776 267 l 761 381 l 759 381 l 759 387 q 739 476 751 452 q 715 517 725 504 l 720 569 q 739 552 734 563 q 787 396 770 523 l 793 337 l 796 337 l 796 335 l 811 220 l 815 220 q 839 254 815 228 q 870 291 867 291 q 924 330 901 327 q 961 344 924 335 l 965 372 q 933 494 965 418 q 907 552 928 500 q 889 615 889 594 l 889 617 l 891 639 q 881 643 881 639 l 880 643 q 781 689 806 643 q 769 711 772 695 l 763 750 q 778 815 767 792 q 815 848 793 837 q 846 857 830 857 l 874 857 q 950 835 924 857 l 957 833 l 957 830 q 878 839 932 839 q 804 817 838 837 q 781 772 781 788 q 811 713 781 732 q 856 700 831 700 l 870 700 q 930 719 930 708 q 946 730 936 719 q 994 776 958 730 q 1035 846 1018 806 l 1059 898 q 1102 998 1081 976 l 1115 1007 m 587 700 l 589 700 l 589 665 q 593 656 593 665 q 604 650 598 650 q 611 661 609 650 l 615 661 l 615 643 l 613 630 l 600 630 q 581 654 589 633 l 581 667 q 587 700 581 700 m 444 665 q 470 650 456 665 l 476 648 q 470 628 474 628 q 452 637 458 637 l 448 637 q 465 591 452 619 l 469 567 l 469 563 l 472 563 l 472 554 q 463 533 467 554 l 459 533 q 435 567 450 557 l 426 565 q 407 578 407 567 l 407 581 q 413 596 409 596 l 419 596 q 456 572 443 596 l 456 570 l 457 570 l 457 574 q 437 631 452 574 l 437 643 q 444 665 437 657 m 515 648 l 515 641 q 531 628 515 638 l 535 628 l 535 637 q 520 652 535 652 l 519 652 l 515 648 m 1031 644 l 1041 644 q 1065 620 1065 637 l 1065 613 l 1061 609 q 1037 620 1061 616 q 1054 578 1041 604 q 1063 539 1063 557 l 1063 535 l 1059 513 l 1056 513 q 1022 559 1035 548 l 1020 559 l 1022 550 l 1013 550 q 993 574 993 550 l 993 591 l 1004 591 q 1022 583 1004 586 q 1048 548 1048 558 l 1050 548 l 1050 556 q 1028 609 1045 578 l 1026 624 q 1031 644 1026 644 m 293 637 q 296 631 296 637 q 300 598 297 598 q 315 583 304 583 l 324 583 l 324 596 l 330 602 l 331 589 q 326 559 331 575 l 317 559 q 293 589 297 559 l 293 637 m 793 637 l 796 637 l 796 600 l 793 600 l 793 559 q 798 548 798 559 l 809 543 q 817 557 817 543 l 822 559 l 822 552 q 809 520 822 536 l 809 519 l 806 519 q 796 524 806 524 q 783 567 783 533 l 793 637 m 409 619 l 409 615 q 380 574 409 591 q 357 554 380 568 l 333 535 q 296 502 314 527 q 265 465 281 497 q 257 450 257 462 l 256 450 l 254 459 q 283 517 254 486 q 328 552 307 543 l 356 574 l 396 606 q 409 619 398 611 m 1150 567 l 1152 565 l 1152 554 q 1104 493 1152 531 q 1035 413 1043 438 q 1024 387 1027 387 l 1022 396 q 1089 500 1022 451 q 1115 524 1089 505 q 1150 567 1135 543 m 124 526 l 131 526 q 163 494 149 526 q 167 472 167 494 l 167 469 l 165 428 l 161 428 l 161 424 q 124 369 161 378 q 83 417 94 369 l 80 452 q 109 522 80 494 l 124 526 m 517 507 l 520 507 l 520 493 l 524 493 l 524 478 q 544 441 524 441 l 550 443 l 550 456 l 554 459 l 557 459 l 557 426 q 552 417 552 426 l 537 417 q 531 422 537 422 q 520 437 520 433 l 517 472 l 517 507 m 917 506 l 920 506 q 900 443 908 446 l 813 369 l 811 369 l 811 374 q 820 394 815 374 q 856 435 824 404 l 856 437 l 844 437 q 826 431 844 431 l 824 431 q 807 437 817 431 l 807 443 q 815 472 807 456 q 822 493 819 493 l 839 491 q 917 504 873 493 l 917 506 m 687 500 l 689 500 l 689 494 l 685 444 q 702 431 688 431 l 704 433 q 707 444 707 433 l 715 446 l 715 444 q 702 407 715 426 q 678 433 678 407 l 678 450 l 687 500 m 352 478 q 359 450 359 478 q 339 428 355 428 q 331 419 339 424 q 328 413 331 413 l 324 413 q 309 430 312 413 l 309 448 l 322 431 l 328 431 l 331 446 l 331 457 q 335 465 335 457 l 337 465 q 348 454 337 454 l 348 474 l 352 478 m 100 441 q 124 426 106 426 q 152 444 152 429 q 124 467 152 461 l 122 467 q 100 452 100 463 l 100 441 m 389 446 q 400 387 393 445 l 413 380 l 420 380 l 422 393 l 422 396 l 428 398 l 428 370 q 415 356 428 357 q 389 402 389 361 l 389 446 m 220 433 q 189 326 220 413 q 167 241 167 277 q 191 176 167 206 q 217 202 196 176 q 263 287 263 248 l 267 287 l 267 289 l 269 302 l 267 319 l 267 328 q 259 346 262 328 l 231 411 l 222 433 l 220 433 m 102 346 l 107 346 q 141 330 126 346 q 150 304 150 320 l 150 294 q 128 204 150 257 q 85 156 109 163 q 0 130 50 139 l 0 131 q 56 176 33 169 l 80 196 q 106 224 94 208 l 122 243 l 135 265 q 100 287 135 283 q 39 274 79 287 l 39 276 l 41 322 q 44 331 44 322 q 102 346 44 339 m 13 307 l 15 307 l 15 298 l 11 244 q 28 230 13 236 l 28 228 l 33 228 l 35 244 l 37 244 l 41 231 l 41 222 q 33 206 41 208 l 30 206 q 4 239 9 206 l 4 257 q 13 304 4 271 l 13 307 m 722 259 l 728 259 l 728 243 q 717 198 721 243 q 726 181 721 181 l 728 181 q 739 193 739 181 l 741 194 l 746 194 l 748 181 q 735 154 746 169 q 709 178 718 154 l 707 178 l 707 215 q 717 243 712 215 l 722 259 m 878 231 l 883 231 q 906 215 883 227 l 920 183 l 928 131 l 924 131 q 900 194 924 155 l 885 207 l 881 207 l 881 222 l 878 222 l 878 231 m 470 207 l 481 207 l 485 204 q 474 189 485 189 l 465 183 l 467 178 l 480 178 l 480 181 l 485 181 l 485 178 q 491 174 491 178 l 491 159 l 476 124 l 481 124 q 519 144 495 124 q 537 165 535 156 l 541 165 l 541 159 q 524 130 536 159 l 520 130 q 472 100 499 100 l 469 100 q 463 113 463 101 q 478 154 463 133 l 478 156 l 452 159 l 452 176 l 456 176 l 456 189 q 470 207 468 207 m 365 124 l 367 124 l 367 111 l 363 72 q 370 59 363 63 q 380 56 370 56 l 383 56 l 389 70 l 393 70 l 393 63 q 378 31 386 31 q 356 57 356 31 l 356 72 l 365 124 m 804 120 l 804 117 l 800 72 l 800 67 q 815 52 800 52 l 819 52 q 824 67 820 67 l 828 67 q 813 28 828 42 l 809 28 q 791 48 791 37 l 789 63 q 796 94 792 94 q 804 120 798 120 m 598 100 l 600 100 l 600 96 l 602 96 l 596 52 q 611 31 596 31 l 613 31 l 624 46 l 626 46 l 626 31 q 620 17 620 31 q 615 6 615 13 l 613 6 q 587 26 597 6 l 587 33 l 589 61 l 593 61 l 593 63 l 598 100 z "},"P":{"ha":1343,"x_min":0,"x_max":1296,"o":"m 667 978 q 728 917 721 917 l 785 857 l 785 854 l 720 791 q 707 780 713 780 l 707 778 l 730 754 q 748 735 733 746 l 778 704 l 835 646 q 846 639 842 639 l 846 483 l 913 483 l 913 581 l 917 581 l 917 587 q 937 626 919 607 q 944 633 941 626 q 972 641 962 641 l 972 644 l 1004 646 l 1020 646 q 1069 628 1045 646 q 1074 619 1069 623 q 1087 594 1087 603 l 1087 589 l 1091 589 l 1094 543 l 1028 543 l 1028 548 q 1009 583 1028 580 l 1009 585 l 996 585 l 996 581 q 985 572 985 581 q 978 543 978 572 l 978 483 l 1109 483 q 1135 476 1125 483 q 1191 424 1150 476 l 1191 422 l 846 422 l 846 180 l 967 180 l 967 341 l 1031 341 l 1031 180 l 1124 180 l 1124 341 l 1185 341 l 1235 337 l 1235 333 q 1270 317 1249 333 q 1296 263 1296 294 l 1296 119 l 783 119 l 783 422 l 541 422 l 541 120 l 46 120 q 13 133 27 120 l 11 135 l 4 144 l 2 144 l 0 172 l 0 294 l 2 322 q 9 331 7 322 q 37 341 25 341 l 37 344 l 194 344 l 194 283 l 70 283 l 63 276 l 63 191 q 72 183 67 191 l 83 181 l 476 181 l 476 422 l 107 422 l 107 426 q 119 439 113 426 q 157 474 152 474 q 191 483 176 483 l 322 483 l 322 559 q 315 574 318 559 q 309 581 309 574 q 304 585 304 581 l 287 585 l 287 581 q 270 557 275 581 l 270 543 l 204 543 l 206 565 l 206 578 l 209 578 q 220 617 209 592 q 233 631 225 617 l 252 641 q 257 644 257 641 l 285 646 l 306 646 l 333 644 q 348 637 333 639 q 359 631 348 631 q 367 620 359 625 q 385 567 385 592 l 385 483 l 476 483 l 476 637 q 593 752 480 637 q 617 774 613 774 l 617 780 l 576 820 l 548 846 l 537 856 l 537 857 q 580 898 542 857 q 665 978 657 978 l 667 978 m 657 889 q 633 861 657 883 q 628 857 633 857 l 628 856 l 652 833 q 657 822 657 830 l 665 822 q 670 828 665 828 q 698 856 694 856 l 698 857 l 681 872 q 661 889 667 887 l 657 889 m 541 483 l 633 483 l 633 600 l 698 600 l 698 483 l 783 483 l 783 606 q 759 633 783 615 q 698 694 759 637 l 663 731 l 615 683 q 541 609 541 613 l 541 483 m 615 393 l 633 393 q 659 369 648 393 l 661 369 l 661 348 l 657 348 q 641 328 657 333 q 626 322 634 322 l 619 322 q 600 330 609 322 q 587 354 587 341 l 587 363 q 615 393 587 382 m 700 393 l 717 393 q 741 363 736 393 l 744 363 l 744 348 q 739 339 739 348 l 720 324 l 704 322 l 700 322 q 670 344 686 322 l 669 354 q 680 381 669 375 q 700 393 687 393 m 335 385 l 339 385 l 367 374 q 381 346 377 368 l 383 346 l 383 330 l 339 330 q 333 341 339 341 l 324 339 l 324 319 q 357 306 332 306 l 393 306 l 393 263 l 263 263 l 263 306 l 280 306 l 272 331 q 276 348 274 348 l 278 348 l 278 354 q 300 380 278 366 q 335 385 300 385 m 661 322 l 665 322 q 681 300 665 317 l 713 231 l 715 231 l 726 180 l 726 156 l 730 156 l 730 133 l 726 133 l 726 131 q 720 93 726 107 q 717 78 717 93 q 707 61 712 75 l 704 61 q 685 37 694 37 q 680 31 685 31 q 643 9 670 17 q 631 6 643 6 l 631 2 l 604 0 l 581 0 l 550 2 q 530 9 550 7 l 491 28 q 474 35 481 35 l 474 39 l 511 33 l 511 31 l 533 31 l 533 35 q 589 44 569 35 q 639 70 604 44 l 656 100 q 663 135 663 123 l 663 137 q 633 206 663 170 q 613 219 618 219 l 613 224 q 639 244 625 224 q 657 276 651 256 l 657 285 l 661 285 l 663 317 l 661 322 m 1189 278 l 1189 180 l 1235 180 l 1235 235 q 1217 272 1235 265 q 1211 276 1211 272 l 1189 278 m 991 70 q 1024 39 1024 60 q 1011 6 1024 19 l 994 0 l 976 0 q 963 7 969 0 q 950 24 958 7 l 950 39 q 974 69 950 56 l 991 70 z "},"Q":{"ha":1078,"x_min":0,"x_max":1031,"o":"m 1028 1007 l 1031 1007 q 1017 978 1031 996 q 980 928 1011 956 q 954 902 980 922 l 909 859 l 870 830 q 861 822 870 826 l 861 819 q 815 783 855 819 l 774 756 l 772 754 l 772 750 q 761 743 765 750 q 743 728 743 731 l 739 722 l 739 667 l 735 667 l 735 661 q 730 578 735 578 l 728 578 l 728 572 q 706 531 713 531 l 702 524 q 724 513 707 524 q 737 496 731 511 l 739 496 l 739 494 l 735 494 l 735 489 q 713 454 735 477 q 672 433 713 442 l 670 431 l 670 430 q 626 417 644 430 q 585 389 597 403 q 565 350 573 377 l 554 304 l 552 304 l 552 291 l 548 231 l 548 222 l 544 222 l 541 126 l 541 120 l 537 120 l 537 119 q 531 7 535 7 l 530 0 l 526 0 l 526 30 l 522 30 l 520 72 q 524 224 522 224 l 526 224 l 526 231 l 530 281 l 533 281 l 533 283 q 539 320 533 299 l 541 322 q 572 406 541 349 q 609 444 599 444 q 619 454 609 450 q 648 476 626 464 q 665 502 648 480 q 693 539 667 509 q 706 572 706 565 l 706 578 l 709 578 l 709 665 q 724 700 713 678 q 757 767 748 767 q 763 772 757 772 q 770 778 763 778 q 787 793 770 782 q 852 846 824 827 l 878 865 q 915 900 878 871 q 981 963 941 919 l 1028 1007 m 519 959 l 520 959 l 520 957 l 519 941 q 509 926 513 941 q 498 909 503 925 l 456 859 l 428 837 q 374 787 428 832 q 344 761 357 775 q 331 750 339 761 q 320 743 327 750 q 289 722 297 725 q 278 715 289 715 q 269 706 278 709 l 257 696 l 228 674 l 228 654 l 224 654 l 219 502 l 217 502 l 217 500 l 211 437 q 207 428 207 437 q 156 333 190 364 q 120 309 148 322 q 67 296 94 296 l 30 302 l 28 304 q 4 322 17 304 l 2 322 l 0 343 q 4 383 1 383 l 6 385 q 19 411 6 411 l 20 411 l 20 394 q 46 365 20 372 l 69 365 l 69 361 l 113 361 q 122 365 113 365 q 169 393 158 378 q 185 435 185 405 l 185 437 l 189 437 l 191 493 l 191 556 l 193 611 q 198 624 198 611 l 222 680 l 224 681 q 265 733 229 703 l 287 754 q 296 759 292 754 l 298 761 q 343 800 333 786 q 354 807 348 800 l 385 831 l 417 861 q 439 880 421 861 q 465 907 453 889 q 519 959 519 949 m 352 567 l 352 565 q 348 537 351 537 l 346 537 l 341 483 l 339 481 l 333 400 q 352 365 340 365 q 376 357 352 357 q 407 378 389 357 q 428 396 407 383 l 441 394 q 459 411 450 394 q 498 463 474 444 l 506 480 l 509 480 l 522 463 q 530 443 530 454 q 517 413 530 427 l 504 411 l 485 413 q 470 398 476 411 q 448 365 467 398 q 443 359 443 365 l 433 357 l 424 359 q 407 352 414 352 q 387 320 387 327 q 380 307 380 320 q 357 298 374 307 l 344 298 q 319 320 319 306 q 311 333 313 320 l 307 337 l 306 356 l 309 389 l 311 391 q 317 457 314 457 l 319 457 l 322 509 q 328 520 328 509 l 348 565 l 350 567 l 352 567 m 922 491 q 926 483 926 491 q 931 480 931 483 l 931 469 q 922 463 931 464 l 904 467 q 893 456 893 467 l 889 456 l 889 452 l 893 448 l 909 443 l 924 443 l 937 448 q 961 457 953 457 l 963 457 q 939 433 963 444 q 917 415 939 430 q 883 383 889 396 q 856 359 866 362 l 839 361 l 837 361 q 822 350 828 361 q 770 298 791 298 l 763 296 q 728 315 738 296 q 719 337 719 323 l 717 337 q 667 296 699 296 q 637 289 667 289 l 635 289 l 635 285 l 628 285 l 626 291 q 672 322 649 310 q 678 326 672 326 l 696 343 q 713 369 710 358 q 719 374 719 369 l 737 411 l 739 413 l 743 420 q 748 426 748 420 l 754 426 l 754 413 q 746 391 746 413 l 746 381 q 757 365 746 365 q 783 357 757 357 q 822 383 804 357 l 844 398 l 869 396 q 881 406 877 396 l 881 407 l 857 422 l 857 433 q 863 443 863 433 q 872 457 868 443 q 880 467 880 457 q 913 491 904 491 l 922 491 m 124 487 l 137 487 l 139 478 q 124 472 139 472 q 106 435 124 449 l 94 435 q 83 448 83 435 l 85 450 l 107 450 l 109 463 l 109 472 q 115 480 115 472 q 124 487 124 481 m 285 465 l 285 459 q 276 400 285 439 q 261 356 276 383 q 235 319 258 335 q 200 304 213 304 q 178 298 200 298 l 170 298 l 170 304 q 176 311 176 304 l 194 328 q 233 359 218 342 q 263 415 250 379 q 269 437 266 415 l 272 437 l 272 439 q 285 465 272 465 m 398 261 l 415 250 l 419 250 q 430 233 419 245 q 433 228 430 228 l 433 215 q 426 198 428 215 q 422 193 422 198 q 407 176 419 193 l 402 176 l 393 185 q 372 209 372 199 l 398 261 m 819 261 q 850 228 850 244 l 854 228 l 854 219 q 846 198 849 219 l 843 198 q 824 176 843 191 l 822 176 l 793 202 l 793 206 q 819 261 793 211 m 757 257 l 763 257 q 770 252 763 252 q 778 246 770 246 q 793 224 789 224 l 793 215 q 787 200 787 215 l 785 193 q 778 183 781 193 q 770 174 770 183 l 761 174 l 744 189 q 731 202 736 189 l 741 228 q 750 244 746 230 q 754 250 754 244 q 757 257 757 250 z "},"R":{"ha":1343,"x_min":0,"x_max":1296,"o":"m 161 637 q 174 615 167 637 l 181 583 l 183 583 l 189 506 l 189 450 l 193 450 l 196 307 l 202 307 q 239 326 202 313 q 248 331 239 331 l 272 346 q 320 387 320 383 l 322 396 l 322 398 l 320 426 q 317 435 317 426 q 311 450 311 443 q 306 465 306 450 l 304 467 q 298 474 303 474 l 298 478 q 304 493 304 478 q 307 511 307 493 l 311 515 l 313 515 l 324 496 q 346 483 324 487 q 376 498 376 488 l 365 524 l 374 561 l 380 561 l 393 526 l 393 513 q 383 469 393 493 l 381 467 q 343 441 371 441 l 339 441 l 337 428 l 337 398 l 333 398 l 333 394 q 304 330 333 350 q 298 313 304 319 l 296 276 q 320 252 301 252 l 324 252 l 324 248 l 337 248 l 337 252 l 339 252 q 411 274 371 252 l 439 293 q 465 315 456 304 q 496 348 474 321 q 502 363 502 350 l 506 363 l 506 374 l 502 374 l 502 376 l 498 419 q 493 439 493 419 l 474 483 l 457 522 q 452 528 457 528 l 452 537 l 456 537 l 456 544 l 459 572 l 463 572 q 487 535 472 569 q 513 467 506 503 q 519 439 516 467 l 522 439 l 522 437 l 528 396 l 531 396 l 531 394 l 539 339 l 541 339 l 541 337 q 559 294 541 304 l 570 289 l 585 289 q 611 309 611 296 l 596 335 l 593 348 q 602 381 594 370 q 620 352 608 381 l 624 348 l 626 320 l 626 319 l 624 287 l 620 287 l 620 280 q 606 256 620 273 q 574 244 588 244 l 544 256 q 522 307 522 276 l 519 307 l 519 309 l 515 343 l 511 343 q 491 302 511 322 q 454 265 491 292 l 435 250 q 409 233 421 237 q 339 207 369 210 l 339 206 l 322 206 q 307 211 322 211 l 296 222 q 285 257 285 236 l 285 278 q 291 319 285 296 l 291 320 l 289 320 q 278 309 289 315 q 246 291 271 300 q 202 269 216 269 l 202 263 l 206 233 l 206 231 q 209 222 209 231 q 246 185 222 194 q 283 169 246 178 q 300 163 295 168 l 343 159 l 348 159 l 348 156 l 465 156 l 465 159 l 467 159 l 544 163 l 544 167 l 546 167 q 630 183 571 167 l 631 185 l 681 198 q 704 206 681 203 q 715 211 704 211 q 726 215 715 215 l 728 220 q 681 246 697 246 l 678 246 l 661 239 l 654 237 l 654 246 q 676 283 668 283 l 711 296 l 726 298 l 767 298 q 843 281 809 298 l 869 269 l 870 269 l 870 256 q 861 241 863 256 l 857 237 q 815 215 857 225 q 802 209 815 212 l 802 207 q 824 191 806 199 q 861 180 839 180 q 896 193 879 180 l 900 198 l 900 209 l 904 209 l 904 248 l 900 248 l 900 250 q 894 354 900 298 l 893 354 q 885 485 888 485 l 883 485 q 874 600 883 584 q 883 630 881 615 q 887 635 887 630 l 889 637 l 891 637 q 917 570 906 613 l 919 569 q 926 541 926 553 l 924 541 q 906 554 914 541 l 909 476 l 913 476 l 913 474 q 919 380 916 380 l 920 378 l 926 252 q 902 161 926 202 q 865 137 881 138 l 857 135 q 802 152 825 135 l 761 185 l 754 189 q 652 152 719 172 q 594 135 641 146 l 593 133 l 557 124 l 556 122 l 480 115 l 480 113 l 420 111 l 380 111 l 330 113 l 330 117 l 328 117 q 248 135 294 117 l 211 157 q 183 219 183 188 l 183 220 l 180 220 l 178 257 l 144 250 l 144 248 l 113 246 l 87 248 l 87 252 q 48 269 63 252 q 22 293 34 273 q 17 298 22 298 l 7 317 q 2 326 7 326 l 0 357 l 0 367 l 2 407 l 6 407 l 6 411 q 19 443 9 443 l 19 441 q 11 409 19 409 l 9 385 l 11 363 l 15 363 l 15 356 q 31 328 15 344 q 69 298 31 318 l 96 294 l 100 294 l 100 291 l 128 291 l 128 294 l 144 294 l 176 300 l 176 311 l 172 311 l 172 313 l 167 528 l 163 528 l 163 530 q 157 563 163 544 l 156 563 l 156 565 l 150 600 q 161 635 155 627 l 161 637 m 304 635 l 307 635 q 311 628 307 628 q 319 593 313 593 l 326 593 l 328 594 l 330 594 q 320 619 320 613 l 320 626 q 326 637 322 637 l 328 637 q 337 606 332 606 l 337 589 q 328 576 333 589 l 317 576 q 307 587 307 583 l 306 587 q 289 570 302 570 q 276 587 281 570 l 274 587 l 274 607 l 270 613 q 283 628 273 628 l 287 624 l 285 594 q 294 587 287 587 q 302 593 294 593 l 304 594 l 304 596 l 302 628 l 304 635 m 739 637 q 770 628 763 637 q 737 580 770 610 q 726 576 737 576 q 713 570 726 570 q 700 567 713 567 l 700 563 l 698 563 l 678 561 q 709 580 678 567 q 726 589 709 586 l 726 593 q 739 602 739 597 l 730 604 l 676 604 q 700 637 676 618 l 739 637 m 950 637 l 957 637 l 967 607 q 991 541 980 579 l 983 541 l 970 554 l 969 554 l 969 544 l 972 544 l 976 448 l 980 448 q 987 315 981 374 l 989 315 l 993 215 l 987 176 q 969 128 981 142 l 967 128 l 969 169 l 963 326 l 959 326 l 959 328 l 956 422 l 952 422 l 946 570 l 943 570 l 943 587 l 939 602 l 950 637 m 1113 630 l 1115 630 l 1122 622 l 1124 622 l 1124 609 q 1117 596 1119 609 q 1106 589 1111 596 q 1074 580 1074 587 l 1074 576 l 1069 576 l 1069 583 l 1070 585 l 1070 587 q 1067 593 1067 587 l 1065 593 q 1046 578 1065 581 l 1030 580 l 1015 570 l 1015 578 q 1030 596 1015 589 l 1031 598 l 1031 600 l 1041 600 l 1041 596 l 1057 596 l 1057 609 q 1052 617 1053 609 q 1061 628 1054 628 l 1061 626 q 1074 606 1069 606 l 1076 604 q 1113 630 1107 630 m 1085 602 l 1089 602 q 1113 613 1113 606 l 1102 613 l 1085 602 m 26 593 l 31 593 l 31 587 q 26 572 26 587 q 22 557 22 572 l 19 557 l 19 556 q 13 524 15 524 l 11 524 l 11 511 q 17 500 17 511 l 19 498 l 30 498 q 41 517 41 511 l 44 517 l 44 515 q 24 469 44 491 l 13 469 q 0 496 0 477 l 0 502 l 2 535 q 11 563 6 535 q 19 580 16 563 q 22 585 22 580 q 26 593 26 585 m 567 580 l 572 580 q 598 546 598 557 q 604 509 603 546 l 604 506 q 596 483 604 497 l 593 483 l 594 502 l 594 513 q 583 541 594 521 q 563 561 567 561 l 561 561 l 561 570 q 567 580 567 570 m 246 559 l 246 556 q 239 535 243 538 l 235 504 l 235 500 l 237 491 l 239 491 q 254 504 254 491 l 257 504 q 243 469 250 469 q 224 483 228 469 l 222 483 l 222 500 l 226 500 l 226 511 q 246 559 228 534 m 863 544 l 863 543 q 837 522 863 529 q 770 496 797 504 l 683 465 q 667 457 683 460 l 635 443 l 635 446 q 643 465 643 456 l 696 483 q 820 530 799 524 q 857 544 824 534 l 863 544 m 1156 530 l 1167 530 l 1172 511 l 1169 507 q 1161 515 1161 507 l 1156 515 l 1143 467 q 1152 459 1143 459 q 1163 441 1163 447 q 1144 426 1163 426 q 1130 422 1144 424 l 1128 413 q 1137 369 1137 384 l 1137 356 l 1141 356 l 1141 343 l 1137 343 l 1137 337 l 1135 324 l 1133 324 l 1133 348 l 1130 348 l 1130 356 q 1120 406 1127 406 l 1120 428 q 1126 437 1126 428 l 1124 439 l 1124 441 q 1135 463 1126 456 l 1135 465 l 1120 500 l 1119 498 l 1111 498 q 1100 513 1100 503 q 1107 524 1107 520 l 1119 524 q 1126 517 1119 517 l 1135 493 l 1135 487 l 1137 487 q 1146 520 1144 502 l 1150 520 q 1156 530 1151 530 m 100 456 l 102 456 q 117 448 103 448 q 124 443 117 443 q 137 431 129 431 q 119 396 125 396 q 109 402 119 400 l 109 406 q 98 413 102 406 l 83 420 l 100 456 m 1133 444 q 1128 441 1133 441 l 1128 435 l 1130 435 q 1141 443 1131 443 l 1141 444 l 1133 444 m 806 428 q 817 413 817 424 l 815 402 l 811 402 q 804 409 811 406 l 798 409 q 791 389 795 389 q 778 356 791 356 l 778 357 q 765 396 770 388 l 761 396 l 761 393 l 756 393 q 746 402 756 398 l 746 406 l 744 406 q 754 420 744 411 l 754 422 l 761 422 q 770 415 761 418 l 780 394 l 780 385 l 785 385 l 785 391 q 806 428 790 428 m 424 406 l 430 406 l 430 402 q 454 385 436 402 l 463 381 l 463 380 q 456 363 458 380 q 446 348 451 363 l 444 348 l 443 350 l 413 369 l 409 369 l 400 346 q 363 370 395 346 l 376 402 l 378 402 q 398 391 385 402 q 411 383 405 391 l 415 383 l 424 406 m 1035 396 l 1041 396 q 1050 391 1041 391 q 1074 372 1052 384 l 1074 369 q 1059 339 1069 369 l 1057 339 q 1019 363 1051 339 l 1019 365 q 1024 374 1024 365 l 1035 396 m 1209 396 l 1222 396 l 1222 393 q 1235 380 1227 393 q 1244 344 1244 364 l 1244 328 l 1243 300 q 1226 272 1238 300 q 1217 265 1222 272 q 1180 241 1196 248 l 1180 233 l 1178 224 l 1172 224 l 1170 237 q 1135 228 1154 228 l 1133 230 l 1133 194 l 1130 194 l 1130 193 q 1120 148 1130 160 q 1094 126 1120 140 q 1063 104 1094 121 l 1022 83 q 972 65 984 65 l 969 65 q 948 57 969 57 q 922 46 948 52 l 863 30 l 861 28 q 774 13 846 28 l 772 11 l 687 4 l 687 2 l 619 0 l 502 0 l 443 2 l 443 6 l 441 6 l 378 11 l 376 11 l 376 15 l 374 15 q 339 22 339 17 q 250 43 323 22 q 183 72 209 55 q 85 143 146 93 q 57 170 66 155 l 57 172 l 61 172 q 81 163 68 172 q 174 117 153 125 l 202 107 q 337 67 216 96 q 356 63 356 66 l 356 61 q 393 56 393 58 l 393 54 l 456 48 l 456 44 l 543 43 l 578 43 l 670 44 l 670 48 l 770 54 l 770 57 l 772 57 q 813 63 813 60 l 815 65 q 878 76 841 65 l 950 94 l 1007 115 l 1074 146 l 1076 148 q 1117 178 1102 160 l 1119 180 l 1119 181 l 1117 204 q 1113 213 1113 204 q 1109 230 1111 213 l 1098 257 l 1094 257 l 1094 270 l 1098 270 l 1098 272 l 1104 300 l 1111 300 q 1141 272 1120 272 l 1148 272 l 1167 274 l 1167 293 q 1176 344 1167 333 l 1189 376 q 1202 389 1189 379 q 1209 393 1202 393 l 1209 396 m 1204 354 q 1196 348 1204 348 q 1187 331 1196 342 q 1178 291 1178 304 l 1178 283 l 1176 281 l 1176 280 l 1178 280 q 1207 294 1185 280 l 1228 307 l 1228 309 q 1213 354 1228 334 l 1204 354 m 748 257 l 748 256 l 765 243 l 767 241 q 770 235 770 241 l 772 235 l 802 246 l 807 248 l 807 252 l 778 257 l 748 257 m 20 239 l 30 239 q 35 224 35 238 l 35 219 q 17 189 35 203 q 2 174 17 182 l 2 172 l 0 172 l 0 178 q 24 213 17 198 l 22 219 l 7 219 l 7 213 l 6 213 l 6 219 q 20 239 6 239 m 544 239 q 565 230 551 239 q 570 222 568 230 q 583 213 580 222 l 569 183 l 569 181 l 561 181 q 552 191 561 187 q 537 198 552 194 q 533 204 537 204 q 522 180 522 188 l 519 180 q 483 202 492 202 l 498 237 l 500 237 q 513 230 506 237 q 533 217 519 230 l 533 215 l 535 215 l 544 239 m 1226 206 l 1228 206 l 1228 202 l 1220 174 q 1215 167 1220 167 l 1215 137 l 1224 135 q 1235 150 1235 144 l 1239 150 l 1239 148 q 1219 115 1233 115 l 1219 113 l 1215 113 q 1206 120 1215 120 l 1204 139 l 1206 163 q 1209 172 1209 163 l 1226 206 m 746 163 q 752 156 747 156 l 752 152 q 746 144 746 152 l 744 143 l 743 143 l 743 146 l 741 146 q 730 141 730 145 q 741 135 731 135 q 761 146 749 135 l 763 146 l 763 144 q 737 113 763 131 l 726 98 l 726 96 q 739 85 726 85 l 756 87 l 761 87 q 780 93 761 93 l 778 91 q 765 83 778 83 q 743 74 765 74 l 731 74 q 719 81 722 74 l 719 94 q 730 119 719 100 l 728 120 q 720 131 720 122 l 720 141 q 746 163 741 163 m 1296 85 l 1296 83 q 1274 65 1296 65 q 1248 54 1274 60 l 1194 31 l 1187 28 q 1169 19 1169 22 l 1161 19 l 1167 31 q 1189 44 1167 44 q 1215 54 1189 50 q 1233 61 1215 59 l 1235 63 q 1296 85 1289 85 z "},"S":{"ha":1429,"x_min":0,"x_max":1383,"o":"m 545 741 l 551 741 l 537 691 q 213 527 446 691 l 159 478 l 159 473 l 168 473 l 339 488 l 345 443 q 233 260 309 443 q 209 240 220 240 l 206 240 l 183 255 q 159 195 183 195 q 118 280 138 195 l 115 280 q 62 66 115 108 q 32 51 47 51 l 30 51 q 0 86 13 51 l 0 91 q 26 71 16 71 l 30 71 q 80 141 64 71 q 86 205 86 163 l 86 289 q 124 334 88 301 q 147 240 124 240 l 147 235 q 162 255 161 244 l 162 285 q 156 339 162 320 l 186 369 q 206 289 186 323 l 218 289 q 298 448 237 308 l 295 448 l 127 433 q 162 532 133 496 q 398 691 243 616 q 545 741 499 741 m 666 736 l 666 731 q 640 696 666 703 l 640 691 l 663 691 l 663 686 q 616 631 663 631 l 616 637 q 643 662 616 662 l 637 671 l 622 671 l 622 676 q 646 721 622 721 q 666 736 646 729 m 1185 736 l 1182 701 l 1182 592 q 1200 388 1182 469 l 1203 388 q 1244 592 1203 551 l 1265 607 q 1297 498 1281 574 q 1371 721 1316 510 l 1383 736 l 1383 691 l 1324 488 l 1306 453 l 1309 349 q 1253 175 1309 216 q 1168 433 1209 175 l 1165 433 l 1165 428 l 1170 285 q 1106 51 1170 51 q 1047 150 1071 51 l 1047 181 q 1094 275 1056 275 l 1097 269 l 1097 265 q 1058 200 1058 259 q 1114 96 1070 96 q 1162 285 1162 96 q 1156 513 1162 470 l 1162 706 l 1185 736 m 956 731 l 958 731 l 958 726 q 935 369 935 478 l 935 349 q 982 185 935 206 l 988 185 q 1050 294 1017 185 l 991 280 q 973 329 973 280 q 1076 557 973 460 l 1097 562 l 1109 562 l 1129 557 q 1088 428 1129 455 l 1050 399 l 1050 404 q 1082 468 1050 454 q 1114 513 1114 500 l 1112 513 q 994 394 1042 513 q 985 344 985 368 l 985 334 l 1006 329 l 1020 329 q 1124 413 1040 329 l 1135 419 q 1109 344 1129 362 q 1014 185 1084 344 q 973 156 994 156 l 964 156 q 914 309 925 156 l 914 349 l 932 701 l 956 731 m 643 617 q 584 86 613 252 l 560 81 l 560 86 l 619 617 l 643 622 l 643 617 m 1238 557 q 1230 448 1230 495 l 1232 369 l 1212 324 q 1265 205 1231 258 q 1286 309 1286 231 l 1282 423 l 1262 419 l 1256 468 l 1274 473 q 1238 562 1256 562 l 1238 557 m 764 547 l 769 488 l 769 419 q 696 96 769 215 q 646 62 666 62 l 637 62 l 637 66 q 722 240 699 66 q 652 131 684 131 l 634 131 l 631 136 l 631 141 q 728 527 631 416 l 764 547 m 563 518 l 563 483 q 540 443 563 443 l 528 443 q 554 508 528 508 l 563 518 m 657 165 q 711 304 686 181 q 740 344 740 304 l 743 433 l 740 508 l 737 508 q 663 275 701 508 l 657 165 m 507 498 l 510 498 l 510 483 q 416 404 497 404 l 416 428 q 422 453 417 453 q 507 498 504 462 m 829 453 q 902 260 873 414 l 911 175 q 881 96 896 107 q 805 225 831 96 l 802 225 q 749 51 777 51 q 728 37 749 43 l 725 37 l 725 42 q 773 185 747 42 l 793 399 l 829 453 m 371 413 q 401 364 401 410 l 392 220 q 407 185 394 185 q 439 324 432 185 q 487 354 439 342 l 478 215 q 504 165 482 165 q 537 379 522 213 l 563 394 l 563 379 q 510 150 553 150 q 472 245 472 150 l 481 344 q 457 215 468 344 q 404 150 432 150 l 381 165 l 383 161 l 383 156 q 330 51 369 51 l 325 51 q 283 136 292 51 q 200 56 244 56 l 194 56 l 194 62 q 306 334 241 62 q 371 413 340 413 m 817 404 l 808 304 l 811 309 l 817 309 q 890 146 837 146 l 890 150 q 829 388 890 252 l 817 404 m 292 195 q 336 101 303 101 l 339 101 q 366 141 366 101 l 366 156 q 342 225 366 197 q 363 275 356 275 l 366 275 q 375 250 368 250 q 389 369 389 310 q 371 388 386 388 q 292 195 315 388 m 242 235 l 248 185 q 221 146 248 161 l 215 205 l 242 235 m 174 126 l 177 96 l 177 91 l 118 46 q 97 2 97 13 l 94 2 l 91 22 q 174 131 91 90 l 174 126 z "},"T":{"ha":1343,"x_min":0,"x_max":1296,"o":"m 1296 863 l 1296 857 q 1191 683 1296 812 l 1146 635 q 1170 607 1165 635 q 1130 544 1163 544 l 1122 543 l 1107 543 l 1107 539 q 1074 341 1107 408 q 943 235 1022 235 q 872 285 890 235 l 867 317 q 915 454 867 377 l 917 456 l 919 456 l 920 454 l 920 452 q 887 356 888 386 q 930 302 887 316 l 952 298 l 969 298 q 1072 381 1036 298 q 1085 578 1085 408 l 1087 633 q 1117 694 1110 693 l 1117 691 l 1111 628 q 1237 770 1192 707 q 1294 863 1282 830 l 1296 863 m 687 759 l 689 757 l 689 754 l 680 746 l 678 744 l 681 733 q 665 717 679 717 l 659 719 l 659 724 q 674 733 674 724 l 672 746 q 687 759 678 759 m 774 730 q 802 702 802 720 l 802 689 q 780 611 802 658 q 728 572 767 584 l 693 563 l 691 565 l 691 567 l 756 615 q 772 643 772 634 l 772 644 l 767 644 l 759 643 q 735 663 738 643 q 765 726 736 683 l 774 730 m 298 728 q 319 704 319 715 l 319 700 q 298 670 310 670 l 278 691 q 298 728 292 724 m 465 728 l 465 726 q 433 680 465 712 q 341 628 353 638 l 324 609 l 324 607 l 333 606 l 346 606 q 404 611 372 606 l 404 609 q 376 572 404 590 q 293 489 302 489 l 281 487 l 267 489 q 154 396 209 489 q 89 330 126 358 q 2 280 30 286 l 0 281 l 0 283 q 70 337 6 292 q 165 456 131 395 q 257 539 210 519 q 289 546 276 546 l 322 546 q 359 583 329 548 l 359 585 l 357 585 l 337 587 l 313 585 l 304 585 l 298 591 q 419 702 325 659 l 465 728 m 613 728 l 615 728 q 635 704 635 715 l 635 702 q 617 670 635 684 l 594 691 l 613 728 m 704 728 l 704 726 q 678 569 693 593 q 648 513 666 538 l 644 513 l 643 519 q 670 659 663 574 q 704 728 694 721 m 907 728 l 911 728 l 911 726 q 893 570 893 605 l 893 565 q 915 526 893 533 l 926 526 q 944 569 931 530 q 993 609 966 609 q 1011 598 1011 606 l 1011 593 l 1004 583 l 983 587 q 952 557 961 587 l 952 554 q 976 537 961 537 q 1017 580 991 539 l 1020 580 l 1020 576 q 915 465 980 465 q 869 519 869 471 l 867 528 q 893 689 885 689 l 907 728 m 513 659 q 528 646 513 656 l 533 631 q 515 602 524 605 l 513 602 l 491 620 q 513 659 506 657 m 554 659 l 557 659 l 574 643 l 574 631 q 557 606 574 619 l 554 606 l 533 620 q 554 659 548 659 m 1111 589 l 1111 587 q 1133 576 1118 576 q 1152 594 1152 582 l 1152 598 q 1131 609 1145 609 q 1111 589 1111 603 m 628 598 l 633 598 l 633 587 q 596 543 617 551 l 572 548 q 520 519 542 548 q 559 496 533 519 l 559 491 q 520 437 547 450 q 419 394 445 420 q 369 196 379 379 l 357 13 q 354 0 355 13 l 352 0 l 348 63 l 348 157 q 463 463 348 404 q 511 531 475 473 q 589 581 559 581 l 607 576 q 628 598 628 588 m 787 556 l 793 556 q 841 537 841 550 l 841 533 q 817 487 841 512 q 752 463 805 477 q 685 400 699 438 q 659 180 668 351 l 657 128 l 656 126 l 656 124 l 657 124 l 656 119 q 650 57 656 85 l 648 57 l 644 124 l 644 189 q 709 467 644 399 q 765 511 730 490 l 787 556 m 428 550 q 450 524 450 536 q 431 493 441 493 q 409 511 419 499 l 409 515 l 428 550 m 254 430 l 256 430 q 278 404 278 416 q 259 372 275 389 l 235 391 l 254 430 m 215 428 q 235 398 235 413 q 217 370 227 378 q 194 389 205 376 l 194 394 q 215 428 211 427 z "},"U":{"ha":1333,"x_min":0,"x_max":1287,"o":"m 426 544 l 431 544 l 435 541 l 435 535 l 433 533 l 433 531 l 431 533 l 426 533 l 420 528 q 431 522 422 522 l 446 535 l 448 535 q 419 498 447 524 l 419 502 l 422 513 q 413 519 413 514 l 413 528 q 426 544 421 542 m 467 539 q 493 456 493 467 l 491 456 q 480 469 480 463 l 476 469 l 478 450 l 478 441 l 480 439 l 480 437 l 478 437 l 480 435 l 480 433 l 487 300 l 520 326 q 511 443 511 409 l 511 452 l 509 470 l 511 470 l 509 472 l 509 483 l 506 513 l 515 539 q 544 459 524 529 l 543 457 l 541 457 l 528 470 l 528 469 q 537 343 528 426 l 569 363 l 567 370 l 559 506 l 569 539 q 596 446 574 539 l 596 439 q 583 456 583 449 l 581 456 l 581 454 l 585 372 q 622 385 607 385 q 615 413 617 396 q 654 485 615 455 l 663 489 q 685 454 669 489 q 711 443 698 443 l 719 443 q 735 457 733 443 l 720 487 q 730 513 724 513 q 746 465 746 494 l 746 463 q 720 409 746 424 q 707 359 709 379 q 735 330 707 330 q 793 372 756 330 q 774 513 793 448 q 785 539 781 539 q 806 411 806 493 l 806 402 l 807 389 q 924 465 874 451 q 913 491 913 484 l 913 498 q 943 528 917 528 q 996 494 966 526 l 1000 487 q 978 456 994 456 l 946 446 l 946 435 l 943 431 q 937 443 937 433 q 839 387 868 415 l 807 357 q 830 265 807 265 l 835 261 l 835 263 q 819 311 819 285 q 887 378 819 371 q 954 348 925 378 l 952 348 l 913 356 l 911 356 q 835 333 864 356 l 835 324 q 876 265 835 294 l 893 261 l 909 261 q 987 306 928 261 l 987 304 q 896 228 987 265 l 865 224 q 796 293 796 224 l 794 337 l 793 339 l 791 339 q 741 304 763 304 l 739 304 q 713 319 713 311 q 700 350 700 333 l 700 361 q 713 409 700 379 q 663 452 677 409 l 657 456 q 626 422 644 456 l 626 419 q 681 372 626 398 l 683 370 l 683 369 l 680 343 l 674 343 q 633 354 658 354 l 630 354 q 587 341 600 354 l 598 119 l 598 94 q 583 13 598 61 l 580 13 l 581 54 l 581 56 l 583 57 l 583 59 l 581 59 l 583 61 l 569 331 l 567 331 q 539 309 544 318 l 539 294 l 541 285 l 539 285 l 541 283 l 541 281 q 515 163 541 183 l 513 161 l 511 161 q 541 148 512 158 q 559 120 559 137 q 524 61 557 95 q 381 0 432 0 l 372 0 q 311 56 331 0 l 309 81 l 309 83 l 307 85 l 309 87 l 309 102 q 228 13 276 74 q 198 0 211 0 l 193 0 q 156 52 156 11 l 156 54 q 181 133 156 79 l 183 161 l 183 176 q 107 159 129 159 l 72 159 q 4 204 20 159 l 0 226 q 20 291 0 256 l 22 291 l 22 289 l 9 244 l 9 231 q 41 200 9 214 q 104 191 69 191 q 181 204 134 191 l 180 259 l 161 259 q 120 311 127 259 l 119 322 q 128 383 122 363 q 96 285 114 373 q 80 265 86 268 l 72 265 q 39 337 44 265 l 46 381 l 44 381 l 22 376 l 13 376 q 0 389 0 376 q 37 424 0 397 l 39 426 l 39 430 q 24 439 29 430 l 24 444 q 33 474 28 474 l 35 476 l 37 476 q 74 443 74 460 q 65 424 74 433 l 44 428 l 44 426 q 7 394 35 406 l 6 393 l 6 391 l 15 389 l 20 389 q 70 396 37 389 q 50 383 61 387 l 46 341 q 69 289 46 289 l 74 289 q 104 372 88 289 q 139 422 123 422 l 141 420 l 141 404 l 131 333 l 131 328 q 167 291 136 291 q 176 294 176 291 l 163 491 l 161 496 l 159 496 q 172 526 168 526 q 198 452 198 464 l 196 452 q 185 463 190 452 l 183 463 l 183 461 l 194 300 l 196 300 q 219 344 219 316 q 204 415 219 384 q 217 450 211 450 q 243 337 232 415 q 283 300 257 300 l 285 300 q 309 313 300 300 q 278 406 278 379 l 270 431 l 278 456 l 280 456 q 309 409 306 428 l 306 409 l 294 415 q 319 320 319 347 q 283 265 319 272 l 280 265 q 226 324 242 265 l 224 324 q 196 269 224 292 l 200 211 l 202 211 q 294 243 276 243 q 311 224 309 243 q 256 144 311 205 q 241 120 256 138 q 293 206 241 145 l 293 211 l 287 211 q 200 181 277 211 q 167 74 200 171 l 165 65 l 165 46 q 185 26 169 26 l 191 26 q 276 106 215 26 q 315 141 315 137 q 343 198 327 186 l 343 196 l 324 143 l 417 185 l 426 196 l 426 202 q 385 219 417 219 l 367 219 q 344 241 344 224 l 344 256 q 381 298 359 298 q 431 250 408 298 l 437 213 q 322 111 437 156 l 320 109 l 320 94 q 339 54 320 75 q 383 35 356 35 l 391 35 q 544 106 448 35 l 544 107 q 454 139 528 119 l 450 144 q 478 178 450 178 l 520 196 l 524 207 l 524 241 l 522 296 q 489 265 489 273 q 472 191 489 236 l 470 191 l 470 193 l 472 246 l 472 261 l 454 261 q 420 298 432 261 l 419 307 l 419 311 q 448 396 419 348 l 448 394 l 428 324 l 428 307 q 452 285 428 288 l 470 289 l 457 498 q 454 509 454 498 q 467 539 463 539 m 635 539 l 661 522 l 661 520 q 648 496 660 508 l 646 496 q 622 511 627 511 l 613 493 l 585 513 l 598 537 l 624 520 l 626 520 q 635 539 630 538 m 685 539 l 687 539 l 715 520 l 704 496 l 698 496 l 674 515 l 685 539 m 915 539 l 917 539 l 917 537 q 898 520 917 526 l 817 476 l 817 478 q 841 500 817 492 l 915 539 m 1194 539 q 1202 528 1202 537 l 1200 506 l 1206 500 l 1196 463 l 1196 452 q 1204 446 1196 446 q 1213 457 1209 446 l 1215 457 l 1215 456 q 1202 431 1209 431 l 1196 431 q 1189 448 1191 431 l 1198 489 l 1193 493 q 1113 444 1158 455 l 1111 444 l 1178 487 l 1185 496 q 1170 515 1170 503 q 1194 539 1170 530 m 246 526 l 248 526 l 257 498 q 244 478 253 478 l 233 487 q 219 476 229 476 q 209 491 209 480 l 209 506 l 206 506 l 206 511 l 213 519 l 215 519 l 215 498 q 222 487 215 487 q 231 498 228 487 l 228 520 l 233 524 q 244 491 239 491 l 248 491 l 252 494 l 243 515 l 246 526 m 398 526 l 398 524 q 337 485 398 513 l 300 463 l 298 463 q 319 485 298 479 l 398 526 m 1180 519 q 1193 511 1188 511 l 1193 520 l 1189 524 l 1185 524 l 1180 519 m 924 496 l 924 494 l 935 470 q 965 483 964 479 q 930 496 941 496 l 924 496 m 1089 489 q 1098 474 1098 484 l 1096 469 l 1093 469 l 1081 474 l 1065 422 l 1063 420 l 1061 420 q 1046 461 1061 436 l 1044 459 l 1035 459 l 1035 463 q 1030 467 1030 463 q 1041 483 1033 483 q 1063 444 1063 470 l 1067 444 q 1089 489 1071 489 m 369 465 l 369 463 l 363 444 l 365 444 q 380 420 380 433 q 357 393 380 399 q 344 406 348 393 q 365 465 350 440 l 369 465 m 30 444 l 41 441 l 44 441 l 44 452 q 39 456 44 456 q 30 444 30 453 m 52 454 l 50 439 l 67 437 l 67 439 q 52 454 62 449 m 1272 435 q 1287 420 1287 433 l 1287 415 q 1231 333 1287 392 l 1226 320 l 1224 320 l 1224 326 q 1270 394 1226 343 l 1272 402 l 1261 406 q 1109 348 1232 406 q 1026 296 1038 311 q 1069 274 1069 279 l 1069 270 l 1052 270 q 1148 206 1066 253 q 1180 157 1180 180 q 1089 70 1180 98 l 1069 69 l 1063 69 q 1020 115 1025 69 l 1019 128 l 1017 128 q 969 57 1017 87 q 865 0 926 18 l 843 0 q 787 54 802 0 l 783 80 l 783 96 q 787 120 783 112 l 785 120 q 706 59 737 71 q 691 0 700 23 l 687 0 l 689 31 l 689 54 l 676 52 q 626 91 639 52 l 622 117 q 639 193 622 146 l 641 193 l 641 187 q 631 137 631 150 l 631 124 q 663 87 631 96 l 680 85 l 687 85 q 672 283 676 275 l 670 285 l 680 313 l 685 313 q 709 243 709 250 l 709 239 l 694 250 l 694 248 l 706 93 q 783 144 727 95 q 804 170 801 163 q 748 185 804 183 q 733 207 733 197 l 733 213 q 765 259 733 241 l 772 259 q 802 233 788 259 q 815 185 815 211 l 815 181 q 794 128 815 154 l 791 96 q 831 35 791 48 l 841 33 l 861 33 q 993 104 906 33 q 1011 139 1011 124 l 1011 220 q 994 389 1011 288 l 1000 420 l 1002 420 q 1022 322 1010 420 l 1024 322 q 1113 376 1056 349 q 1272 435 1241 435 m 356 430 l 352 415 l 352 409 l 357 407 l 374 415 l 374 420 q 356 430 361 430 m 380 365 q 406 344 406 351 q 393 322 406 335 l 370 337 l 367 337 q 357 320 367 331 q 331 341 331 334 l 343 363 l 367 348 l 369 348 l 380 365 m 15 356 l 17 356 l 17 354 q 7 309 7 325 q 13 302 10 302 l 17 302 q 24 313 24 306 l 26 313 l 26 311 q 11 287 22 287 l 9 287 q 0 306 0 291 q 15 356 0 320 m 656 337 l 663 337 l 665 330 l 663 324 l 654 326 l 648 319 l 654 315 l 656 315 q 676 328 663 315 l 676 320 l 646 289 l 646 296 l 652 306 q 641 311 642 306 l 641 313 q 656 337 641 325 m 1185 309 l 1185 307 q 1178 270 1178 286 l 1178 269 l 1180 259 l 1181 259 q 1193 269 1193 259 l 1194 269 l 1194 263 q 1180 244 1190 244 q 1170 257 1170 247 l 1170 265 q 1185 309 1170 289 m 631 285 l 631 283 q 622 244 622 259 q 628 233 624 233 l 630 233 q 639 244 639 238 l 641 244 l 641 241 q 628 219 641 228 l 624 219 l 617 226 l 617 248 q 631 285 623 279 m 365 261 l 365 257 q 402 248 365 250 q 380 265 389 265 l 369 265 l 365 261 m 1028 265 l 1028 263 q 1050 104 1028 104 q 1070 100 1057 100 q 1170 152 1119 100 q 1072 222 1170 162 q 1030 265 1030 256 l 1028 265 m 750 224 l 750 220 q 763 213 753 213 l 785 213 q 763 230 776 230 l 761 230 q 750 224 750 229 m 924 211 l 928 207 l 928 202 l 922 196 l 920 198 l 920 200 q 911 191 915 200 l 922 185 l 937 196 l 939 196 l 939 194 q 911 161 939 187 l 907 150 l 909 144 l 931 144 l 952 148 q 928 135 952 142 l 915 133 q 902 143 903 137 l 902 146 q 913 174 902 159 l 904 181 l 904 191 q 924 211 919 211 m 72 130 l 74 130 q 98 111 95 117 q 85 87 97 99 l 59 106 l 59 107 l 72 130 m 407 130 l 409 130 l 409 128 q 402 89 402 103 q 407 78 402 82 l 419 87 l 419 83 q 404 65 419 67 l 402 65 q 394 78 394 68 l 394 83 q 407 130 394 101 m 850 122 q 859 111 859 122 q 833 72 859 94 l 831 72 l 831 74 q 850 102 850 94 l 850 104 q 844 107 850 107 l 835 106 q 850 122 835 120 m 291 67 l 293 67 l 293 65 q 283 24 283 35 q 289 15 285 15 l 293 15 l 302 24 l 302 20 q 291 0 296 0 l 281 0 l 278 7 l 278 28 q 291 67 278 38 m 756 52 l 763 52 q 769 41 767 52 q 739 0 769 22 l 739 2 q 759 33 759 23 l 756 39 l 744 35 l 744 37 q 756 52 749 50 m 1017 52 l 1020 52 q 1026 43 1024 52 q 996 0 1026 21 l 996 2 q 1017 33 1017 23 l 1011 39 l 1002 35 l 1002 37 q 1017 52 1006 52 m 559 44 l 563 44 l 563 33 l 559 30 l 559 33 l 552 33 l 546 28 q 557 22 546 24 l 574 31 l 574 26 q 539 0 574 23 l 539 6 l 546 15 q 537 22 541 15 q 559 44 545 44 z "},"V":{"ha":1043,"x_min":0,"x_max":996,"o":"m 689 996 l 691 996 q 746 930 706 996 q 798 839 766 905 l 798 830 l 796 830 q 769 880 793 830 q 711 961 734 940 q 726 865 726 897 q 659 704 726 776 l 659 706 l 678 748 q 704 887 704 829 l 704 911 q 689 993 704 944 l 689 996 m 402 874 q 411 848 411 860 l 391 806 l 391 796 l 393 796 q 426 806 402 796 l 433 806 q 457 761 452 806 q 409 704 457 727 l 407 704 l 407 706 q 446 765 446 747 l 446 772 l 444 774 l 439 774 l 404 763 l 396 763 q 378 811 378 785 l 378 824 q 400 874 378 837 l 402 874 m 507 785 l 511 785 q 565 689 531 776 q 665 483 619 553 q 694 513 669 483 l 694 509 q 670 476 689 495 q 730 420 693 436 l 731 420 q 754 459 754 446 q 637 678 670 607 q 604 767 606 730 l 604 778 l 607 781 q 661 676 648 696 q 665 670 665 676 l 670 669 l 669 681 l 669 691 q 706 728 673 728 q 757 665 747 728 l 757 657 q 709 611 757 616 l 693 611 l 761 480 q 765 469 763 480 l 815 515 q 769 546 775 515 l 767 557 l 767 565 q 783 600 767 592 q 826 613 806 613 l 837 613 q 880 576 863 613 l 883 576 q 930 613 904 587 l 950 631 l 954 617 l 954 606 q 894 543 954 591 l 889 535 l 891 469 l 893 467 l 891 465 l 889 465 q 878 524 881 524 l 876 524 q 778 437 860 524 l 778 435 q 789 409 785 409 q 870 424 837 424 l 878 424 q 991 350 957 424 q 996 319 996 335 l 996 294 q 948 176 996 245 q 824 106 882 106 l 817 106 q 744 130 777 106 q 646 89 689 89 q 593 102 627 89 l 561 83 q 644 44 573 65 q 861 22 791 22 l 865 22 l 915 24 l 917 22 l 917 20 q 674 0 819 0 q 439 30 560 0 q 369 69 397 45 l 365 74 l 363 72 l 359 72 q 350 85 359 82 q 281 56 308 56 l 270 56 q 178 83 223 56 l 178 81 q 120 31 156 50 q 11 6 81 13 l 0 7 l 0 9 q 124 69 60 20 q 157 106 157 99 q 126 211 126 154 l 126 235 q 154 331 126 264 l 220 419 l 244 448 l 241 452 q 176 426 225 452 l 159 422 l 150 422 q 144 437 144 424 l 144 439 q 202 541 144 492 q 272 587 248 587 q 315 550 315 582 l 315 544 q 307 504 315 520 l 304 504 l 304 519 q 276 552 297 552 l 269 552 q 174 481 234 552 l 159 457 l 167 457 q 222 480 176 457 l 239 483 l 246 483 q 257 467 257 478 l 257 456 q 180 330 257 416 q 133 228 133 267 q 169 131 133 175 l 174 130 q 200 274 200 154 q 259 350 200 304 q 267 330 263 350 l 263 309 q 302 285 263 293 q 330 331 309 289 l 370 387 q 346 450 346 424 q 385 528 346 492 q 406 537 397 537 l 437 526 q 452 561 445 526 l 456 561 l 459 519 l 459 511 q 443 491 459 497 q 407 502 417 502 l 406 502 q 365 448 384 502 l 361 428 q 367 420 364 420 q 415 461 397 420 q 431 428 431 452 q 389 357 431 410 q 343 287 343 302 q 404 235 385 287 l 407 220 q 380 124 393 149 l 363 98 l 374 83 q 472 135 437 112 q 424 235 426 202 l 422 254 q 509 431 422 342 q 519 444 519 440 q 435 669 435 661 l 437 680 l 435 696 l 443 702 q 472 620 459 685 l 535 463 l 541 463 l 557 483 l 557 489 q 539 535 539 509 l 541 537 l 556 530 q 583 557 569 530 l 587 557 q 606 519 606 545 q 548 424 606 483 l 554 400 q 650 470 640 460 l 650 472 q 552 676 618 525 l 511 746 l 507 759 l 507 785 m 685 659 q 702 648 690 648 l 707 648 q 739 681 739 648 q 726 691 736 691 l 720 691 q 685 659 685 679 m 407 667 l 407 657 q 370 604 407 615 q 331 594 349 604 l 331 598 q 356 635 331 635 q 402 663 387 642 l 407 667 m 419 622 l 420 622 q 446 607 443 622 q 437 580 441 580 l 413 589 l 413 594 l 419 622 m 781 559 q 802 550 790 550 q 863 567 833 550 l 863 569 q 833 581 863 574 q 781 559 798 581 m 130 572 l 161 561 q 152 528 161 542 q 122 541 122 536 l 122 546 l 130 572 m 304 469 q 330 457 330 461 l 330 454 q 319 428 330 441 q 293 439 293 434 l 293 443 q 304 469 298 469 m 654 461 q 583 411 636 445 l 559 389 q 570 311 570 338 q 543 178 570 247 q 593 141 568 150 q 630 189 616 160 q 652 278 652 236 l 652 291 q 641 330 652 306 q 624 320 631 320 l 619 320 q 598 361 598 320 l 598 363 q 615 391 598 391 q 650 348 637 391 q 665 254 665 298 q 626 130 665 188 l 626 128 l 628 126 l 644 126 q 720 152 675 126 q 687 272 687 204 q 715 394 687 331 q 656 461 681 419 l 654 461 m 757 411 l 770 409 l 772 409 l 769 422 l 767 422 l 757 411 m 448 237 l 448 230 q 480 148 448 193 l 481 148 q 515 180 504 162 q 500 250 506 204 q 526 357 511 357 l 541 381 q 531 406 537 406 q 478 341 512 392 q 448 237 448 283 m 794 374 q 809 267 809 308 l 809 254 q 776 163 809 207 l 767 148 q 824 139 794 139 q 939 204 870 139 q 987 293 987 268 l 987 298 q 915 383 987 357 q 861 391 879 391 l 794 374 m 731 383 q 698 281 698 328 l 698 270 q 737 169 698 206 q 770 211 759 186 q 796 285 796 246 q 783 372 796 327 q 731 383 760 372 m 543 369 q 511 270 511 316 q 531 202 517 207 l 533 202 q 559 298 559 256 l 559 300 q 546 369 559 330 l 543 369 m 213 231 l 213 198 q 196 109 213 138 q 281 89 239 89 q 330 106 313 89 q 293 209 293 154 l 294 252 q 257 283 273 252 l 256 293 l 256 306 q 213 231 213 281 m 330 252 q 320 196 320 226 q 348 115 320 157 q 394 193 381 147 l 394 194 q 348 252 394 234 l 330 252 m 283 178 l 289 170 q 270 130 285 142 q 224 113 241 113 l 224 120 l 243 152 q 283 178 260 152 m 498 128 q 539 96 531 98 q 565 115 551 101 l 565 117 l 526 156 l 498 128 m 383 80 q 687 9 446 9 l 748 9 q 824 15 793 9 l 824 17 l 819 17 q 583 56 686 17 l 550 76 q 444 56 481 56 l 441 59 q 483 70 441 63 q 528 93 517 82 l 487 122 q 385 83 432 90 l 383 81 l 383 80 z "},"W":{"ha":787,"x_min":0,"x_max":741,"o":"m 107 1007 q 413 620 249 941 q 487 465 459 531 l 489 465 l 519 502 l 544 537 l 539 559 l 539 578 q 569 620 569 598 l 570 622 l 572 622 q 580 609 580 619 l 580 589 q 515 444 580 525 l 507 433 l 556 320 l 591 354 l 589 354 l 554 352 q 544 378 544 360 l 544 394 q 574 454 544 435 l 585 457 l 587 457 q 619 417 609 457 l 620 417 q 656 470 649 445 l 657 470 l 667 441 q 631 370 667 413 l 630 370 l 635 324 l 630 322 q 619 346 622 346 l 570 285 q 576 276 573 276 q 619 306 588 306 q 726 424 688 335 l 731 439 l 741 439 q 694 272 694 326 l 693 272 l 689 289 q 700 344 689 310 l 698 344 q 631 304 680 316 l 631 302 q 661 270 657 302 l 661 259 q 622 193 661 208 l 606 191 l 604 191 l 604 156 q 693 35 693 80 l 693 33 l 691 33 q 600 126 691 47 q 556 74 600 90 l 535 70 q 465 119 488 70 q 457 154 457 135 l 457 159 q 472 215 457 179 q 415 328 415 270 q 437 396 415 348 q 215 798 321 653 q 117 894 163 863 l 107 898 l 107 930 q 320 691 204 894 l 387 559 l 450 422 l 452 422 l 469 443 q 269 811 387 632 q 183 913 224 869 q 107 980 152 944 l 107 1007 m 176 567 q 206 552 188 567 l 191 517 q 161 533 161 531 l 176 567 m 269 567 q 281 557 277 557 q 267 524 277 524 q 228 474 240 524 l 226 472 l 285 519 q 293 496 293 504 l 293 491 q 235 365 293 406 l 215 359 l 206 359 q 167 389 194 359 q 126 307 126 336 l 131 254 q 65 167 131 190 q 2 156 46 161 l 0 156 l 0 157 q 117 276 117 200 l 115 344 q 152 419 115 363 q 161 444 161 435 l 163 444 q 181 407 166 444 l 200 402 l 220 402 q 274 463 248 402 l 272 463 l 215 415 q 211 435 211 422 l 211 446 q 248 554 213 502 q 269 567 262 567 m 328 531 q 352 517 339 531 l 352 515 l 341 485 l 311 496 q 328 531 311 523 m 343 483 q 370 472 363 472 q 357 431 357 441 l 383 420 l 372 385 q 343 398 358 388 l 356 430 q 326 450 326 444 l 343 483 m 559 391 l 561 391 l 604 400 q 585 419 601 419 q 559 391 566 419 m 461 381 q 526 311 488 311 l 535 311 l 535 313 l 485 409 l 461 381 m 293 404 l 300 404 l 300 383 q 283 313 300 320 l 274 311 l 267 311 l 246 315 l 241 315 q 215 261 226 306 l 252 287 l 252 285 l 254 278 l 254 259 q 187 174 254 217 q 139 113 139 138 l 139 98 q 209 28 139 59 q 285 15 244 15 q 469 56 355 15 q 361 13 437 30 q 256 0 303 0 q 137 59 184 0 q 124 98 124 77 l 124 104 q 181 198 124 152 l 206 226 l 202 272 q 231 344 202 305 l 243 352 l 272 352 q 293 376 293 352 l 293 404 m 374 383 q 400 369 400 374 l 391 335 q 359 348 384 335 q 374 383 371 383 m 448 363 q 433 306 433 323 q 487 235 433 266 l 519 270 l 519 272 q 467 322 495 272 l 450 363 l 448 363 m 154 341 q 183 330 183 333 q 169 296 172 296 l 141 307 q 154 341 148 333 m 407 317 q 361 276 378 276 l 361 278 q 407 317 392 317 m 309 306 l 311 306 q 361 209 361 272 l 359 117 l 369 115 l 378 115 q 426 172 414 115 l 426 178 l 420 209 l 419 209 q 400 196 407 198 q 381 230 385 196 q 406 263 381 258 q 443 217 426 263 l 443 196 l 444 194 l 443 193 l 443 161 q 407 80 443 115 l 387 74 q 344 85 355 77 q 235 33 312 33 l 230 33 l 230 35 q 324 104 264 47 q 296 230 296 156 l 296 235 q 309 306 296 276 m 169 293 q 196 280 196 284 q 181 243 185 243 q 154 257 181 246 l 154 259 l 169 293 m 500 222 l 587 167 l 589 176 l 589 185 q 552 272 589 199 l 550 274 q 500 222 520 256 m 583 263 q 620 230 592 230 l 626 230 q 646 243 637 230 l 646 250 q 613 269 646 269 q 583 263 583 267 m 313 254 l 313 180 q 339 131 313 138 l 341 131 q 352 181 352 162 l 352 185 q 319 252 352 222 l 313 254 m 485 204 q 474 161 474 184 l 474 156 q 524 109 474 109 q 576 146 576 116 l 485 204 z "},"X":{"ha":1294,"x_min":0,"x_max":1248,"o":"m 1233 706 q 1248 689 1248 706 l 1248 687 q 1211 613 1248 655 q 1161 548 1183 583 l 1161 550 q 1220 644 1162 580 l 1230 659 q 1217 669 1227 669 q 981 530 1172 663 q 872 444 896 466 l 872 443 q 930 413 930 419 l 930 411 l 926 407 l 907 407 q 998 344 934 377 q 1080 259 1080 296 l 1080 248 q 965 137 1080 177 l 930 133 l 919 133 q 869 170 881 133 q 861 215 861 194 l 859 215 q 696 65 859 144 q 444 0 558 0 q 256 33 314 11 l 254 35 l 254 37 l 281 39 l 298 39 q 704 115 562 39 q 846 213 777 145 q 852 248 852 227 l 852 335 l 850 344 l 852 344 l 850 346 l 850 348 q 828 628 850 463 q 839 669 833 669 q 869 481 869 581 l 869 474 l 870 474 q 944 541 870 482 q 1219 706 1125 672 l 1233 706 m 556 678 l 557 678 q 585 606 566 670 l 585 602 l 583 602 l 570 613 l 570 611 l 587 350 l 589 350 l 587 348 l 587 331 l 637 352 l 635 359 q 613 617 635 523 q 624 644 613 629 l 626 644 q 646 513 646 588 l 654 361 l 656 361 q 767 430 723 392 l 772 437 q 720 452 772 452 q 706 472 706 460 q 739 520 706 509 l 741 520 q 781 457 769 520 l 781 456 q 709 363 781 398 q 654 333 673 338 q 680 219 659 230 l 681 219 l 676 237 q 737 304 683 304 l 744 304 q 806 276 778 304 l 804 276 l 772 283 l 757 283 q 693 263 722 283 l 693 256 q 711 215 694 238 q 756 194 730 194 q 835 237 783 196 l 835 235 q 778 176 835 207 q 719 161 753 161 q 648 215 678 161 q 635 328 643 231 l 585 315 q 569 270 575 270 l 569 272 l 570 311 l 570 313 l 546 307 l 546 298 q 517 261 546 269 l 504 261 q 470 300 483 261 l 465 300 q 430 246 451 286 q 448 206 448 219 l 448 200 q 422 169 439 169 l 419 169 q 374 207 393 169 l 374 209 l 372 209 q 319 135 359 164 q 194 76 232 76 q 109 57 129 57 l 107 57 l 107 59 q 350 193 330 150 q 378 246 358 199 q 385 254 385 246 q 439 289 417 264 q 469 330 459 325 l 472 330 q 487 302 476 330 q 513 289 496 293 q 537 306 537 289 l 533 306 l 535 307 l 535 309 l 524 333 l 524 337 l 530 357 q 546 322 546 340 l 546 315 l 548 315 l 570 326 l 548 646 l 546 652 l 556 678 m 457 646 l 459 646 q 469 635 466 643 l 467 626 l 465 626 l 457 631 l 456 631 q 441 587 450 631 l 439 585 l 435 585 q 422 620 435 598 l 420 619 l 415 619 l 406 628 l 415 641 q 437 607 429 641 l 441 607 q 457 646 447 646 m 350 644 l 352 644 l 352 643 q 339 589 339 602 l 339 576 l 346 569 l 352 569 q 363 585 363 579 l 365 585 l 365 583 q 348 548 365 564 l 344 548 q 330 572 330 548 q 350 644 330 606 m 511 644 l 513 644 l 513 643 l 504 606 q 509 596 506 596 l 513 596 q 519 604 519 596 l 520 604 l 520 600 q 509 581 520 590 q 498 596 498 584 l 498 598 q 511 644 498 616 m 767 643 l 772 641 l 772 628 q 748 596 772 614 l 746 596 l 765 620 l 765 626 l 761 630 l 757 630 l 752 626 l 752 630 q 767 643 756 643 m 670 619 l 672 619 q 693 581 693 603 l 693 565 l 687 541 q 702 522 696 535 q 681 494 700 494 q 670 506 670 494 l 687 561 l 687 570 q 667 609 687 587 l 670 619 m 276 593 q 287 583 284 590 l 287 581 l 285 572 l 283 572 l 272 578 q 259 531 265 565 l 256 531 l 257 530 q 200 481 248 503 l 180 476 q 254 530 243 514 l 254 533 q 241 565 254 543 l 231 563 l 224 572 q 233 585 229 584 l 237 585 q 256 550 256 572 l 259 550 q 276 593 259 580 m 787 587 q 798 574 798 582 q 793 567 795 567 q 789 572 789 567 l 785 572 q 769 526 779 572 l 767 524 l 765 524 q 752 559 762 544 l 750 559 l 748 557 l 746 557 q 735 569 735 562 l 741 580 l 748 580 q 767 543 767 566 l 769 543 q 787 587 775 587 m 433 583 l 439 583 q 383 537 431 559 l 359 530 q 433 581 426 570 l 433 583 m 474 569 l 481 569 l 485 565 l 485 550 l 483 541 l 491 533 q 485 522 491 524 l 476 528 q 406 483 459 500 l 404 483 l 461 520 l 470 530 l 457 543 l 457 546 q 474 569 457 558 m 467 552 l 478 543 l 478 556 l 474 556 l 474 557 q 467 552 467 555 m 600 559 l 602 559 l 602 557 l 593 520 q 598 511 595 511 l 602 511 q 607 519 607 511 l 609 519 l 609 513 q 598 496 609 505 q 587 511 587 499 l 587 513 q 600 559 587 531 m 174 544 l 174 543 q 165 506 165 519 q 170 496 166 496 l 172 496 q 180 506 180 500 l 181 506 l 181 504 l 174 483 l 163 483 l 159 496 l 159 500 q 174 544 159 525 m 528 541 l 530 541 l 530 539 l 524 524 q 539 504 539 513 l 539 496 q 517 476 539 478 q 509 487 509 478 q 528 541 519 541 m 680 526 l 676 511 l 680 507 l 685 507 l 696 517 q 680 528 696 521 l 680 526 m 361 520 q 391 487 391 493 l 389 487 l 376 489 q 409 424 409 439 l 409 422 q 396 383 409 400 l 396 381 l 398 381 q 524 370 482 370 q 504 343 518 343 q 354 294 441 343 l 337 291 l 328 291 q 294 361 299 291 q 285 394 292 394 q 254 348 277 348 l 250 348 q 220 261 250 276 q 85 193 148 205 l 2 176 l 0 176 l 0 178 q 241 315 231 272 q 224 374 241 332 q 233 400 228 400 q 257 378 240 378 l 259 378 q 281 422 281 385 q 285 428 281 428 l 289 428 q 311 341 300 428 q 339 320 319 320 q 411 348 360 320 l 411 350 q 311 361 335 361 l 309 363 l 309 365 q 346 393 319 393 q 400 415 381 403 q 357 491 357 477 l 352 494 q 361 520 357 520 m 519 511 l 515 494 l 515 491 l 526 491 l 535 496 l 535 498 q 519 511 533 503 m 278 509 l 280 507 l 274 491 q 287 472 287 482 l 287 461 q 274 444 287 450 l 263 444 q 257 454 259 444 q 278 509 268 509 m 720 487 l 720 485 q 733 478 724 478 l 752 478 l 752 481 q 731 493 746 493 q 720 487 720 492 m 809 483 l 809 481 q 804 450 804 464 l 804 444 l 809 439 l 820 450 q 809 428 816 428 l 800 428 l 796 443 q 809 483 796 463 m 267 478 l 263 459 l 265 457 l 269 457 q 283 465 276 457 q 269 478 283 469 l 267 478 m 433 472 q 454 461 454 468 l 444 435 l 444 433 l 461 430 l 461 428 q 448 398 452 398 l 426 404 q 437 435 426 414 q 419 443 419 439 q 433 472 426 472 m 174 469 l 174 465 q 161 413 163 432 q 172 394 163 394 q 185 411 180 394 l 187 411 l 187 407 q 167 374 181 374 q 152 398 154 374 q 174 469 152 435 m 326 467 q 352 448 344 457 l 341 426 l 315 444 l 326 467 m 685 467 l 687 467 l 687 465 q 680 426 680 442 l 680 424 l 685 419 l 687 419 q 694 430 694 422 l 696 430 l 696 428 q 685 406 696 414 q 674 417 674 406 l 674 426 q 685 467 674 441 m 491 456 l 491 454 l 481 420 q 489 407 485 407 q 496 417 496 411 l 498 417 l 498 413 q 487 394 498 401 l 483 394 q 476 409 479 394 q 491 456 476 436 m 519 448 l 522 448 l 546 431 q 533 409 539 413 l 509 426 l 519 448 m 609 446 l 609 444 l 600 411 q 606 400 602 400 l 609 400 q 615 407 615 400 l 617 407 l 617 404 q 604 385 617 391 q 594 402 594 385 q 609 446 594 426 m 119 431 l 120 431 q 130 417 130 427 l 128 411 l 126 411 l 119 417 l 117 417 q 102 370 110 417 q 122 354 113 370 q 93 335 122 342 l 89 331 q 100 272 96 313 l 98 254 l 94 257 l 94 265 l 85 333 q 104 352 85 349 l 100 356 l 96 356 l 89 350 l 89 352 q 96 374 89 360 q 81 406 87 404 l 78 402 q 67 411 70 405 l 67 413 l 72 424 l 76 424 q 98 389 93 424 l 102 389 q 119 431 102 420 m 872 402 q 893 193 877 193 q 915 178 893 183 l 924 178 q 1069 246 1015 178 q 994 304 1047 273 q 894 376 938 336 l 872 402 m 826 380 q 781 354 826 369 l 700 311 l 698 311 l 698 313 q 765 356 698 329 q 826 380 812 380 m 193 346 q 202 337 198 345 l 202 335 l 200 326 l 198 326 l 191 331 l 189 331 q 172 283 183 330 l 169 283 q 156 320 169 300 l 154 319 l 148 319 l 139 326 l 146 341 q 172 304 164 341 l 174 304 q 193 346 179 346 m 820 341 l 820 339 l 819 333 l 817 333 l 817 339 l 819 341 l 820 341 m 274 333 l 274 331 l 267 298 q 272 289 268 289 l 276 289 q 281 298 280 289 l 283 298 l 283 294 q 274 276 283 285 l 267 276 q 261 287 261 278 l 261 293 q 274 333 261 316 m 815 333 l 817 333 l 817 330 l 811 300 q 820 291 811 291 l 828 300 l 828 298 q 817 278 822 278 l 813 278 q 806 291 806 281 l 806 298 q 815 333 806 312 m 341 270 l 343 270 q 363 252 363 258 l 354 231 l 350 231 l 328 248 q 341 270 335 267 m 776 267 l 783 256 l 778 248 l 772 254 q 757 213 767 254 l 756 211 l 754 211 q 744 243 754 222 l 741 243 l 739 241 l 728 248 q 737 261 732 260 q 756 228 756 253 l 757 228 q 776 267 763 267 m 491 263 l 491 261 q 478 204 478 220 q 485 189 480 189 q 502 206 502 193 l 504 206 l 504 204 q 481 169 504 174 q 469 193 469 172 q 491 263 469 231 m 598 259 q 628 209 623 259 q 606 165 628 181 q 544 202 581 167 q 496 126 534 154 q 378 67 420 67 q 291 52 309 52 q 385 91 299 58 q 519 174 465 128 q 548 231 528 187 q 574 250 558 231 q 598 259 587 259 m 294 246 l 319 231 l 319 230 l 309 207 l 306 207 l 283 222 l 276 206 l 272 206 l 250 220 l 250 224 l 259 244 l 263 244 l 285 230 l 294 246 m 572 222 q 606 200 572 216 l 607 206 q 593 228 607 218 l 591 228 q 572 222 582 228 m 391 222 l 391 220 q 426 198 406 198 l 428 200 l 428 202 q 391 222 413 222 m 209 207 q 219 191 219 199 l 219 187 q 211 172 219 177 q 191 185 199 172 l 189 185 q 130 133 189 160 l 87 124 l 85 124 l 85 126 q 187 191 187 165 q 209 207 201 207 m 254 204 l 256 204 l 256 202 q 248 169 248 180 l 248 161 l 254 156 l 256 156 q 263 167 259 156 l 265 167 l 265 165 q 254 143 259 143 l 248 143 q 241 156 245 143 q 254 204 243 179 m 198 193 q 213 183 198 190 l 213 185 q 204 194 210 194 l 198 193 m 646 181 l 650 172 q 646 167 646 172 l 644 165 l 643 165 q 639 170 643 170 l 631 163 l 631 159 l 643 156 l 659 167 l 659 165 q 633 133 659 156 l 628 124 l 628 119 q 641 113 628 114 l 674 119 q 648 104 674 112 l 630 104 l 622 111 l 622 117 q 633 144 622 128 q 624 152 625 148 l 624 156 q 646 181 624 171 m 389 157 l 391 157 q 400 139 400 150 q 393 124 397 124 l 391 124 q 370 135 384 124 q 307 83 370 111 l 270 76 l 269 76 l 269 78 q 367 139 367 116 q 372 148 372 143 l 374 146 l 376 146 q 389 157 376 157 m 381 143 q 394 135 385 135 q 385 146 392 143 l 381 143 m 580 148 l 587 148 q 596 131 593 148 l 596 130 q 589 115 596 119 l 583 115 l 567 126 q 509 76 567 103 l 461 65 q 493 80 464 69 q 565 133 565 112 l 580 148 m 578 133 q 591 126 578 130 l 591 128 l 583 137 l 581 137 l 578 133 z "},"Y":{"ha":750,"x_min":0,"x_max":704,"o":"m 481 996 l 481 994 q 461 974 481 981 l 348 904 l 348 906 q 365 928 348 924 l 481 996 m 574 931 q 596 885 594 929 q 585 841 593 841 l 581 844 l 581 857 q 565 894 581 883 q 511 839 549 894 l 474 807 q 643 778 614 778 l 644 776 l 626 744 l 593 746 q 437 702 526 746 l 413 698 q 350 733 389 698 l 331 739 q 152 613 284 739 q 4 565 76 565 l 0 569 q 172 667 97 596 q 330 774 291 774 q 381 746 354 774 q 417 735 399 735 l 422 735 q 504 763 447 735 l 504 765 q 378 791 410 781 q 406 820 378 817 q 526 887 487 841 q 574 931 558 931 m 407 915 l 411 915 q 443 889 442 897 l 428 861 q 394 885 397 881 l 394 887 l 407 915 m 283 872 l 304 872 l 326 870 l 326 867 q 287 813 326 840 l 239 798 q 300 839 245 807 l 300 841 l 294 841 q 241 833 263 841 l 239 835 l 239 837 q 267 870 252 870 l 283 872 m 611 854 q 644 831 619 851 l 630 800 l 628 800 l 594 824 q 611 854 608 854 m 652 719 l 652 717 q 602 689 652 705 l 589 678 l 604 669 l 606 661 l 606 659 q 583 672 588 659 q 607 700 591 700 q 652 719 613 705 m 543 704 q 578 622 556 688 l 578 620 l 576 620 l 561 631 l 561 630 q 576 467 576 500 q 561 400 576 422 l 559 400 l 561 428 q 533 670 541 670 l 543 704 m 313 694 l 320 694 q 331 678 331 688 q 315 661 329 661 l 313 661 q 298 676 298 661 l 298 680 q 313 694 298 694 m 485 687 q 519 663 507 675 q 502 633 507 635 l 469 657 l 485 687 m 631 670 l 635 670 l 639 667 l 639 661 q 633 650 639 651 l 631 650 q 628 656 631 656 l 626 656 q 615 650 615 655 l 615 648 q 628 641 618 641 l 654 650 l 654 648 q 598 613 654 636 l 598 615 q 611 631 599 621 q 602 639 606 631 l 602 643 q 631 670 602 660 m 280 663 q 296 646 296 661 q 285 630 296 636 l 278 630 q 263 639 268 630 l 263 648 q 280 663 263 663 m 346 661 l 354 661 q 365 644 365 655 q 348 628 363 628 q 330 644 333 628 q 346 661 333 661 m 446 661 q 472 513 472 567 l 474 513 q 517 533 501 517 l 519 535 l 519 539 q 500 580 519 545 l 500 583 l 507 611 l 511 611 q 531 554 531 581 q 511 493 531 513 q 476 476 493 476 l 483 387 l 485 387 l 509 406 l 509 407 q 493 426 493 413 q 517 452 501 452 l 520 452 q 526 441 526 450 l 522 417 l 533 411 q 524 396 527 396 l 515 404 l 485 374 l 485 363 l 487 335 q 663 441 572 372 l 672 456 q 615 470 672 470 q 589 494 589 476 l 589 498 q 631 559 589 541 l 637 559 q 685 481 671 559 q 600 363 685 408 q 502 311 524 311 l 533 287 l 526 285 l 526 283 l 587 278 l 659 285 q 643 293 657 293 l 641 293 l 596 289 l 591 289 q 574 298 574 289 q 615 335 595 335 l 622 335 l 626 331 q 620 320 626 322 l 617 324 l 615 324 q 583 306 600 323 l 583 302 l 593 302 l 598 300 l 646 306 q 665 291 665 302 q 628 270 665 270 l 598 269 q 526 274 526 271 l 526 272 q 646 172 569 233 q 674 120 674 146 q 587 35 674 68 q 519 24 559 24 q 476 104 476 33 l 476 113 l 472 113 q 339 9 472 64 q 289 0 304 0 l 276 0 q 196 52 219 0 l 193 80 q 217 154 193 125 l 217 152 l 204 109 l 202 91 q 265 39 202 55 l 287 37 q 452 106 362 37 q 470 146 470 125 l 470 226 l 469 300 q 365 276 378 276 l 363 276 l 363 278 l 469 326 l 467 328 l 467 346 l 465 365 q 407 341 417 341 q 465 374 426 356 l 457 470 l 456 472 l 454 472 q 361 517 382 472 q 350 531 356 529 q 317 498 336 531 l 315 489 q 356 448 315 472 q 385 433 382 441 q 378 404 381 404 q 331 415 353 415 l 328 415 q 254 383 293 415 l 257 294 l 259 293 q 322 322 311 322 q 309 354 309 346 q 337 389 313 389 l 343 389 q 393 361 361 389 q 402 344 402 354 q 383 315 397 315 q 344 300 344 303 l 344 287 l 339 287 q 333 298 339 294 l 259 263 q 276 156 265 168 q 298 133 292 133 l 298 135 q 283 176 283 153 q 324 243 283 224 q 356 250 333 248 q 430 219 398 250 l 430 217 l 428 217 q 389 226 401 226 l 374 226 q 302 204 339 226 l 302 198 q 330 141 302 169 q 372 124 349 124 q 463 172 405 125 l 465 172 l 465 170 q 437 130 451 130 q 343 87 388 87 l 331 87 q 257 133 287 87 q 243 248 243 183 l 241 248 l 133 150 q 111 143 121 143 l 106 143 q 65 196 72 143 l 65 198 q 93 285 65 231 l 94 287 l 96 287 l 96 283 q 74 206 74 222 l 74 193 q 98 169 80 169 q 217 261 131 169 l 239 278 l 241 278 l 237 370 q 148 300 160 300 l 137 296 q 87 357 87 307 q 113 450 87 390 l 117 450 l 117 448 q 96 359 96 378 q 126 326 96 326 q 196 372 154 326 q 235 406 231 406 l 233 411 q 202 609 233 500 l 196 613 q 180 581 193 613 l 178 581 l 178 585 q 202 646 178 622 l 206 646 q 252 420 233 629 l 254 420 q 313 450 286 443 l 304 480 l 304 485 q 341 565 304 531 l 354 570 q 381 531 359 570 q 450 513 406 513 l 452 513 l 437 628 q 446 661 441 661 m 411 639 l 411 637 l 404 611 q 419 589 419 600 q 398 561 416 561 l 393 561 q 385 572 385 565 q 409 639 389 609 l 411 639 m 681 637 l 683 637 l 683 635 q 639 600 683 622 l 581 563 l 581 565 q 615 596 581 584 l 681 637 m 311 630 l 313 630 q 330 611 328 630 q 313 596 330 599 l 311 596 q 294 615 297 596 q 311 630 299 630 m 285 600 l 287 600 l 280 576 q 293 563 284 575 l 293 550 q 274 531 293 535 l 270 531 l 265 537 l 265 543 q 285 600 276 600 m 396 598 l 391 581 l 393 576 l 402 576 l 413 585 q 396 598 413 588 m 274 563 l 269 550 l 270 544 l 274 544 l 289 550 l 289 552 q 274 563 281 563 m 180 556 q 189 546 185 554 l 189 544 l 187 535 l 183 535 q 176 543 183 543 q 161 489 169 535 q 181 474 171 489 q 154 456 181 460 l 150 452 q 159 381 159 422 l 159 361 l 156 361 l 156 372 l 146 454 q 163 470 149 470 l 163 472 l 159 476 l 150 469 l 150 470 q 157 489 150 482 l 146 530 l 137 528 l 130 537 l 130 539 l 137 550 q 159 515 159 541 l 161 515 q 180 556 168 556 m 609 520 l 609 511 q 620 506 611 506 l 637 506 l 650 507 q 631 524 641 520 l 622 524 l 609 520 m 419 448 l 420 448 l 420 446 q 415 413 415 426 l 415 411 q 420 400 416 400 l 422 400 q 430 413 427 400 l 431 413 l 431 409 q 422 383 430 383 l 415 383 l 409 402 q 419 448 409 419 m 502 433 q 515 422 503 428 l 517 424 l 517 428 l 515 437 l 513 437 l 502 433 m 661 391 l 663 391 q 704 302 704 356 q 663 191 704 236 l 663 194 q 683 270 683 241 q 641 365 683 313 l 641 367 l 661 391 m 322 356 l 322 354 l 333 330 l 365 339 q 331 356 365 348 l 322 356 m 146 283 l 148 283 l 148 281 l 144 252 q 150 239 146 239 l 152 239 q 159 252 157 239 l 161 252 l 161 248 q 152 222 159 222 l 148 222 q 139 241 139 226 l 146 283 m 489 278 q 504 74 492 74 q 533 59 504 64 q 663 111 604 59 q 576 193 657 134 q 489 278 525 230 m 452 209 q 404 178 452 195 l 344 148 l 344 152 q 369 172 344 166 q 452 209 417 197 m 554 191 q 546 143 546 164 l 546 137 q 554 119 549 119 l 556 119 q 567 137 567 126 l 569 137 l 569 124 q 557 94 569 103 l 552 94 q 537 124 537 102 q 552 191 537 149 l 554 191 m 189 157 l 189 154 q 167 133 189 143 l 78 78 l 76 78 q 109 109 76 95 l 189 157 m 187 131 q 148 98 187 114 l 76 52 l 74 52 l 74 56 q 120 91 74 69 q 187 131 128 98 m 287 94 l 289 94 l 294 70 q 283 54 294 54 l 276 61 l 274 61 q 263 52 274 52 q 254 78 256 52 l 252 80 q 259 89 256 88 l 261 83 l 259 70 l 265 61 q 274 70 274 64 l 272 91 l 274 93 l 276 93 q 285 65 280 65 l 291 65 l 285 89 l 287 94 z "},"Z":{"ha":1390,"x_min":0,"x_max":1344,"o":"m 1302 739 l 1306 739 q 1332 639 1332 739 l 1332 634 l 1338 634 l 1338 639 l 1335 714 l 1341 714 l 1344 689 l 1344 634 q 1220 420 1323 420 l 1197 420 l 1162 425 l 1165 430 l 1165 435 l 1156 435 l 1156 445 l 1186 440 l 1197 440 q 1297 560 1271 440 q 1308 679 1308 618 l 1302 739 m 629 704 l 638 704 q 668 654 663 704 q 641 619 659 619 l 638 619 l 629 634 q 647 659 638 634 l 647 669 l 641 679 l 635 679 q 597 609 609 679 l 609 600 l 676 614 l 688 600 l 688 594 q 588 544 688 568 l 588 565 l 638 580 l 638 585 l 618 580 l 597 580 q 574 614 574 585 q 629 704 596 704 m 1104 634 l 1130 580 l 1133 580 q 1118 634 1133 597 l 1124 634 q 1144 585 1144 612 l 1144 569 q 1127 560 1144 560 q 1118 540 1127 540 q 1086 614 1086 540 q 1106 565 1092 614 l 1109 560 l 1115 560 l 1115 565 l 1100 629 l 1104 634 m 899 580 l 913 580 q 972 495 972 567 l 972 475 q 905 395 958 395 q 828 435 871 395 q 884 96 884 156 l 884 52 l 881 2 l 849 2 l 849 27 q 781 490 849 150 l 781 495 l 784 500 l 784 505 q 878 445 847 445 l 893 445 l 893 450 q 869 520 876 450 q 899 580 874 580 m 524 575 q 550 530 550 562 q 524 485 546 485 l 521 485 q 498 525 498 485 l 498 544 q 524 575 509 575 m 463 569 q 486 520 486 556 q 469 485 481 485 l 469 480 q 500 445 492 480 l 500 440 q 471 390 497 390 q 448 420 458 390 l 448 440 q 463 475 448 475 l 463 480 q 433 520 433 480 l 433 525 q 463 569 433 565 m 1089 540 l 1092 540 q 1130 460 1117 540 l 1171 320 l 1174 320 l 1174 331 l 1171 356 q 1200 405 1179 405 l 1206 405 q 1302 246 1263 405 l 1302 201 q 1273 151 1297 151 l 1262 151 q 1197 226 1225 151 l 1194 226 l 1200 156 l 1200 146 q 1156 7 1194 7 l 1153 7 q 1083 106 1104 7 l 1080 136 q 1100 226 1081 168 q 1133 186 1130 200 q 1115 106 1120 158 q 1130 37 1122 37 l 1136 37 q 1174 131 1174 37 l 1174 156 q 1104 485 1174 275 l 1089 540 m 363 535 l 366 535 q 425 480 413 535 q 398 405 411 405 l 366 405 l 363 410 l 360 410 q 383 490 383 470 l 383 495 l 375 510 q 252 356 318 489 l 252 350 l 255 350 q 305 375 283 374 l 343 360 l 343 340 q 217 166 284 222 q 164 216 178 216 q 41 2 138 216 l 6 2 l 0 12 q 123 251 7 75 l 144 261 q 211 206 165 261 q 316 345 246 236 q 211 256 298 337 l 179 281 q 339 530 233 465 l 363 535 m 603 525 q 638 450 638 525 l 664 151 q 670 166 670 151 l 673 166 q 741 87 721 87 l 755 87 q 781 196 781 114 q 732 336 767 336 l 723 336 q 702 276 702 313 q 746 176 725 176 l 746 181 q 729 291 746 213 l 732 291 q 767 236 756 291 l 775 181 l 775 171 q 752 146 768 146 q 676 281 706 146 l 673 320 q 706 381 673 369 l 720 381 q 808 246 772 381 q 814 191 814 226 l 814 146 q 773 52 814 69 l 755 52 q 668 146 718 52 l 670 47 l 670 2 l 664 2 q 620 281 658 2 l 585 515 l 603 525 m 225 520 l 234 520 q 252 475 252 505 q 223 430 252 435 q 199 475 204 430 q 225 520 203 520 m 527 460 l 530 460 q 574 440 574 460 q 588 316 588 369 l 588 300 q 556 251 588 263 l 553 251 q 512 316 535 251 l 500 316 q 489 281 489 307 l 489 261 q 562 201 519 261 q 582 116 582 145 q 533 47 582 59 q 463 206 479 47 l 463 221 q 328 2 398 221 l 284 2 l 284 7 q 410 231 323 153 l 460 266 q 492 365 474 352 l 494 365 q 544 281 520 365 l 547 281 l 547 316 q 527 460 547 348 m 1022 420 q 1077 365 1077 401 q 1045 271 1077 326 q 1007 300 1020 271 q 1039 390 1039 342 l 1036 395 l 1030 395 q 957 276 980 395 l 954 241 q 975 216 956 226 q 1104 360 1030 216 l 1106 360 l 1115 336 l 1115 325 q 1045 166 1100 325 q 978 92 1007 92 l 969 92 q 863 375 899 92 l 872 375 q 890 291 879 375 q 969 116 924 116 q 1060 256 1009 116 l 1056 256 q 972 196 1018 196 q 928 266 928 207 l 928 276 q 1001 415 928 369 l 1022 420 m 1209 375 l 1203 356 q 1232 266 1203 333 q 1206 246 1232 256 q 1268 171 1245 171 q 1279 211 1279 195 q 1220 370 1279 286 l 1209 375 m 378 375 l 383 375 q 407 336 407 375 l 407 331 q 381 286 402 286 q 354 340 356 286 q 378 375 360 375 m 483 216 q 527 76 494 76 l 530 76 q 547 126 547 94 q 494 226 532 226 l 489 226 l 483 216 m 126 106 l 129 106 q 155 62 155 100 q 126 17 147 17 q 102 47 115 17 l 102 67 q 126 106 102 106 m 184 106 q 211 56 211 91 q 184 17 211 25 l 181 17 q 158 56 158 17 l 158 76 q 184 106 169 106 z "}}}
